<svg width="424" height="100" viewBox="0 0 424 100" fill="none" xmlns="http://www.w3.org/2000/svg">
<g clip-path="url(#clip0_112_2)">
<path d="M91.6925 -43.3689C92.0551 -42.8135 92.3771 -42.2369 92.6572 -41.639L92.2044 -41.4269C92.3396 -41.1383 92.4646 -40.8447 92.5793 -40.5458C92.694 -40.247 92.7976 -39.9451 92.8902 -39.6403L93.3686 -39.7856C93.5606 -39.1539 93.7071 -38.5099 93.8093 -37.8545L93.3153 -37.7775C93.4127 -37.1523 93.4685 -36.5156 93.4833 -35.8679L93.9831 -35.8794C93.998 -35.2276 93.9727 -34.5662 93.9081 -33.8959L93.4104 -33.9439C93.3499 -33.3161 93.2539 -32.6791 93.1227 -32.0337L93.6127 -31.9342C93.4838 -31.2999 93.3222 -30.6587 93.1284 -30.0115L92.6494 -30.1549C92.4677 -29.5477 92.2568 -28.9342 92.0173 -28.3148L92.4837 -28.1345C92.2504 -27.531 91.9907 -26.9229 91.7052 -26.3108L91.2521 -26.5221C90.9832 -25.9456 90.6908 -25.3648 90.3753 -24.7802L90.8153 -24.5427C90.508 -23.9734 90.1793 -23.401 89.8298 -22.826L89.4025 -23.0858C89.0698 -22.5386 88.7178 -21.9885 88.3466 -21.4361L88.7616 -21.1573C88.399 -20.6176 88.0187 -20.076 87.6209 -19.5327L87.2175 -19.8281C86.8356 -19.3067 86.4374 -18.7834 86.023 -18.2588L86.4154 -17.9489C86.012 -17.438 85.5936 -16.926 85.1606 -16.4132L84.7785 -16.7357C84.3627 -16.2433 83.9332 -15.7499 83.4901 -15.2558L83.8623 -14.922C83.4264 -14.4359 82.9776 -13.9492 82.5162 -13.4622L82.1533 -13.8061C81.7048 -13.3328 81.2442 -12.8591 80.7717 -12.3851L81.1258 -12.0321C80.6671 -11.572 80.1974 -11.1118 79.7169 -10.6516L79.3711 -11.0128C78.9013 -10.5631 78.4211 -10.1134 77.9306 -9.66383L78.2684 -9.2952C77.7838 -8.85113 77.2893 -8.40733 76.785 -7.96399L76.4549 -8.33948C75.9682 -7.91157 75.4723 -7.48403 74.9674 -7.05699L75.2903 -6.67523C74.7892 -6.25138 74.2793 -5.8281 73.7608 -5.40554L73.4449 -5.79313C72.939 -5.38082 72.4248 -4.96915 71.9024 -4.55827L72.2115 -4.16528C71.6972 -3.76075 71.1751 -3.35701 70.6454 -2.95421L70.3428 -3.35222C69.8198 -2.95459 69.2893 -2.55783 68.7514 -2.16207L69.0477 -1.75933C68.522 -1.37259 67.9894 -0.986851 67.4499 -0.602218L67.1596 -1.00935C66.6255 -0.628607 66.0847 -0.248933 65.5372 0.129562L65.8215 0.540857C65.2823 0.913559 64.7367 1.28509 64.1849 1.65534L63.9063 1.24013C63.3624 1.60506 62.8123 1.96877 62.2561 2.33114L62.5291 2.75006C61.9782 3.10901 61.4214 3.46664 60.8588 3.82284L60.5913 3.4004C60.0384 3.75047 59.4799 4.09917 58.9159 4.44641L59.178 4.87219C58.6168 5.21766 58.0503 5.56167 57.4784 5.90411L57.2215 5.47513C56.6603 5.81114 56.094 6.14566 55.5226 6.47859L55.7744 6.9106C55.2042 7.24284 54.629 7.5735 54.0489 7.90247L53.8022 7.46754C53.2334 7.79015 52.6597 8.11115 52.0814 8.43046L52.3231 8.86817C51.7449 9.18743 51.1621 9.50498 50.5748 9.82075L50.338 9.38036C49.7618 9.69012 49.1813 9.99816 48.5965 10.3044L48.8284 10.7473C48.2431 11.0538 47.6534 11.3585 47.0596 11.6614L46.8325 11.2159C46.2494 11.5133 45.6623 11.8088 45.0712 12.1024L45.2936 12.5502C44.7018 12.8441 44.1061 13.1362 43.5064 13.4263L43.2887 12.9762C42.6991 13.2614 42.1056 13.5447 41.5085 13.8261L41.7216 14.2784C41.124 14.5599 40.5227 14.8395 39.9178 15.117L39.7093 14.6626C39.1134 14.936 38.514 15.2074 37.9111 15.4767L38.115 15.9332C37.5121 16.2026 36.9057 16.4699 36.296 16.735L36.0966 16.2765C35.4947 16.5382 34.8895 16.7979 34.2811 17.0554L34.476 17.5158C33.8682 17.7731 33.2571 18.0282 32.643 18.281L32.4526 17.8187C31.845 18.0689 31.2343 18.3169 30.6206 18.5627L30.8065 19.0269C30.1941 19.2722 29.5788 19.5152 28.9605 19.7559L28.7791 19.29C28.4707 19.4101 28.1617 19.5296 27.8518 19.6485C27.542 19.7674 27.2324 19.8854 26.9229 20.0025L27.0998 20.4702C26.4793 20.7049 25.8594 20.9361 25.2402 21.1636L25.0678 20.6942C24.4473 20.9222 23.8275 21.1465 23.2085 21.3672L23.3764 21.8382C22.7508 22.0612 22.126 22.2805 21.5021 22.496L21.3389 22.0234C20.7144 22.2392 20.0909 22.4512 19.4685 22.6594L19.6271 23.1336C18.9966 23.3445 18.3672 23.5516 17.7389 23.7549L17.5849 23.2792C16.9567 23.4824 16.3296 23.6819 15.7038 23.8774L15.853 24.3547C15.2177 24.5532 14.5838 24.7478 13.9513 24.9384L13.807 24.4597C13.175 24.6501 12.5444 24.8367 11.9154 25.0192L12.0548 25.4994C11.415 25.6851 10.7769 25.8667 10.1404 26.0442L10.0061 25.5626C9.37034 25.7399 8.73628 25.9132 8.10403 26.0824L8.23328 26.5654C7.58937 26.7377 6.94731 26.9058 6.30723 27.0697L6.1832 26.5853C5.54366 26.7491 4.90611 26.9086 4.27068 27.064L4.38941 27.5497C3.74163 27.708 3.09603 27.862 2.45272 28.0116L2.33944 27.5246C1.69604 27.6743 1.05495 27.8196 0.416322 27.9605L0.524049 28.4487C-0.127171 28.5924 -0.775872 28.7316 -1.42192 28.8662L-1.52393 28.3767C-2.17131 28.5116 -2.816 28.642 -3.45786 28.7677L-3.36171 29.2584C-4.01585 29.3866 -4.66709 29.5101 -5.31528 29.6288L-5.40539 29.137C-6.05689 29.2564 -6.70528 29.371 -7.3504 29.4808L-7.2665 29.9737C-7.92292 30.0854 -8.576 30.1922 -9.22559 30.2941L-9.30305 29.8001C-9.95883 29.903 -10.611 30.0008 -11.2594 30.0935L-11.1886 30.5885C-11.8465 30.6826 -12.5005 30.7716 -13.1506 30.8554L-13.2145 30.3595C-13.8746 30.4446 -14.5306 30.5243 -15.1823 30.5988L-15.1256 31.0955C-15.7839 31.1707 -16.4378 31.2405 -17.0872 31.3048L-17.1365 30.8072C-17.8011 30.873 -18.4608 30.9332 -19.1155 30.9876L-19.0741 31.4859C-19.7373 31.541 -20.3954 31.5903 -21.0483 31.6338L-21.0816 31.1349C-21.7447 31.1791 -22.4023 31.2173 -23.0541 31.2494L-23.0295 31.7488C-23.6976 31.7817 -24.3598 31.8083 -25.0158 31.8287L-25.0313 31.3289C-25.6922 31.3494 -26.3468 31.3635 -26.9948 31.3711L-26.9889 31.8711C-27.6603 31.879 -28.3248 31.8801 -28.982 31.8744L-28.9776 31.3744C-29.643 31.3686 -30.3008 31.3557 -30.9508 31.3358L-30.9661 31.8356C-31.6311 31.8152 -32.2881 31.7875 -32.9369 31.7525L-32.9099 31.2532C-33.5782 31.2171 -34.2375 31.1733 -34.8874 31.1216L-34.9271 31.62C-35.5958 31.5669 -36.255 31.5055 -36.9042 31.4359L-36.8509 30.9388C-37.5108 30.8681 -38.1602 30.7888 -38.7987 30.7011L-38.8668 31.1965C-39.5317 31.1051 -40.1853 31.0046 -40.8269 30.8949L-40.7427 30.402C-41.4017 30.2894 -42.0477 30.167 -42.6804 30.035L-42.7826 30.5245C-43.4417 30.3869 -44.0867 30.2389 -44.7173 30.0805L-44.5955 29.5956C-45.2409 29.4334 -45.8706 29.2602 -46.484 29.0762L-46.6277 29.5551C-47.2722 29.3617 -47.8994 29.1562 -48.5088 28.9388L-48.3407 28.4679C-48.9664 28.2445 -49.5723 28.0086 -50.1578 27.7601L-50.3532 28.2203C-50.9749 27.9564 -51.5748 27.6783 -52.152 27.386L-51.9261 26.9399C-52.5185 26.6399 -53.0857 26.325 -53.627 25.9954L-53.8871 26.4225C-54.4642 26.0711 -55.0133 25.7029 -55.5335 25.3177L-55.236 24.9159C-55.7653 24.524 -56.2629 24.1149 -56.728 23.6889L-57.0657 24.0575C-57.5622 23.6027 -58.0236 23.1281 -58.4487 22.6337L-58.0695 22.3077C-58.4919 21.8166 -58.8765 21.3061 -59.2224 20.7763L-59.6411 21.0496C-60.0037 20.4942 -60.3257 19.9175 -60.6058 19.3196L-60.153 19.1075C-60.2882 18.819 -60.4132 18.5253 -60.5279 18.2265C-60.6426 17.9277 -60.7462 17.6258 -60.8388 17.3209L-61.3172 17.4663C-61.5092 16.8346 -61.6557 16.1905 -61.7579 15.5351L-61.2638 15.4581C-61.3613 14.833 -61.4171 14.1962 -61.4319 13.5486L-61.9317 13.56C-61.9466 12.9082 -61.9213 12.2468 -61.8567 11.5766L-61.359 11.6246C-61.2985 10.9967 -61.2024 10.3598 -61.0713 9.7144L-61.5613 9.61484C-61.4324 8.98051 -61.2707 8.33938 -61.077 7.69212L-60.598 7.83551C-60.4162 7.22837 -60.2054 6.61482 -59.9659 5.99543L-60.4323 5.81511C-60.199 5.21165 -59.9393 4.60358 -59.6538 3.99143L-59.2006 4.20276C-58.9318 3.62626 -58.6394 3.04548 -58.3238 2.46088L-58.7638 2.22339C-58.4566 1.65405 -58.1279 1.08168 -57.7783 0.506691L-57.3511 0.766428C-57.0184 0.219211 -56.6663 -0.330796 -56.2952 -0.883229L-56.7102 -1.16207C-56.3476 -1.70175 -55.9673 -2.24337 -55.5695 -2.78659L-55.1661 -2.4912C-54.7842 -3.01268 -54.386 -3.53591 -53.9716 -4.06059L-54.364 -4.37047C-53.9606 -4.88134 -53.5422 -5.39333 -53.1091 -5.90618L-52.7271 -5.5836C-52.3113 -6.07602 -51.8817 -6.56942 -51.4387 -7.06353L-51.8109 -7.39734C-51.375 -7.88347 -50.9262 -8.37013 -50.4648 -8.85711L-50.1018 -8.51322C-49.6534 -8.98654 -49.1928 -9.46029 -48.7203 -9.93423L-49.0744 -10.2872C-48.6157 -10.7474 -48.146 -11.2076 -47.6654 -11.6677L-47.3196 -11.3065C-46.8499 -11.7563 -46.3697 -12.206 -45.8792 -12.6555L-46.217 -13.0241C-45.7324 -13.4682 -45.2379 -13.912 -44.7336 -14.3554L-44.4035 -13.9799C-43.9168 -14.4078 -43.4209 -14.8353 -42.916 -15.2624L-43.2389 -15.6441C-42.7378 -16.068 -42.2279 -16.4912 -41.7094 -16.9138L-41.3935 -16.5262C-40.8876 -16.9385 -40.3733 -17.3502 -39.851 -17.7611L-40.1601 -18.1541C-39.6458 -18.5586 -39.1237 -18.9623 -38.594 -19.3651L-38.2913 -18.9671C-37.7684 -19.3648 -37.2379 -19.7615 -36.7 -20.1573L-36.9963 -20.56C-36.4706 -20.9468 -35.938 -21.3325 -35.3985 -21.7171L-35.1082 -21.31C-34.5741 -21.6907 -34.0333 -22.0704 -33.4857 -22.4489L-33.77 -22.8602C-33.2309 -23.2329 -32.6853 -23.6044 -32.1334 -23.9747L-31.8549 -23.5595C-31.3109 -23.9244 -30.7609 -24.2881 -30.2047 -24.6505L-30.4777 -25.0694C-29.9267 -25.4284 -29.37 -25.786 -28.8074 -26.1422L-28.5399 -25.7197C-27.987 -26.0698 -27.4285 -26.4185 -26.8645 -26.7658L-27.1266 -27.1915C-26.5654 -27.537 -25.9988 -27.881 -25.4269 -28.2235L-25.1701 -27.7945C-24.6089 -28.1305 -24.0426 -28.465 -23.4712 -28.7979L-23.723 -29.2299C-23.1528 -29.5622 -22.5776 -29.8928 -21.9975 -30.2218L-21.7508 -29.7869C-21.1819 -30.1095 -20.6083 -30.4305 -20.03 -30.7498L-20.2717 -31.1875C-19.6935 -31.5068 -19.1107 -31.8243 -18.5234 -32.1401L-18.2866 -31.6997C-17.7104 -32.0095 -17.1299 -32.3175 -16.545 -32.6237L-16.777 -33.0667C-16.1916 -33.3732 -15.602 -33.6779 -15.0082 -33.9807L-14.7811 -33.5353C-14.198 -33.8326 -13.6109 -34.1281 -13.0198 -34.4217L-13.2422 -34.8695C-12.6504 -35.1635 -12.0547 -35.4555 -11.455 -35.7456L-11.2373 -35.2955C-10.6477 -35.5807 -10.0542 -35.8641 -9.45711 -36.1454L-9.67022 -36.5977C-9.07261 -36.8793 -8.47132 -37.1589 -7.86642 -37.4364L-7.65792 -36.9819C-7.062 -37.2553 -6.46256 -37.5267 -5.85967 -37.7961L-6.06362 -38.2526C-5.46068 -38.5219 -4.85431 -38.7892 -4.2446 -39.0543L-4.04522 -38.5958C-3.44329 -38.8576 -2.8381 -39.1172 -2.22969 -39.3747L-2.42457 -39.8352C-1.81673 -40.0924 -1.20572 -40.3475 -0.591581 -40.6004L-0.401202 -40.1381C0.206443 -40.3883 0.817154 -40.6363 1.43086 -40.8821L1.24496 -41.3462C1.85732 -41.5915 2.47265 -41.8345 3.09088 -42.0752L3.27231 -41.6093C3.58067 -41.7294 3.88976 -41.8489 4.19957 -41.9678C4.50937 -42.0867 4.81902 -42.2048 5.12853 -42.3219L4.95159 -42.7895C5.5721 -43.0243 6.192 -43.2554 6.81117 -43.4829L6.98361 -43.0136C7.60414 -43.2416 8.22395 -43.4659 8.84295 -43.6865L8.67506 -44.1575C9.30066 -44.3805 9.92543 -44.5998 10.5493 -44.8154L10.7126 -44.3428C11.337 -44.5585 11.9605 -44.7705 12.5829 -44.9788L12.4243 -45.4529C13.0548 -45.6639 13.6843 -45.871 14.3126 -46.0743L14.4665 -45.5985C15.0947 -45.8018 15.7218 -46.0012 16.3476 -46.1968L16.1984 -46.674C16.8337 -46.8725 17.4676 -47.0671 18.1001 -47.2577L18.2444 -46.779C18.8764 -46.9695 19.507 -47.156 20.136 -47.3386L19.9967 -47.8188C20.6364 -48.0044 21.2745 -48.186 21.911 -48.3636L22.0453 -47.882C22.6811 -48.0593 23.3151 -48.2325 23.9474 -48.4017L23.8181 -48.8847C24.462 -49.057 25.1041 -49.2251 25.7442 -49.389L25.8682 -48.9047C26.5078 -49.0684 27.1453 -49.228 27.7807 -49.3833L27.662 -49.869C28.3098 -50.0274 28.9554 -50.1813 29.5987 -50.331L29.712 -49.844C30.3554 -49.9936 30.9965 -50.1389 31.6351 -50.2798L31.5274 -50.7681C32.1786 -50.9118 32.8273 -51.0509 33.4733 -51.1855L33.5753 -50.6961C34.2227 -50.831 34.8674 -50.9613 35.5093 -51.0871L35.4131 -51.5778C36.0673 -51.706 36.7185 -51.8294 37.3667 -51.9482L37.4568 -51.4564C38.1083 -51.5757 38.7567 -51.6903 39.4018 -51.8001L39.3179 -52.293C39.9743 -52.4048 40.6274 -52.5116 41.277 -52.6134L41.3545 -52.1195C42.0102 -52.2223 42.6624 -52.3201 43.3108 -52.4129L43.24 -52.9079C43.8979 -53.002 44.5519 -53.0909 45.202 -53.1747L45.2659 -52.6788C45.9261 -52.7639 46.5821 -52.8437 47.2337 -52.9181L47.177 -53.4149C47.8353 -53.49 48.4892 -53.5598 49.1387 -53.6241L49.1879 -53.1266C49.8525 -53.1924 50.5122 -53.2525 51.1669 -53.3069L51.1255 -53.8052C51.7887 -53.8604 52.4469 -53.9097 53.0997 -53.9532L53.133 -53.4543C53.7961 -53.4985 54.4537 -53.5366 55.1056 -53.5687L55.081 -54.0681C55.749 -54.1011 56.4112 -54.1277 57.0672 -54.148L57.0827 -53.6483C57.7436 -53.6687 58.3982 -53.6828 59.0462 -53.6905L59.0403 -54.1904C59.7117 -54.1984 60.3762 -54.1995 61.0334 -54.1937L61.0291 -53.6937C61.6944 -53.6879 62.3522 -53.675 63.0022 -53.6551L63.0175 -54.1549C63.6825 -54.1345 64.3395 -54.1068 64.9883 -54.0718L64.9614 -53.5725C65.6296 -53.5365 66.2889 -53.4926 66.9389 -53.4409L66.9785 -53.9394C67.6472 -53.8862 68.3064 -53.8248 68.9556 -53.7553L68.9023 -53.2581C69.5623 -53.1874 70.2116 -53.1082 70.8501 -53.0205L70.9182 -53.5158C71.5832 -53.4245 72.2367 -53.3239 72.8783 -53.2142L72.7941 -52.7214C73.4531 -52.6087 74.0991 -52.4864 74.7319 -52.3543L74.834 -52.8438C75.4931 -52.7063 76.1382 -52.5583 76.7687 -52.3998L76.6469 -51.9149C77.2924 -51.7527 77.922 -51.5796 78.5354 -51.3955L78.6791 -51.8744C79.3236 -51.681 79.9509 -51.4756 80.5602 -51.2581L80.3921 -50.7872C81.0178 -50.5639 81.6237 -50.3279 82.2092 -50.0794L82.4046 -50.5397C83.0264 -50.2758 83.6262 -49.9977 84.2034 -49.7053L83.9775 -49.2593C84.5699 -48.9592 85.1371 -48.6443 85.6785 -48.3148L85.9385 -48.7418C86.5156 -48.3905 87.0647 -48.0222 87.5849 -47.6371L87.2874 -47.2352C87.8167 -46.8433 88.3143 -46.4343 88.7794 -46.0082L89.1172 -46.3769C89.6136 -45.922 90.075 -45.4474 90.5001 -44.9531L90.1209 -44.6271C90.5433 -44.1359 90.9279 -43.6254 91.2738 -43.0956L91.6925 -43.3689Z" stroke="#FFD700" stroke-dasharray="2 2"/>
<path d="M178.209 -14.1131C178.349 -13.4646 178.443 -12.8108 178.49 -12.1523L177.991 -12.1165C178.014 -11.7987 178.026 -11.4797 178.026 -11.1597C178.026 -10.8396 178.014 -10.5206 177.991 -10.2028L178.49 -10.1671C178.443 -9.50852 178.349 -8.85476 178.209 -8.20628L177.721 -8.31143C177.588 -7.69286 177.411 -7.07842 177.193 -6.46852L177.664 -6.30004C177.444 -5.68622 177.184 -5.0778 176.883 -4.47523L176.436 -4.69837C176.154 -4.13392 175.836 -3.57371 175.483 -3.01819L175.904 -2.74965C175.557 -2.20364 175.176 -1.66304 174.763 -1.1282L174.367 -1.43372C173.98 -0.932044 173.563 -0.434802 173.118 0.0576298L173.489 0.39309C173.054 0.872861 172.594 1.34748 172.108 1.81666L171.761 1.45698C171.303 1.89884 170.822 2.33625 170.318 2.76895L170.644 3.14834C170.153 3.56974 169.641 3.98632 169.108 4.39785L168.803 4.00225C168.296 4.3939 167.77 4.78121 167.226 5.16393L167.513 5.57299C166.981 5.94688 166.432 6.31622 165.866 6.68081L165.595 6.26046C165.052 6.61046 164.493 6.95622 163.918 7.29756L164.173 7.72749C163.613 8.05984 163.039 8.38789 162.451 8.71149L162.21 8.27343C161.646 8.58413 161.068 8.89081 160.477 9.19331L160.705 9.63836C160.124 9.93597 159.53 10.2295 158.925 10.5188L158.709 10.0676C158.121 10.3488 157.521 10.626 156.91 10.8992L157.114 11.3556C156.521 11.6208 155.918 11.8821 155.304 12.1395L155.111 11.6784C154.511 11.9299 153.902 12.1777 153.283 12.4215L153.466 12.8867C152.854 13.1277 152.234 13.3648 151.604 13.598L151.43 13.1291C150.823 13.3541 150.207 13.5756 149.582 13.7933L149.747 14.2654C149.127 14.4816 148.499 14.694 147.864 14.9027L147.708 14.4276C147.088 14.6312 146.46 14.8313 145.825 15.0277L145.973 15.5054C145.348 15.6987 144.716 15.8885 144.077 16.0747L143.937 15.5947C143.306 15.7785 142.669 15.9588 142.025 16.1355L142.157 16.6177C141.528 16.7904 140.892 16.9596 140.251 17.1253L140.126 16.6412C139.491 16.8053 138.85 16.9659 138.203 17.1231L138.321 17.6089C137.684 17.7636 137.041 17.915 136.394 18.0629L136.282 17.5754C135.644 17.7212 135 17.8636 134.351 18.0026L134.455 18.4915C133.813 18.6292 133.165 18.7635 132.512 18.8945L132.413 18.4042C131.772 18.5329 131.125 18.6583 130.474 18.7803L130.566 19.2718C129.919 19.3932 129.267 19.5113 128.61 19.626L128.524 19.1335C127.88 19.2461 127.231 19.3554 126.578 19.4615L126.658 19.955C126.007 20.0609 125.352 20.1634 124.692 20.2627L124.618 19.7682C123.971 19.8655 123.32 19.9597 122.666 20.0505L122.735 20.5458C122.081 20.6366 121.423 20.7242 120.761 20.8085L120.698 20.3125C120.049 20.3952 119.397 20.4748 118.741 20.5511L118.799 21.0477C118.143 21.1241 117.483 21.1973 116.82 21.2672L116.768 20.7699C116.117 20.8385 115.463 20.904 114.806 20.9663L114.853 21.4641C114.195 21.5264 113.534 21.5856 112.87 21.6415L112.828 21.1432C112.176 21.1982 111.52 21.2501 110.862 21.2987L110.899 21.7974C110.24 21.8461 109.578 21.8916 108.914 21.9339L108.882 21.4349C108.228 21.4766 107.571 21.5152 106.912 21.5506L106.939 22.0498C106.279 22.0852 105.617 22.1174 104.953 22.1465L104.931 21.6469C104.275 21.6756 103.617 21.7011 102.957 21.7235L102.974 22.2232C102.314 22.2455 101.653 22.2647 100.989 22.2807L100.977 21.7809C100.32 21.7967 99.6606 21.8094 98.9995 21.8189L99.0067 22.3189C98.3472 22.3284 97.6856 22.3347 97.0222 22.3379L97.0198 21.8379C96.6889 21.8395 96.3575 21.8403 96.0256 21.8403C95.6938 21.8403 95.3624 21.8395 95.0315 21.8379L95.0291 22.3379C94.3657 22.3347 93.7041 22.3284 93.0445 22.3189L93.0517 21.8189C92.3907 21.8094 91.7317 21.7967 91.0747 21.7809L91.0627 22.2807C90.3987 22.2647 89.7369 22.2455 89.0772 22.2232L89.0941 21.7235C88.4338 21.7011 87.7758 21.6756 87.1201 21.6469L87.0982 22.1465C86.434 22.1174 85.7721 22.0852 85.1127 22.0498L85.1395 21.5506C84.4802 21.5152 83.8233 21.4766 83.1689 21.4349L83.1372 21.9339C82.473 21.8916 81.8114 21.8461 81.1526 21.7974L81.1895 21.2987C80.5312 21.2501 79.8756 21.1982 79.2229 21.1433L79.181 21.6415C78.5172 21.5856 77.8564 21.5264 77.1986 21.4641L77.2457 20.9663C76.5887 20.904 75.9346 20.8385 75.2837 20.7699L75.2313 21.2672C74.5684 21.1973 73.9088 21.1241 73.2525 21.0477L73.3103 20.5511C72.6545 20.4748 72.0021 20.3952 71.3532 20.3125L71.29 20.8085C70.6285 20.7242 69.9706 20.6366 69.3164 20.5458L69.3852 20.0505C68.7309 19.9597 68.0803 19.8655 67.4336 19.7682L67.3592 20.2627C66.6997 20.1634 66.0443 20.0609 65.3929 19.955L65.4731 19.4615C64.8203 19.3554 64.1717 19.2461 63.5274 19.1335L63.4414 19.626C62.7847 19.5113 62.1325 19.3932 61.4848 19.2718L61.5769 18.7803C60.9259 18.6583 60.2795 18.5329 59.6379 18.4042L59.5396 18.8945C58.8867 18.7635 58.2388 18.6292 57.5958 18.4915L57.7005 18.0026C57.0514 17.8636 56.4075 17.7212 55.769 17.5754L55.6577 18.0629C55.0098 17.915 54.3673 17.7636 53.7304 17.6089L53.8484 17.1231C53.2016 16.9659 52.5606 16.8053 51.9256 16.6412L51.8005 17.1253C51.159 16.9596 50.5235 16.7904 49.8941 16.6177L50.0264 16.1355C49.3824 15.9588 48.745 15.7785 48.1142 15.5947L47.9743 16.0747C47.3354 15.8885 46.7033 15.6987 46.0782 15.5054L46.226 15.0277C45.5911 14.8313 44.9635 14.6312 44.3434 14.4276L44.1874 14.9027C43.5519 14.694 42.9242 14.4816 42.3045 14.2655L42.4691 13.7933C41.8447 13.5756 41.2285 13.3542 40.6208 13.1291L40.4472 13.598C39.8175 13.3648 39.1968 13.1277 38.5853 12.8867L38.7685 12.4215C38.1495 12.1777 37.54 11.9299 36.9403 11.6784L36.7469 12.1395C36.1334 11.8821 35.5299 11.6208 34.9368 11.3556L35.1409 10.8992C34.5299 10.626 33.9302 10.3488 33.3419 10.0676L33.1262 10.5188C32.521 10.2295 31.9276 9.93597 31.3464 9.63836L31.5743 9.19332C30.9836 8.89081 30.4057 8.58414 29.8411 8.27343L29.6 8.71149C29.0119 8.38789 28.4379 8.05984 27.8781 7.72749L28.1334 7.29757C27.5586 6.95623 26.9992 6.61047 26.4559 6.26047L26.1851 6.68082C25.6191 6.31622 25.0699 5.94689 24.538 5.57299L24.8255 5.16394C24.281 4.78121 23.7552 4.39391 23.2486 4.00226L22.9428 4.39785C22.4104 3.98633 21.8984 3.56975 21.4075 3.14835L21.7332 2.76896C21.2291 2.33626 20.748 1.89884 20.2904 1.45698L19.9431 1.81667C19.4572 1.34749 18.9968 0.872869 18.5627 0.393098L18.9335 0.0576374C18.488 -0.434794 18.0712 -0.932032 17.684 -1.43371L17.2882 -1.1282C16.8753 -1.66303 16.4946 -2.20363 16.147 -2.74964L16.5688 -3.01818C16.2151 -3.5737 15.8971 -4.13391 15.6156 -4.69836L15.1682 -4.47522C14.8677 -5.07778 14.607 -5.68621 14.3874 -6.30004L14.8581 -6.46851C14.6399 -7.07841 14.4637 -7.69285 14.3307 -8.31143L13.8418 -8.20627C13.7023 -8.85475 13.6083 -9.50852 13.5612 -10.1671L14.0599 -10.2028C14.0371 -10.5206 14.0256 -10.8396 14.0256 -11.1597C14.0256 -11.4797 14.0371 -11.7987 14.0599 -12.1165L13.5612 -12.1523C13.6083 -12.8108 13.7023 -13.4646 13.8418 -14.1131L14.3307 -14.0079C14.4637 -14.6265 14.6399 -15.2409 14.8581 -15.8508L14.3874 -16.0193C14.607 -16.6331 14.8677 -17.2415 15.1682 -17.8441L15.6156 -17.621C15.8971 -18.1854 16.2151 -18.7456 16.5688 -19.3011L16.147 -19.5697C16.4946 -20.1157 16.8753 -20.6563 17.2882 -21.1911L17.684 -20.8856C18.0712 -21.3873 18.4879 -21.8845 18.9335 -22.377L18.5627 -22.7124C18.9968 -23.1922 19.4572 -23.6668 19.9431 -24.136L20.2904 -23.7763C20.748 -24.2182 21.2291 -24.6556 21.7332 -25.0883L21.4075 -25.4677C21.8984 -25.8891 22.4104 -26.3057 22.9428 -26.7172L23.2485 -26.3216C23.7552 -26.7132 24.281 -27.1005 24.8255 -27.4833L24.538 -27.8923C25.0699 -28.2662 25.6191 -28.6356 26.1851 -29.0002L26.4559 -28.5798C26.9992 -28.9298 27.5585 -29.2756 28.1334 -29.6169L27.8781 -30.0468C28.4378 -30.3792 29.0119 -30.7072 29.6 -31.0308L29.8411 -30.5928C30.4057 -30.9035 30.9836 -31.2101 31.5743 -31.5127L31.3464 -31.9577C31.9276 -32.2553 32.521 -32.5488 33.1262 -32.8381L33.3418 -32.387C33.9301 -32.6682 34.5299 -32.9454 35.1408 -33.2185L34.9368 -33.675C35.5299 -33.9402 36.1334 -34.2015 36.7469 -34.4588L36.9403 -33.9977C37.54 -34.2493 38.1495 -34.497 38.7685 -34.7409L38.5853 -35.2061C39.1968 -35.447 39.8175 -35.6841 40.4472 -35.9173L40.6208 -35.4484C41.2285 -35.6735 41.8447 -35.8949 42.4691 -36.1127L42.3044 -36.5848C42.9242 -36.8009 43.5519 -37.0133 44.1874 -37.222L44.3434 -36.747C44.9635 -36.9506 45.5911 -37.1506 46.226 -37.347L46.0782 -37.8247C46.7033 -38.0181 47.3354 -38.2079 47.9743 -38.3941L48.1142 -37.914C48.745 -38.0979 49.3824 -38.2781 50.0264 -38.4548L49.8941 -38.937C50.5235 -39.1097 51.159 -39.2789 51.8005 -39.4447L51.9256 -38.9606C52.5606 -39.1246 53.2016 -39.2853 53.8484 -39.4424L53.7304 -39.9283C54.3673 -40.083 55.0098 -40.2343 55.6577 -40.3822L55.7689 -39.8948C56.4075 -40.0405 57.0514 -40.1829 57.7005 -40.3219L57.5958 -40.8108C58.2388 -40.9485 58.8867 -41.0829 59.5396 -41.2138L59.6379 -40.7236C60.2795 -40.8522 60.9259 -40.9776 61.5769 -41.0997L61.4848 -41.5911C62.1325 -41.7125 62.7847 -41.8306 63.4414 -41.9454L63.5274 -41.4528C64.1717 -41.5654 64.8203 -41.6748 65.473 -41.7808L65.3929 -42.2744C66.0443 -42.3802 66.6997 -42.4828 67.3592 -42.582L67.4336 -42.0876C68.0803 -42.1849 68.7309 -42.279 69.3852 -42.3699L69.3164 -42.8651C69.9706 -42.956 70.6285 -43.0436 71.29 -43.1279L71.3532 -42.6319C72.0021 -42.7146 72.6545 -42.7941 73.3102 -42.8704L73.2524 -43.3671C73.9088 -43.4434 74.5684 -43.5166 75.2313 -43.5865L75.2837 -43.0893C75.9346 -43.1579 76.5887 -43.2234 77.2457 -43.2856L77.1986 -43.7834C77.8564 -43.8458 78.5172 -43.9049 79.181 -43.9608L79.2229 -43.4626C79.8756 -43.5176 80.5312 -43.5694 81.1894 -43.6181L81.1526 -44.1167C81.8114 -44.1654 82.473 -44.211 83.1371 -44.2533L83.1689 -43.7543C83.8232 -43.796 84.4801 -43.8345 85.1395 -43.8699L85.1127 -44.3692C85.7721 -44.4046 86.434 -44.4368 87.0982 -44.4658L87.12 -43.9663C87.7758 -43.9949 88.4338 -44.0205 89.0941 -44.0428L89.0772 -44.5425C89.7368 -44.5649 90.3987 -44.5841 91.0627 -44.6001L91.0747 -44.1002C91.7317 -44.116 92.3907 -44.1287 93.0517 -44.1383L93.0445 -44.6382C93.7041 -44.6477 94.3656 -44.6541 95.0291 -44.6573L95.0315 -44.1573C95.3624 -44.1589 95.6938 -44.1597 96.0256 -44.1597C96.3575 -44.1597 96.6889 -44.1589 97.0198 -44.1573L97.0222 -44.6573C97.6856 -44.6541 98.3472 -44.6477 99.0067 -44.6382L98.9995 -44.1383C99.6605 -44.1287 100.32 -44.116 100.977 -44.1002L100.989 -44.6001C101.653 -44.5841 102.314 -44.5649 102.974 -44.5425L102.957 -44.0428C103.617 -44.0205 104.275 -43.9949 104.931 -43.9663L104.953 -44.4658C105.617 -44.4368 106.279 -44.4046 106.939 -44.3692L106.912 -43.8699C107.571 -43.8345 108.228 -43.796 108.882 -43.7543L108.914 -44.2533C109.578 -44.211 110.24 -44.1654 110.899 -44.1167L110.862 -43.6181C111.52 -43.5694 112.176 -43.5176 112.828 -43.4626L112.87 -43.9608C113.534 -43.9049 114.195 -43.8458 114.853 -43.7834L114.806 -43.2856C115.463 -43.2234 116.117 -43.1579 116.768 -43.0893L116.82 -43.5865C117.483 -43.5166 118.142 -43.4434 118.799 -43.3671L118.741 -42.8704C119.397 -42.7941 120.049 -42.7146 120.698 -42.6319L120.761 -43.1279C121.423 -43.0436 122.081 -42.956 122.735 -42.8651L122.666 -42.3699C123.32 -42.279 123.971 -42.1849 124.618 -42.0876L124.692 -42.582C125.352 -42.4828 126.007 -42.3802 126.658 -42.2744L126.578 -41.7808C127.231 -41.6748 127.88 -41.5654 128.524 -41.4528L128.61 -41.9454C129.267 -41.8306 129.919 -41.7125 130.566 -41.5911L130.474 -41.0997C131.125 -40.9776 131.772 -40.8522 132.413 -40.7236L132.512 -41.2138C133.165 -41.0829 133.812 -40.9485 134.455 -40.8108L134.351 -40.3219C135 -40.1829 135.644 -40.0405 136.282 -39.8948L136.394 -40.3822C137.041 -40.2343 137.684 -40.083 138.321 -39.9283L138.203 -39.4424C138.85 -39.2853 139.491 -39.1246 140.126 -38.9606L140.251 -39.4447C140.892 -39.2789 141.528 -39.1097 142.157 -38.937L142.025 -38.4549C142.669 -38.2782 143.306 -38.0979 143.937 -37.914L144.077 -38.3941C144.716 -38.2079 145.348 -38.0181 145.973 -37.8247L145.825 -37.347C146.46 -37.1506 147.088 -36.9506 147.708 -36.747L147.864 -37.222C148.499 -37.0133 149.127 -36.8009 149.747 -36.5848L149.582 -36.1127C150.207 -35.8949 150.823 -35.6735 151.43 -35.4484L151.604 -35.9173C152.234 -35.6841 152.854 -35.447 153.466 -35.2061L153.283 -34.7409C153.902 -34.497 154.511 -34.2493 155.111 -33.9977L155.304 -34.4588C155.918 -34.2015 156.521 -33.9402 157.114 -33.675L156.91 -33.2185C157.521 -32.9454 158.121 -32.6682 158.709 -32.387L158.925 -32.8381C159.53 -32.5488 160.124 -32.2553 160.705 -31.9577L160.477 -31.5127C161.068 -31.2102 161.646 -30.9035 162.21 -30.5928L162.451 -31.0308C163.039 -30.7072 163.613 -30.3792 164.173 -30.0468L163.918 -29.6169C164.493 -29.2756 165.052 -28.9298 165.595 -28.5798L165.866 -29.0002C166.432 -28.6356 166.981 -28.2662 167.513 -27.8923L167.226 -27.4833C167.77 -27.1006 168.296 -26.7133 168.803 -26.3216L169.108 -26.7172C169.641 -26.3057 170.153 -25.8891 170.644 -25.4677L170.318 -25.0883C170.822 -24.6556 171.303 -24.2182 171.761 -23.7763L172.108 -24.136C172.594 -23.6668 173.054 -23.1922 173.489 -22.7124L173.118 -22.377C173.563 -21.8845 173.98 -21.3873 174.367 -20.8856L174.763 -21.1911C175.176 -20.6563 175.557 -20.1157 175.904 -19.5697L175.482 -19.3012C175.836 -18.7456 176.154 -18.1854 176.436 -17.621L176.883 -17.8441C177.184 -17.2416 177.444 -16.6331 177.664 -16.0193L177.193 -15.8508C177.411 -15.2409 177.588 -14.6265 177.721 -14.0079L178.209 -14.1131Z" stroke="#FFD700" stroke-dasharray="2 2"/>
<path d="M224.209 -14.1131C224.349 -13.4646 224.443 -12.8108 224.49 -12.1523L223.991 -12.1165C224.014 -11.7987 224.026 -11.4797 224.026 -11.1597C224.026 -10.8396 224.014 -10.5206 223.991 -10.2028L224.49 -10.1671C224.443 -9.50852 224.349 -8.85476 224.209 -8.20628L223.721 -8.31143C223.588 -7.69286 223.411 -7.07842 223.193 -6.46852L223.664 -6.30004C223.444 -5.68622 223.184 -5.0778 222.883 -4.47523L222.436 -4.69837C222.154 -4.13392 221.836 -3.57371 221.483 -3.01819L221.904 -2.74965C221.557 -2.20364 221.176 -1.66304 220.763 -1.1282L220.367 -1.43372C219.98 -0.932044 219.563 -0.434802 219.118 0.0576298L219.489 0.39309C219.054 0.872861 218.594 1.34748 218.108 1.81666L217.761 1.45698C217.303 1.89884 216.822 2.33625 216.318 2.76895L216.644 3.14834C216.153 3.56974 215.641 3.98632 215.108 4.39785L214.803 4.00225C214.296 4.3939 213.77 4.78121 213.226 5.16393L213.513 5.57299C212.981 5.94688 212.432 6.31622 211.866 6.68081L211.595 6.26046C211.052 6.61046 210.493 6.95622 209.918 7.29756L210.173 7.72749C209.613 8.05984 209.039 8.38789 208.451 8.71149L208.21 8.27343C207.646 8.58413 207.068 8.89081 206.477 9.19331L206.705 9.63836C206.124 9.93597 205.53 10.2295 204.925 10.5188L204.709 10.0676C204.121 10.3488 203.521 10.626 202.91 10.8992L203.114 11.3556C202.521 11.6208 201.918 11.8821 201.304 12.1395L201.111 11.6784C200.511 11.9299 199.902 12.1777 199.283 12.4215L199.466 12.8867C198.854 13.1277 198.234 13.3648 197.604 13.598L197.43 13.1291C196.823 13.3541 196.207 13.5756 195.582 13.7933L195.747 14.2654C195.127 14.4816 194.499 14.694 193.864 14.9027L193.708 14.4276C193.088 14.6312 192.46 14.8313 191.825 15.0277L191.973 15.5054C191.348 15.6987 190.716 15.8885 190.077 16.0747L189.937 15.5947C189.306 15.7785 188.669 15.9588 188.025 16.1355L188.157 16.6177C187.528 16.7904 186.892 16.9596 186.251 17.1253L186.126 16.6412C185.491 16.8053 184.85 16.9659 184.203 17.1231L184.321 17.6089C183.684 17.7636 183.041 17.915 182.394 18.0629L182.282 17.5754C181.644 17.7212 181 17.8636 180.351 18.0026L180.455 18.4915C179.813 18.6292 179.165 18.7635 178.512 18.8945L178.413 18.4042C177.772 18.5329 177.125 18.6583 176.474 18.7803L176.566 19.2718C175.919 19.3932 175.267 19.5113 174.61 19.626L174.524 19.1335C173.88 19.2461 173.231 19.3554 172.578 19.4615L172.658 19.955C172.007 20.0609 171.352 20.1634 170.692 20.2627L170.618 19.7682C169.971 19.8655 169.32 19.9597 168.666 20.0505L168.735 20.5458C168.081 20.6366 167.423 20.7242 166.761 20.8085L166.698 20.3125C166.049 20.3952 165.397 20.4748 164.741 20.5511L164.799 21.0477C164.143 21.1241 163.483 21.1973 162.82 21.2672L162.768 20.7699C162.117 20.8385 161.463 20.904 160.806 20.9663L160.853 21.4641C160.195 21.5264 159.534 21.5856 158.87 21.6415L158.828 21.1432C158.176 21.1982 157.52 21.2501 156.862 21.2987L156.899 21.7974C156.24 21.8461 155.578 21.8916 154.914 21.9339L154.882 21.4349C154.228 21.4766 153.571 21.5152 152.912 21.5506L152.939 22.0498C152.279 22.0852 151.617 22.1174 150.953 22.1465L150.931 21.6469C150.275 21.6756 149.617 21.7011 148.957 21.7235L148.974 22.2232C148.314 22.2455 147.653 22.2647 146.989 22.2807L146.977 21.7809C146.32 21.7967 145.661 21.8094 145 21.8189L145.007 22.3189C144.347 22.3284 143.686 22.3347 143.022 22.3379L143.02 21.8379C142.689 21.8395 142.357 21.8403 142.026 21.8403C141.694 21.8403 141.362 21.8395 141.031 21.8379L141.029 22.3379C140.366 22.3347 139.704 22.3284 139.045 22.3189L139.052 21.8189C138.391 21.8094 137.732 21.7967 137.075 21.7809L137.063 22.2807C136.399 22.2647 135.737 22.2455 135.077 22.2232L135.094 21.7235C134.434 21.7011 133.776 21.6756 133.12 21.6469L133.098 22.1465C132.434 22.1174 131.772 22.0852 131.113 22.0498L131.14 21.5506C130.48 21.5152 129.823 21.4766 129.169 21.4349L129.137 21.9339C128.473 21.8916 127.811 21.8461 127.153 21.7974L127.189 21.2987C126.531 21.2501 125.876 21.1982 125.223 21.1433L125.181 21.6415C124.517 21.5856 123.856 21.5264 123.199 21.4641L123.246 20.9663C122.589 20.904 121.935 20.8385 121.284 20.7699L121.231 21.2672C120.568 21.1973 119.909 21.1241 119.252 21.0477L119.31 20.5511C118.655 20.4748 118.002 20.3952 117.353 20.3125L117.29 20.8085C116.629 20.7242 115.971 20.6366 115.316 20.5458L115.385 20.0505C114.731 19.9597 114.08 19.8655 113.434 19.7682L113.359 20.2627C112.7 20.1634 112.044 20.0609 111.393 19.955L111.473 19.4615C110.82 19.3554 110.172 19.2461 109.527 19.1335L109.441 19.626C108.785 19.5113 108.133 19.3932 107.485 19.2718L107.577 18.7803C106.926 18.6583 106.28 18.5329 105.638 18.4042L105.54 18.8945C104.887 18.7635 104.239 18.6292 103.596 18.4915L103.701 18.0026C103.051 17.8636 102.408 17.7212 101.769 17.5754L101.658 18.0629C101.01 17.915 100.367 17.7636 99.7304 17.6089L99.8484 17.1231C99.2016 16.9659 98.5606 16.8053 97.9256 16.6412L97.8005 17.1253C97.159 16.9596 96.5235 16.7904 95.8941 16.6177L96.0264 16.1355C95.3824 15.9588 94.745 15.7785 94.1142 15.5947L93.9743 16.0747C93.3354 15.8885 92.7033 15.6987 92.0782 15.5054L92.226 15.0277C91.5911 14.8313 90.9635 14.6312 90.3434 14.4276L90.1874 14.9027C89.5519 14.694 88.9242 14.4816 88.3045 14.2655L88.4691 13.7933C87.8447 13.5756 87.2285 13.3542 86.6208 13.1291L86.4472 13.598C85.8175 13.3648 85.1968 13.1277 84.5853 12.8867L84.7685 12.4215C84.1495 12.1777 83.54 11.9299 82.9403 11.6784L82.7469 12.1395C82.1334 11.8821 81.5299 11.6208 80.9368 11.3556L81.1409 10.8992C80.5299 10.626 79.9302 10.3488 79.3419 10.0676L79.1262 10.5188C78.521 10.2295 77.9276 9.93597 77.3464 9.63836L77.5743 9.19332C76.9836 8.89081 76.4057 8.58414 75.8411 8.27343L75.6 8.71149C75.0119 8.38789 74.4379 8.05984 73.8781 7.72749L74.1334 7.29757C73.5586 6.95623 72.9992 6.61047 72.4559 6.26047L72.1851 6.68082C71.6191 6.31622 71.0699 5.94689 70.538 5.57299L70.8255 5.16394C70.281 4.78121 69.7552 4.39391 69.2486 4.00226L68.9428 4.39785C68.4104 3.98633 67.8984 3.56975 67.4075 3.14835L67.7332 2.76896C67.2291 2.33626 66.748 1.89884 66.2904 1.45698L65.9431 1.81667C65.4572 1.34749 64.9968 0.872869 64.5627 0.393098L64.9335 0.0576374C64.488 -0.434794 64.0712 -0.932032 63.684 -1.43371L63.2882 -1.1282C62.8753 -1.66303 62.4946 -2.20363 62.147 -2.74964L62.5688 -3.01818C62.2151 -3.5737 61.8971 -4.13391 61.6156 -4.69836L61.1682 -4.47522C60.8677 -5.07778 60.607 -5.68621 60.3874 -6.30004L60.8581 -6.46851C60.6399 -7.07841 60.4637 -7.69285 60.3307 -8.31143L59.8418 -8.20627C59.7023 -8.85475 59.6083 -9.50852 59.5612 -10.1671L60.0599 -10.2028C60.0371 -10.5206 60.0256 -10.8396 60.0256 -11.1597C60.0256 -11.4797 60.0371 -11.7987 60.0599 -12.1165L59.5612 -12.1523C59.6083 -12.8108 59.7023 -13.4646 59.8418 -14.1131L60.3307 -14.0079C60.4637 -14.6265 60.6399 -15.2409 60.8581 -15.8508L60.3874 -16.0193C60.607 -16.6331 60.8677 -17.2415 61.1682 -17.8441L61.6156 -17.621C61.8971 -18.1854 62.2151 -18.7456 62.5688 -19.3011L62.147 -19.5697C62.4946 -20.1157 62.8753 -20.6563 63.2882 -21.1911L63.684 -20.8856C64.0712 -21.3873 64.4879 -21.8845 64.9335 -22.377L64.5627 -22.7124C64.9968 -23.1922 65.4572 -23.6668 65.9431 -24.136L66.2904 -23.7763C66.748 -24.2182 67.2291 -24.6556 67.7332 -25.0883L67.4075 -25.4677C67.8984 -25.8891 68.4104 -26.3057 68.9428 -26.7172L69.2485 -26.3216C69.7552 -26.7132 70.281 -27.1005 70.8255 -27.4833L70.538 -27.8923C71.0699 -28.2662 71.6191 -28.6356 72.1851 -29.0002L72.4559 -28.5798C72.9992 -28.9298 73.5585 -29.2756 74.1334 -29.6169L73.8781 -30.0468C74.4378 -30.3792 75.0119 -30.7072 75.6 -31.0308L75.8411 -30.5928C76.4057 -30.9035 76.9836 -31.2101 77.5743 -31.5127L77.3464 -31.9577C77.9276 -32.2553 78.521 -32.5488 79.1262 -32.8381L79.3418 -32.387C79.9301 -32.6682 80.5299 -32.9454 81.1408 -33.2185L80.9368 -33.675C81.5299 -33.9402 82.1334 -34.2015 82.7469 -34.4588L82.9403 -33.9977C83.54 -34.2493 84.1495 -34.497 84.7685 -34.7409L84.5853 -35.2061C85.1968 -35.447 85.8175 -35.6841 86.4472 -35.9173L86.6208 -35.4484C87.2285 -35.6735 87.8447 -35.8949 88.4691 -36.1127L88.3044 -36.5848C88.9242 -36.8009 89.5519 -37.0133 90.1874 -37.222L90.3434 -36.747C90.9635 -36.9506 91.5911 -37.1506 92.226 -37.347L92.0782 -37.8247C92.7033 -38.0181 93.3354 -38.2079 93.9743 -38.3941L94.1142 -37.914C94.745 -38.0979 95.3824 -38.2781 96.0264 -38.4548L95.8941 -38.937C96.5235 -39.1097 97.159 -39.2789 97.8005 -39.4447L97.9256 -38.9606C98.5606 -39.1246 99.2016 -39.2853 99.8484 -39.4424L99.7304 -39.9283C100.367 -40.083 101.01 -40.2343 101.658 -40.3822L101.769 -39.8948C102.408 -40.0405 103.051 -40.1829 103.7 -40.3219L103.596 -40.8108C104.239 -40.9485 104.887 -41.0829 105.54 -41.2138L105.638 -40.7236C106.28 -40.8522 106.926 -40.9776 107.577 -41.0997L107.485 -41.5911C108.132 -41.7125 108.785 -41.8306 109.441 -41.9454L109.527 -41.4528C110.172 -41.5654 110.82 -41.6748 111.473 -41.7808L111.393 -42.2744C112.044 -42.3802 112.7 -42.4828 113.359 -42.582L113.434 -42.0876C114.08 -42.1849 114.731 -42.279 115.385 -42.3699L115.316 -42.8651C115.971 -42.956 116.629 -43.0436 117.29 -43.1279L117.353 -42.6319C118.002 -42.7146 118.654 -42.7941 119.31 -42.8704L119.252 -43.3671C119.909 -43.4434 120.568 -43.5166 121.231 -43.5865L121.284 -43.0893C121.935 -43.1579 122.589 -43.2234 123.246 -43.2856L123.199 -43.7834C123.856 -43.8458 124.517 -43.9049 125.181 -43.9608L125.223 -43.4626C125.876 -43.5176 126.531 -43.5694 127.189 -43.6181L127.153 -44.1167C127.811 -44.1654 128.473 -44.211 129.137 -44.2533L129.169 -43.7543C129.823 -43.796 130.48 -43.8345 131.139 -43.8699L131.113 -44.3692C131.772 -44.4046 132.434 -44.4368 133.098 -44.4658L133.12 -43.9663C133.776 -43.9949 134.434 -44.0205 135.094 -44.0428L135.077 -44.5425C135.737 -44.5649 136.399 -44.5841 137.063 -44.6001L137.075 -44.1002C137.732 -44.116 138.391 -44.1287 139.052 -44.1383L139.045 -44.6382C139.704 -44.6477 140.366 -44.6541 141.029 -44.6573L141.031 -44.1573C141.362 -44.1589 141.694 -44.1597 142.026 -44.1597C142.357 -44.1597 142.689 -44.1589 143.02 -44.1573L143.022 -44.6573C143.686 -44.6541 144.347 -44.6477 145.007 -44.6382L145 -44.1383C145.661 -44.1287 146.32 -44.116 146.977 -44.1002L146.989 -44.6001C147.653 -44.5841 148.314 -44.5649 148.974 -44.5425L148.957 -44.0428C149.617 -44.0205 150.275 -43.9949 150.931 -43.9663L150.953 -44.4658C151.617 -44.4368 152.279 -44.4046 152.939 -44.3692L152.912 -43.8699C153.571 -43.8345 154.228 -43.796 154.882 -43.7543L154.914 -44.2533C155.578 -44.211 156.24 -44.1654 156.899 -44.1167L156.862 -43.6181C157.52 -43.5694 158.176 -43.5176 158.828 -43.4626L158.87 -43.9608C159.534 -43.9049 160.195 -43.8458 160.853 -43.7834L160.806 -43.2856C161.463 -43.2234 162.117 -43.1579 162.768 -43.0893L162.82 -43.5865C163.483 -43.5166 164.142 -43.4434 164.799 -43.3671L164.741 -42.8704C165.397 -42.7941 166.049 -42.7146 166.698 -42.6319L166.761 -43.1279C167.423 -43.0436 168.081 -42.956 168.735 -42.8651L168.666 -42.3699C169.32 -42.279 169.971 -42.1849 170.618 -42.0876L170.692 -42.582C171.352 -42.4828 172.007 -42.3802 172.658 -42.2744L172.578 -41.7808C173.231 -41.6748 173.88 -41.5654 174.524 -41.4528L174.61 -41.9454C175.267 -41.8306 175.919 -41.7125 176.566 -41.5911L176.474 -41.0997C177.125 -40.9776 177.772 -40.8522 178.413 -40.7236L178.512 -41.2138C179.165 -41.0829 179.812 -40.9485 180.455 -40.8108L180.351 -40.3219C181 -40.1829 181.644 -40.0405 182.282 -39.8948L182.394 -40.3822C183.041 -40.2343 183.684 -40.083 184.321 -39.9283L184.203 -39.4424C184.85 -39.2853 185.491 -39.1246 186.126 -38.9606L186.251 -39.4447C186.892 -39.2789 187.528 -39.1097 188.157 -38.937L188.025 -38.4549C188.669 -38.2782 189.306 -38.0979 189.937 -37.914L190.077 -38.3941C190.716 -38.2079 191.348 -38.0181 191.973 -37.8247L191.825 -37.347C192.46 -37.1506 193.088 -36.9506 193.708 -36.747L193.864 -37.222C194.499 -37.0133 195.127 -36.8009 195.747 -36.5848L195.582 -36.1127C196.207 -35.8949 196.823 -35.6735 197.43 -35.4484L197.604 -35.9173C198.234 -35.6841 198.854 -35.447 199.466 -35.2061L199.283 -34.7409C199.902 -34.497 200.511 -34.2493 201.111 -33.9977L201.304 -34.4588C201.918 -34.2015 202.521 -33.9402 203.114 -33.675L202.91 -33.2185C203.521 -32.9454 204.121 -32.6682 204.709 -32.387L204.925 -32.8381C205.53 -32.5488 206.124 -32.2553 206.705 -31.9577L206.477 -31.5127C207.068 -31.2102 207.646 -30.9035 208.21 -30.5928L208.451 -31.0308C209.039 -30.7072 209.613 -30.3792 210.173 -30.0468L209.918 -29.6169C210.493 -29.2756 211.052 -28.9298 211.595 -28.5798L211.866 -29.0002C212.432 -28.6356 212.981 -28.2662 213.513 -27.8923L213.226 -27.4833C213.77 -27.1006 214.296 -26.7133 214.803 -26.3216L215.108 -26.7172C215.641 -26.3057 216.153 -25.8891 216.644 -25.4677L216.318 -25.0883C216.822 -24.6556 217.303 -24.2182 217.761 -23.7763L218.108 -24.136C218.594 -23.6668 219.054 -23.1922 219.489 -22.7124L219.118 -22.377C219.563 -21.8845 219.98 -21.3873 220.367 -20.8856L220.763 -21.1911C221.176 -20.6563 221.557 -20.1157 221.904 -19.5697L221.482 -19.3012C221.836 -18.7456 222.154 -18.1854 222.436 -17.621L222.883 -17.8441C223.184 -17.2416 223.444 -16.6331 223.664 -16.0193L223.193 -15.8508C223.411 -15.2409 223.588 -14.6265 223.721 -14.0079L224.209 -14.1131Z" stroke="#FFD700" stroke-dasharray="2 2"/>
<path d="M368.692 -43.3694C369.055 -42.814 369.377 -42.2374 369.657 -41.6395L369.204 -41.4274C369.339 -41.1388 369.464 -40.8451 369.579 -40.5463C369.694 -40.2475 369.797 -39.9456 369.89 -39.6407L370.368 -39.7861C370.56 -39.1544 370.707 -38.5104 370.809 -37.855L370.315 -37.778C370.412 -37.1528 370.468 -36.516 370.483 -35.8684L370.983 -35.8798C370.998 -35.2281 370.972 -34.5666 370.908 -33.8964L370.41 -33.9444C370.35 -33.3166 370.254 -32.6796 370.122 -32.0342L370.612 -31.9347C370.484 -31.3003 370.322 -30.6592 370.128 -30.012L369.649 -30.1553C369.467 -29.5482 369.257 -28.9347 369.017 -28.3153L369.483 -28.135C369.25 -27.5315 368.99 -26.9234 368.705 -26.3113L368.252 -26.5226C367.983 -25.9461 367.691 -25.3653 367.375 -24.7807L367.815 -24.5432C367.508 -23.9739 367.179 -23.4015 366.83 -22.8265L366.402 -23.0863C366.07 -22.539 365.718 -21.989 365.346 -21.4366L365.761 -21.1578C365.399 -20.6181 365.018 -20.0765 364.621 -19.5332L364.217 -19.8286C363.835 -19.3072 363.437 -18.7839 363.023 -18.2592L363.415 -17.9494C363.012 -17.4385 362.593 -16.9265 362.16 -16.4137L361.778 -16.7362C361.362 -16.2438 360.933 -15.7504 360.49 -15.2563L360.862 -14.9225C360.426 -14.4364 359.977 -13.9497 359.516 -13.4627L359.153 -13.8066C358.705 -13.3333 358.244 -12.8595 357.772 -12.3856L358.126 -12.0326C357.667 -11.5725 357.197 -11.1122 356.717 -10.6521L356.371 -11.0133C355.901 -10.5636 355.421 -10.1138 354.93 -9.66432L355.268 -9.29569C354.784 -8.85162 354.289 -8.40782 353.785 -7.96447L353.455 -8.33997C352.968 -7.91206 352.472 -7.48452 351.967 -7.05748L352.29 -6.67572C351.789 -6.25187 351.279 -5.82859 350.761 -5.40603L350.445 -5.79362C349.939 -5.38131 349.425 -4.96964 348.902 -4.55876L349.211 -4.16577C348.697 -3.76124 348.175 -3.3575 347.645 -2.9547L347.343 -3.35271C346.82 -2.95508 346.289 -2.55832 345.751 -2.16256L346.047 -1.75982C345.522 -1.37308 344.989 -0.98734 344.45 -0.602706L344.159 -1.00984C343.625 -0.629095 343.084 -0.249422 342.537 0.129073L342.821 0.540369C342.282 0.913071 341.736 1.2846 341.185 1.65485L340.906 1.23964C340.362 1.60458 339.812 1.96828 339.256 2.33065L339.529 2.74957C338.978 3.10852 338.421 3.46615 337.859 3.82235L337.591 3.39991C337.038 3.74998 336.48 4.09869 335.916 4.44592L336.178 4.8717C335.617 5.21717 335.05 5.56118 334.478 5.90362L334.221 5.47464C333.66 5.81065 333.094 6.14517 332.522 6.4781L332.774 6.91011C332.204 7.24236 331.629 7.57301 331.049 7.90198L330.802 7.46705C330.233 7.78966 329.659 8.11066 329.081 8.42998L329.323 8.86768C328.745 9.18695 328.162 9.50449 327.575 9.82027L327.338 9.37988C326.762 9.68963 326.181 9.99767 325.596 10.3039L325.828 10.7469C325.243 11.0534 324.653 11.3581 324.059 11.6609L323.832 11.2154C323.249 11.5128 322.662 11.8083 322.071 12.1019L322.293 12.5497C321.702 12.8436 321.106 13.1357 320.506 13.4258L320.288 12.9757C319.699 13.2609 319.105 13.5442 318.508 13.8256L318.721 14.2779C318.124 14.5594 317.522 14.839 316.918 15.1166L316.709 14.6621C316.113 14.9355 315.514 15.2069 314.911 15.4762L315.115 15.9327C314.512 16.2021 313.905 16.4694 313.296 16.7345L313.096 16.276C312.494 16.5377 311.889 16.7974 311.281 17.0549L311.476 17.5153C310.868 17.7726 310.257 18.0277 309.643 18.2806L309.452 17.8182C308.845 18.0684 308.234 18.3165 307.62 18.5622L307.806 19.0264C307.194 19.2717 306.579 19.5147 305.96 19.7554L305.779 19.2895C305.47 19.4096 305.161 19.5291 304.852 19.648C304.542 19.7669 304.232 19.8849 303.923 20.002L304.1 20.4697C303.479 20.7044 302.859 20.9356 302.24 21.1631L302.068 20.6938C301.447 20.9217 300.827 21.1461 300.208 21.3667L300.376 21.8377C299.751 22.0607 299.126 22.28 298.502 22.4955L298.339 22.0229C297.714 22.2387 297.091 22.4507 296.468 22.6589L296.627 23.1331C295.996 23.344 295.367 23.5511 294.739 23.7544L294.585 23.2787C293.956 23.482 293.329 23.6814 292.704 23.877L292.853 24.3542C292.218 24.5527 291.584 24.7473 290.951 24.9379L290.807 24.4592C290.175 24.6497 289.544 24.8362 288.915 25.0188L289.055 25.4989C288.415 25.6846 287.777 25.8662 287.14 26.0437L287.006 25.5621C286.37 25.7395 285.736 25.9127 285.104 26.0819L285.233 26.5649C284.589 26.7372 283.947 26.9053 283.307 27.0692L283.183 26.5848C282.543 26.7486 281.906 26.9081 281.27 27.0635L281.389 27.5492C280.741 27.7075 280.096 27.8615 279.452 28.0111L279.339 27.5241C278.696 27.6738 278.055 27.8191 277.416 27.96L277.524 28.4482C276.873 28.5919 276.224 28.7311 275.578 28.8657L275.476 28.3762C274.828 28.5111 274.184 28.6415 273.542 28.7673L273.638 29.2579C272.984 29.3861 272.333 29.5096 271.684 29.6284L271.594 29.1365C270.943 29.2559 270.294 29.3705 269.649 29.4803L269.733 29.9732C269.077 30.0849 268.424 30.1917 267.774 30.2936L267.697 29.7996C267.041 29.9025 266.389 30.0003 265.74 30.0931L265.811 30.588C265.153 30.6821 264.499 30.7711 263.849 30.8549L263.785 30.359C263.125 30.4441 262.469 30.5238 261.817 30.5983L261.874 31.095C261.216 31.1702 260.562 31.24 259.913 31.3043L259.863 30.8067C259.199 30.8726 258.539 30.9327 257.884 30.9871L257.926 31.4854C257.262 31.5405 256.604 31.5898 255.951 31.6333L255.918 31.1344C255.255 31.1786 254.597 31.2168 253.946 31.2489L253.97 31.7483C253.302 31.7812 252.64 31.8078 251.984 31.8282L251.968 31.3284C251.308 31.3489 250.653 31.363 250.005 31.3706L250.011 31.8706C249.339 31.8785 248.675 31.8796 248.018 31.8739L248.022 31.3739C247.357 31.3681 246.699 31.3552 246.049 31.3353L246.034 31.8351C245.369 31.8147 244.712 31.787 244.063 31.752L244.09 31.2527C243.422 31.2166 242.762 31.1728 242.112 31.1211L242.073 31.6195C241.404 31.5664 240.745 31.505 240.096 31.4354L240.149 30.9383C239.489 30.8676 238.84 30.7883 238.201 30.7006L238.133 31.196C237.468 31.1046 236.814 31.0041 236.173 30.8944L236.257 30.4015C235.598 30.2889 234.952 30.1665 234.319 30.0345L234.217 30.524C233.558 30.3864 232.913 30.2384 232.282 30.08L232.404 29.5951C231.759 29.4329 231.129 29.2597 230.516 29.0757L230.372 29.5546C229.728 29.3612 229.1 29.1558 228.491 28.9383L228.659 28.4674C228.033 28.2441 227.427 28.0081 226.842 27.7596L226.647 28.2198C226.025 27.956 225.425 27.6778 224.848 27.3855L225.074 26.9394C224.481 26.6394 223.914 26.3245 223.373 25.9949L223.113 26.422C222.536 26.0706 221.986 25.7024 221.466 25.3172L221.764 24.9154C221.234 24.5235 220.737 24.1145 220.272 23.6884L219.934 24.057C219.438 23.6022 218.976 23.1276 218.551 22.6332L218.93 22.3072C218.508 21.8161 218.123 21.3056 217.777 20.7758L217.359 21.0491C216.996 20.4937 216.674 19.917 216.394 19.3191L216.847 19.1071C216.712 18.8185 216.587 18.5248 216.472 18.226C216.357 17.9272 216.254 17.6253 216.161 17.3204L215.683 17.4658C215.491 16.8341 215.344 16.19 215.242 15.5346L215.736 15.4576C215.638 14.8325 215.583 14.1957 215.568 13.5481L215.068 13.5595C215.053 12.9078 215.078 12.2463 215.143 11.5761L215.641 11.6241C215.701 10.9962 215.797 10.3593 215.928 9.71391L215.438 9.61435C215.567 8.98003 215.729 8.33889 215.923 7.69163L216.402 7.83502C216.584 7.22788 216.794 6.61433 217.034 5.99494L216.567 5.81463C216.801 5.21116 217.06 4.60309 217.346 3.99094L217.799 4.20227C218.068 3.62577 218.36 3.04499 218.676 2.46039L218.236 2.2229C218.543 1.65356 218.872 1.08119 219.221 0.506203L219.649 0.76594C219.981 0.218723 220.333 -0.331284 220.705 -0.883718L220.29 -1.16256C220.652 -1.70224 221.032 -2.24386 221.43 -2.78708L221.834 -2.49169C222.216 -3.01317 222.614 -3.5364 223.028 -4.06108L222.636 -4.37096C223.039 -4.88182 223.458 -5.39382 223.891 -5.90667L224.273 -5.58409C224.688 -6.07651 225.118 -6.5699 225.561 -7.06402L225.189 -7.39783C225.625 -7.88396 226.074 -8.37062 226.535 -8.8576L226.898 -8.51371C227.346 -8.98703 227.807 -9.46078 228.279 -9.93472L227.925 -10.2877C228.384 -10.7479 228.854 -11.2081 229.334 -11.6682L229.68 -11.307C230.15 -11.7568 230.63 -12.2065 231.121 -12.656L230.783 -13.0246C231.267 -13.4687 231.762 -13.9125 232.266 -14.3559L232.596 -13.9803C233.083 -14.4083 233.579 -14.8358 234.084 -15.2628L233.761 -15.6446C234.262 -16.0684 234.772 -16.4917 235.29 -16.9143L235.606 -16.5267C236.112 -16.939 236.626 -17.3507 237.149 -17.7616L236.84 -18.1546C237.354 -18.5591 237.876 -18.9628 238.406 -19.3656L238.708 -18.9676C239.231 -19.3652 239.762 -19.762 240.3 -20.1578L240.003 -20.5605C240.529 -20.9472 241.062 -21.333 241.601 -21.7176L241.892 -21.3105C242.426 -21.6912 242.966 -22.0709 243.514 -22.4494L243.23 -22.8607C243.769 -23.2334 244.314 -23.6049 244.866 -23.9752L245.145 -23.56C245.689 -23.9249 246.239 -24.2886 246.795 -24.651L246.522 -25.0699C247.073 -25.4288 247.63 -25.7865 248.192 -26.1427L248.46 -25.7202C249.013 -26.0703 249.571 -26.419 250.135 -26.7662L249.873 -27.192C250.434 -27.5375 251.001 -27.8815 251.573 -28.2239L251.83 -27.795C252.391 -28.131 252.957 -28.4655 253.529 -28.7984L253.277 -29.2304C253.847 -29.5627 254.422 -29.8933 255.002 -30.2223L255.249 -29.7874C255.818 -30.11 256.391 -30.431 256.97 -30.7503L256.728 -31.188C257.306 -31.5073 257.889 -31.8248 258.476 -32.1406L258.713 -31.7002C259.289 -32.01 259.87 -32.318 260.455 -32.6242L260.223 -33.0672C260.808 -33.3737 261.398 -33.6784 261.992 -33.9812L262.219 -33.5358C262.802 -33.8331 263.389 -34.1286 263.98 -34.4222L263.758 -34.87C264.349 -35.164 264.945 -35.456 265.545 -35.7461L265.762 -35.296C266.352 -35.5812 266.946 -35.8646 267.543 -36.1459L267.33 -36.5982C267.927 -36.8798 268.528 -37.1594 269.133 -37.4369L269.342 -36.9824C269.938 -37.2558 270.537 -37.5272 271.14 -37.7965L270.936 -38.2531C271.539 -38.5224 272.145 -38.7897 272.755 -39.0548L272.955 -38.5963C273.556 -38.858 274.162 -39.1177 274.77 -39.3752L274.575 -39.8356C275.183 -40.0929 275.794 -40.348 276.408 -40.6009L276.599 -40.1385C277.206 -40.3887 277.817 -40.6368 278.431 -40.8826L278.245 -41.3467C278.857 -41.592 279.472 -41.835 280.091 -42.0757L280.272 -41.6098C280.58 -41.7299 280.89 -41.8494 281.199 -41.9683C281.509 -42.0872 281.819 -42.2052 282.128 -42.3224L281.951 -42.79C282.572 -43.0248 283.192 -43.2559 283.811 -43.4834L283.983 -43.0141C284.604 -43.2421 285.224 -43.4664 285.843 -43.687L285.675 -44.158C286.3 -44.381 286.925 -44.6003 287.549 -44.8158L287.712 -44.3433C288.337 -44.559 288.96 -44.771 289.583 -44.9792L289.424 -45.4534C290.055 -45.6644 290.684 -45.8715 291.312 -46.0747L291.466 -45.599C292.094 -45.8023 292.722 -46.0017 293.347 -46.1973L293.198 -46.6745C293.833 -46.873 294.467 -47.0676 295.1 -47.2582L295.244 -46.7795C295.876 -46.97 296.507 -47.1565 297.136 -47.3391L296.996 -47.8193C297.636 -48.0049 298.274 -48.1865 298.911 -48.3641L299.045 -47.8824C299.681 -48.0598 300.315 -48.233 300.947 -48.4022L300.818 -48.8852C301.462 -49.0575 302.104 -49.2256 302.744 -49.3895L302.868 -48.9052C303.508 -49.0689 304.145 -49.2285 304.78 -49.3838L304.662 -49.8695C305.31 -50.0278 305.955 -50.1818 306.598 -50.3315L306.712 -49.8445C307.355 -49.9941 307.996 -50.1394 308.635 -50.2803L308.527 -50.7686C309.178 -50.9122 309.827 -51.0514 310.473 -51.186L310.575 -50.6965C311.222 -50.8315 311.867 -50.9618 312.509 -51.0876L312.413 -51.5783C313.067 -51.7064 313.718 -51.8299 314.366 -51.9487L314.457 -51.4569C315.108 -51.5762 315.756 -51.6908 316.402 -51.8006L316.318 -52.2935C316.974 -52.4053 317.627 -52.5121 318.277 -52.6139L318.354 -52.12C319.01 -52.2228 319.662 -52.3206 320.311 -52.4134L320.24 -52.9083C320.898 -53.0025 321.552 -53.0914 322.202 -53.1752L322.266 -52.6793C322.926 -52.7644 323.582 -52.8442 324.233 -52.9186L324.177 -53.4154C324.835 -53.4905 325.489 -53.5603 326.138 -53.6246L326.188 -53.127C326.852 -53.1929 327.512 -53.253 328.167 -53.3074L328.125 -53.8057C328.788 -53.8608 329.447 -53.9102 330.099 -53.9537L330.133 -53.4548C330.796 -53.4989 331.453 -53.5371 332.105 -53.5692L332.081 -54.0686C332.749 -54.1015 333.411 -54.1282 334.067 -54.1485L334.082 -53.6487C334.743 -53.6692 335.398 -53.6833 336.046 -53.691L336.04 -54.1909C336.711 -54.1989 337.376 -54.2 338.033 -54.1942L338.029 -53.6942C338.694 -53.6884 339.352 -53.6755 340.002 -53.6556L340.017 -54.1554C340.682 -54.135 341.339 -54.1073 341.988 -54.0723L341.961 -53.573C342.629 -53.537 343.289 -53.4931 343.939 -53.4414L343.978 -53.9399C344.647 -53.8867 345.306 -53.8253 345.955 -53.7558L345.902 -53.2586C346.562 -53.1879 347.211 -53.1087 347.85 -53.021L347.918 -53.5163C348.583 -53.4249 349.236 -53.3244 349.878 -53.2147L349.794 -52.7219C350.453 -52.6092 351.099 -52.4869 351.732 -52.3548L351.834 -52.8443C352.493 -52.7068 353.138 -52.5588 353.768 -52.4003L353.647 -51.9154C354.292 -51.7532 354.922 -51.5801 355.535 -51.396L355.679 -51.8749C356.323 -51.6815 356.951 -51.4761 357.56 -51.2586L357.392 -50.7877C358.018 -50.5644 358.623 -50.3284 359.209 -50.0799L359.404 -50.5402C360.026 -50.2763 360.626 -49.9982 361.203 -49.7058L360.977 -49.2598C361.57 -48.9597 362.137 -48.6448 362.678 -48.3153L362.938 -48.7423C363.515 -48.391 364.064 -48.0227 364.585 -47.6375L364.287 -47.2357C364.816 -46.8438 365.314 -46.4348 365.779 -46.0087L366.117 -46.3774C366.613 -45.9225 367.075 -45.4479 367.5 -44.9536L367.121 -44.6276C367.543 -44.1364 367.928 -43.6259 368.274 -43.0961L368.692 -43.3694Z" stroke="#FFD700" stroke-dasharray="2 2"/>
<path d="M455.209 -14.1136C455.349 -13.4651 455.443 -12.8113 455.49 -12.1528L454.991 -12.117C455.014 -11.7992 455.025 -11.4802 455.025 -11.1602C455.025 -10.8401 455.014 -10.5211 454.991 -10.2033L455.49 -10.1675C455.443 -9.50901 455.349 -8.85525 455.209 -8.20677L454.72 -8.31192C454.587 -7.69335 454.411 -7.07891 454.193 -6.469L454.664 -6.30053C454.444 -5.68671 454.183 -5.07828 453.883 -4.47572L453.435 -4.69885C453.154 -4.13441 452.836 -3.5742 452.482 -3.01868L452.904 -2.75014C452.556 -2.20413 452.176 -1.66352 451.763 -1.12869L451.367 -1.43421C450.98 -0.932532 450.563 -0.43529 450.118 0.0571415L450.488 0.392602C450.054 0.872373 449.594 1.34699 449.108 1.81617L448.761 1.45649C448.303 1.89835 447.822 2.33576 447.318 2.76846L447.644 3.14785C447.153 3.56925 446.641 3.98583 446.108 4.39736L445.802 4.00176C445.296 4.39341 444.77 4.78072 444.226 5.16345L444.513 5.5725C443.981 5.9464 443.432 6.31573 442.866 6.68032L442.595 6.25998C442.052 6.60997 441.492 6.95573 440.918 7.29707L441.173 7.727C440.613 8.05935 440.039 8.3874 439.451 8.711L439.21 8.27294C438.645 8.58365 438.067 8.89032 437.477 9.19283L437.705 9.63787C437.123 9.93548 436.53 10.229 435.925 10.5183L435.709 10.0672C435.121 10.3483 434.521 10.6255 433.91 10.8987L434.114 11.3552C433.521 11.6203 432.918 11.8817 432.304 12.139L432.111 11.6779C431.511 11.9294 430.902 12.1772 430.282 12.421L430.466 12.8862C429.854 13.1272 429.233 13.3643 428.604 13.5975L428.43 13.1286C427.822 13.3537 427.206 13.5751 426.582 13.7928L426.747 14.265C426.127 14.4811 425.499 14.6935 424.864 14.9022L424.708 14.4271C424.088 14.6308 423.46 14.8308 422.825 15.0272L422.973 15.5049C422.348 15.6982 421.716 15.888 421.077 16.0742L420.937 15.5942C420.306 15.778 419.669 15.9583 419.025 16.135L419.157 16.6172C418.528 16.7899 417.892 16.9591 417.251 17.1248L417.125 16.6407C416.49 16.8048 415.849 16.9654 415.203 17.1226L415.321 17.6084C414.684 17.7632 414.041 17.9145 413.393 18.0624L413.282 17.5749C412.643 17.7207 412 17.8631 411.351 18.0021L411.455 18.491C410.812 18.6287 410.164 18.763 409.511 18.894L409.413 18.4037C408.771 18.5324 408.125 18.6578 407.474 18.7798L407.566 19.2713C406.919 19.3927 406.266 19.5108 405.61 19.6256L405.524 19.133C404.879 19.2456 404.231 19.355 403.578 19.461L403.658 19.9545C403.007 20.0604 402.351 20.1629 401.692 20.2622L401.617 19.7677C400.971 19.8651 400.32 19.9592 399.666 20.05L399.735 20.5453C399.08 20.6361 398.423 20.7237 397.761 20.808L397.698 20.312C397.049 20.3947 396.397 20.4743 395.741 20.5506L395.799 21.0472C395.142 21.1236 394.483 21.1968 393.82 21.2667L393.767 20.7694C393.116 20.8381 392.462 20.9035 391.805 20.9658L391.852 21.4636C391.195 21.5259 390.534 21.5851 389.87 21.641L389.828 21.1428C389.175 21.1977 388.52 21.2496 387.862 21.2983L387.898 21.7969C387.24 21.8456 386.578 21.8911 385.914 21.9334L385.882 21.4345C385.228 21.4761 384.571 21.5147 383.912 21.5501L383.938 22.0494C383.279 22.0847 382.617 22.117 381.953 22.146L381.931 21.6465C381.275 21.6751 380.617 21.7006 379.957 21.723L379.974 22.2227C379.314 22.245 378.652 22.2642 377.988 22.2802L377.976 21.7804C377.319 21.7962 376.66 21.8089 375.999 21.8184L376.007 22.3184C375.347 22.3279 374.685 22.3343 374.022 22.3374L374.02 21.8375C373.689 21.839 373.357 21.8398 373.025 21.8398C372.694 21.8398 372.362 21.839 372.031 21.8375L372.029 22.3374C371.365 22.3343 370.704 22.3279 370.044 22.3184L370.051 21.8184C369.39 21.8089 368.731 21.7962 368.074 21.7804L368.062 22.2802C367.398 22.2642 366.737 22.245 366.077 22.2227L366.094 21.723C365.434 21.7006 364.776 21.6751 364.12 21.6465L364.098 22.146C363.434 22.117 362.772 22.0847 362.112 22.0494L362.139 21.5501C361.48 21.5147 360.823 21.4761 360.169 21.4345L360.137 21.9334C359.473 21.8911 358.811 21.8456 358.152 21.7969L358.189 21.2983C357.531 21.2496 356.875 21.1977 356.223 21.1428L356.181 21.641C355.517 21.5851 354.856 21.5259 354.198 21.4636L354.246 20.9658C353.588 20.9035 352.934 20.8381 352.284 20.7694L352.231 21.2667C351.568 21.1968 350.909 21.1236 350.252 21.0472L350.31 20.5506C349.654 20.4743 349.002 20.3948 348.353 20.312L348.29 20.808C347.628 20.7237 346.97 20.6361 346.316 20.5453L346.385 20.05C345.731 19.9592 345.08 19.8651 344.433 19.7677L344.359 20.2622C343.7 20.1629 343.044 20.0604 342.393 19.9545L342.473 19.461C341.82 19.355 341.172 19.2456 340.527 19.133L340.441 19.6256C339.784 19.5108 339.132 19.3927 338.485 19.2713L338.577 18.7798C337.926 18.6578 337.279 18.5324 336.638 18.4037L336.539 18.894C335.886 18.763 335.239 18.6287 334.596 18.491L334.7 18.0021C334.051 17.8631 333.407 17.7207 332.769 17.5749L332.657 18.0624C332.01 17.9145 331.367 17.7632 330.73 17.6084L330.848 17.1226C330.201 16.9654 329.56 16.8048 328.925 16.6407L328.8 17.1248C328.159 16.9591 327.523 16.7899 326.894 16.6172L327.026 16.135C326.382 15.9583 325.745 15.778 325.114 15.5942L324.974 16.0742C324.335 15.888 323.703 15.6982 323.078 15.5049L323.226 15.0272C322.591 14.8308 321.963 14.6308 321.343 14.4271L321.187 14.9022C320.552 14.6935 319.924 14.4811 319.304 14.265L319.469 13.7928C318.844 13.5751 318.228 13.3537 317.621 13.1286L317.447 13.5975C316.817 13.3643 316.197 13.1272 315.585 12.8863L315.768 12.4211C315.149 12.1772 314.54 11.9294 313.94 11.6779L313.747 12.139C313.133 11.8817 312.53 11.6203 311.937 11.3552L312.141 10.8987C311.53 10.6256 310.93 10.3483 310.342 10.0672L310.126 10.5183C309.521 10.229 308.927 9.93549 308.346 9.63787L308.574 9.19283C307.983 8.89032 307.405 8.58365 306.841 8.27295L306.6 8.711C306.012 8.3874 305.438 8.05935 304.878 7.727L305.133 7.29708C304.558 6.95574 303.999 6.60998 303.456 6.25998L303.185 6.68033C302.619 6.31574 302.07 5.9464 301.538 5.5725L301.825 5.16345C301.281 4.78072 300.755 4.39342 300.248 4.00177L299.943 4.39737C299.41 3.98584 298.898 3.56926 298.407 3.14786L298.733 2.76847C298.229 2.33577 297.748 1.89835 297.29 1.45649L296.943 1.81618C296.457 1.347 295.997 0.87238 295.562 0.39261L295.933 0.0571491C295.488 -0.435282 295.071 -0.932521 294.684 -1.4342L294.288 -1.12868C293.875 -1.66352 293.494 -2.20412 293.147 -2.75013L293.569 -3.01867C293.215 -3.57419 292.897 -4.13439 292.615 -4.69884L292.168 -4.47571C291.867 -5.07827 291.607 -5.6867 291.387 -6.30052L291.858 -6.469C291.64 -7.0789 291.463 -7.69334 291.33 -8.31191L290.842 -8.20676C290.702 -8.85524 290.608 -9.50901 290.561 -10.1675L291.06 -10.2033C291.037 -10.5211 291.025 -10.8401 291.025 -11.1602C291.025 -11.4802 291.037 -11.7992 291.06 -12.117L290.561 -12.1528C290.608 -12.8113 290.702 -13.4651 290.842 -14.1135L291.33 -14.0084C291.463 -14.627 291.64 -15.2414 291.858 -15.8513L291.387 -16.0198C291.607 -16.6336 291.867 -17.242 292.168 -17.8446L292.615 -17.6215C292.897 -18.1859 293.215 -18.7461 293.569 -19.3016L293.147 -19.5702C293.494 -20.1162 293.875 -20.6568 294.288 -21.1916L294.684 -20.8861C295.071 -21.3878 295.488 -21.885 295.933 -22.3775L295.562 -22.7129C295.997 -23.1927 296.457 -23.6673 296.943 -24.1365L297.29 -23.7768C297.748 -24.2187 298.229 -24.6561 298.733 -25.0888L298.407 -25.4682C298.898 -25.8896 299.41 -26.3061 299.943 -26.7177L300.248 -26.3221C300.755 -26.7137 301.281 -27.101 301.825 -27.4838L301.538 -27.8928C302.07 -28.2667 302.619 -28.636 303.185 -29.0006L303.456 -28.5803C303.999 -28.9303 304.558 -29.2761 305.133 -29.6174L304.878 -30.0473C305.438 -30.3797 306.012 -30.7077 306.6 -31.0313L306.841 -30.5933C307.405 -30.904 307.983 -31.2106 308.574 -31.5131L308.346 -31.9582C308.927 -32.2558 309.521 -32.5493 310.126 -32.8386L310.342 -32.3875C310.93 -32.6686 311.53 -32.9459 312.141 -33.219L311.937 -33.6755C312.53 -33.9407 313.133 -34.202 313.747 -34.4593L313.94 -33.9982C314.54 -34.2497 315.149 -34.4975 315.768 -34.7414L315.585 -35.2066C316.197 -35.4475 316.817 -35.6846 317.447 -35.9178L317.621 -35.4489C318.228 -35.674 318.844 -35.8954 319.469 -36.1132L319.304 -36.5853C319.924 -36.8014 320.552 -37.0138 321.187 -37.2225L321.343 -36.7475C321.963 -36.9511 322.591 -37.1511 323.226 -37.3475L323.078 -37.8252C323.703 -38.0185 324.335 -38.2084 324.974 -38.3946L325.114 -37.9145C325.745 -38.0983 326.382 -38.2786 327.026 -38.4553L326.894 -38.9375C327.523 -39.1102 328.159 -39.2794 328.8 -39.4452L328.925 -38.9611C329.56 -39.1251 330.201 -39.2857 330.848 -39.4429L330.73 -39.9287C331.367 -40.0835 332.01 -40.2348 332.657 -40.3827L332.769 -39.8952C333.407 -40.041 334.051 -40.1834 334.7 -40.3224L334.596 -40.8113C335.239 -40.949 335.886 -41.0833 336.539 -41.2143L336.638 -40.724C337.279 -40.8527 337.926 -40.9781 338.577 -41.1002L338.485 -41.5916C339.132 -41.713 339.784 -41.8311 340.441 -41.9459L340.527 -41.4533C341.171 -41.5659 341.82 -41.6753 342.473 -41.7813L342.393 -42.2749C343.044 -42.3807 343.699 -42.4833 344.359 -42.5825L344.433 -42.0881C345.08 -42.1854 345.731 -42.2795 346.385 -42.3703L346.316 -42.8656C346.97 -42.9564 347.628 -43.044 348.29 -43.1284L348.353 -42.6324C349.002 -42.7151 349.654 -42.7946 350.31 -42.8709L350.252 -43.3676C350.909 -43.4439 351.568 -43.5171 352.231 -43.587L352.283 -43.0897C352.934 -43.1584 353.588 -43.2238 354.245 -43.2861L354.198 -43.7839C354.856 -43.8462 355.517 -43.9054 356.181 -43.9613L356.223 -43.4631C356.875 -43.5181 357.531 -43.5699 358.189 -43.6186L358.152 -44.1172C358.811 -44.1659 359.473 -44.2114 360.137 -44.2538L360.169 -43.7548C360.823 -43.7964 361.48 -43.835 362.139 -43.8704L362.112 -44.3697C362.772 -44.4051 363.434 -44.4373 364.098 -44.4663L364.12 -43.9668C364.776 -43.9954 365.434 -44.0209 366.094 -44.0433L366.077 -44.543C366.737 -44.5654 367.398 -44.5845 368.062 -44.6005L368.074 -44.1007C368.731 -44.1165 369.39 -44.1292 370.051 -44.1387L370.044 -44.6387C370.704 -44.6482 371.365 -44.6546 372.029 -44.6578L372.031 -44.1578C372.362 -44.1594 372.694 -44.1602 373.025 -44.1602C373.357 -44.1602 373.689 -44.1594 374.02 -44.1578L374.022 -44.6578C374.685 -44.6546 375.347 -44.6482 376.006 -44.6387L375.999 -44.1387C376.66 -44.1292 377.319 -44.1165 377.976 -44.1007L377.988 -44.6005C378.652 -44.5845 379.314 -44.5654 379.974 -44.543L379.957 -44.0433C380.617 -44.0209 381.275 -43.9954 381.931 -43.9668L381.953 -44.4663C382.617 -44.4373 383.279 -44.4051 383.938 -44.3697L383.912 -43.8704C384.571 -43.835 385.228 -43.7964 385.882 -43.7548L385.914 -44.2538C386.578 -44.2114 387.24 -44.1659 387.898 -44.1172L387.862 -43.6186C388.52 -43.5699 389.175 -43.5181 389.828 -43.4631L389.87 -43.9613C390.534 -43.9054 391.195 -43.8462 391.852 -43.7839L391.805 -43.2861C392.462 -43.2238 393.116 -43.1584 393.767 -43.0897L393.82 -43.587C394.483 -43.5171 395.142 -43.4439 395.799 -43.3676L395.741 -42.8709C396.397 -42.7946 397.049 -42.7151 397.698 -42.6324L397.761 -43.1284C398.422 -43.044 399.08 -42.9564 399.735 -42.8656L399.666 -42.3703C400.32 -42.2795 400.971 -42.1854 401.617 -42.0881L401.692 -42.5825C402.351 -42.4833 403.007 -42.3807 403.658 -42.2749L403.578 -41.7813C404.231 -41.6753 404.879 -41.5659 405.524 -41.4533L405.61 -41.9459C406.266 -41.8311 406.919 -41.713 407.566 -41.5916L407.474 -41.1002C408.125 -40.9781 408.771 -40.8527 409.413 -40.724L409.511 -41.2143C410.164 -41.0833 410.812 -40.949 411.455 -40.8113L411.351 -40.3224C412 -40.1834 412.643 -40.041 413.282 -39.8952L413.393 -40.3827C414.041 -40.2348 414.684 -40.0835 415.321 -39.9287L415.203 -39.4429C415.849 -39.2857 416.49 -39.1251 417.125 -38.9611L417.251 -39.4452C417.892 -39.2794 418.528 -39.1102 419.157 -38.9375L419.025 -38.4553C419.669 -38.2786 420.306 -38.0983 420.937 -37.9145L421.077 -38.3946C421.716 -38.2084 422.348 -38.0185 422.973 -37.8252L422.825 -37.3475C423.46 -37.1511 424.088 -36.9511 424.708 -36.7475L424.864 -37.2225C425.499 -37.0138 426.127 -36.8014 426.747 -36.5853L426.582 -36.1132C427.206 -35.8954 427.822 -35.674 428.43 -35.4489L428.604 -35.9178C429.233 -35.6846 429.854 -35.4475 430.466 -35.2066L430.282 -34.7414C430.902 -34.4975 431.511 -34.2498 432.111 -33.9982L432.304 -34.4593C432.918 -34.202 433.521 -33.9407 434.114 -33.6755L433.91 -33.219C434.521 -32.9459 435.121 -32.6686 435.709 -32.3875L435.925 -32.8386C436.53 -32.5493 437.123 -32.2558 437.705 -31.9582L437.477 -31.5131C438.067 -31.2106 438.645 -30.904 439.21 -30.5933L439.451 -31.0313C440.039 -30.7077 440.613 -30.3797 441.173 -30.0473L440.918 -29.6174C441.492 -29.2761 442.052 -28.9303 442.595 -28.5803L442.866 -29.0006C443.432 -28.6361 443.981 -28.2667 444.513 -27.8928L444.226 -27.4838C444.77 -27.101 445.296 -26.7137 445.802 -26.3221L446.108 -26.7177C446.641 -26.3062 447.153 -25.8896 447.643 -25.4682L447.318 -25.0888C447.822 -24.6561 448.303 -24.2187 448.761 -23.7768L449.108 -24.1365C449.594 -23.6673 450.054 -23.1927 450.488 -22.7129L450.118 -22.3775C450.563 -21.885 450.98 -21.3878 451.367 -20.8861L451.763 -21.1916C452.176 -20.6568 452.556 -20.1162 452.904 -19.5702L452.482 -19.3016C452.836 -18.7461 453.154 -18.1859 453.435 -17.6215L453.883 -17.8446C454.183 -17.242 454.444 -16.6336 454.664 -16.0198L454.193 -15.8513C454.411 -15.2414 454.587 -14.627 454.72 -14.0084L455.209 -14.1136Z" stroke="#FFD700" stroke-dasharray="2 2"/>
<path d="M501.209 -14.1136C501.349 -13.4651 501.443 -12.8113 501.49 -12.1528L500.991 -12.117C501.014 -11.7992 501.025 -11.4802 501.025 -11.1602C501.025 -10.8401 501.014 -10.5211 500.991 -10.2033L501.49 -10.1675C501.443 -9.50901 501.349 -8.85525 501.209 -8.20677L500.72 -8.31192C500.587 -7.69335 500.411 -7.07891 500.193 -6.469L500.664 -6.30053C500.444 -5.68671 500.183 -5.07828 499.883 -4.47572L499.435 -4.69885C499.154 -4.13441 498.836 -3.5742 498.482 -3.01868L498.904 -2.75014C498.556 -2.20413 498.176 -1.66352 497.763 -1.12869L497.367 -1.43421C496.98 -0.932532 496.563 -0.43529 496.118 0.0571415L496.488 0.392602C496.054 0.872373 495.594 1.34699 495.108 1.81617L494.761 1.45649C494.303 1.89835 493.822 2.33576 493.318 2.76846L493.644 3.14785C493.153 3.56925 492.641 3.98583 492.108 4.39736L491.802 4.00176C491.296 4.39341 490.77 4.78072 490.226 5.16345L490.513 5.5725C489.981 5.9464 489.432 6.31573 488.866 6.68032L488.595 6.25998C488.052 6.60997 487.492 6.95573 486.918 7.29707L487.173 7.727C486.613 8.05935 486.039 8.3874 485.451 8.711L485.21 8.27294C484.645 8.58365 484.067 8.89032 483.477 9.19283L483.705 9.63787C483.123 9.93548 482.53 10.229 481.925 10.5183L481.709 10.0672C481.121 10.3483 480.521 10.6255 479.91 10.8987L480.114 11.3552C479.521 11.6203 478.918 11.8817 478.304 12.139L478.111 11.6779C477.511 11.9294 476.902 12.1772 476.282 12.421L476.466 12.8862C475.854 13.1272 475.233 13.3643 474.604 13.5975L474.43 13.1286C473.822 13.3537 473.206 13.5751 472.582 13.7928L472.747 14.265C472.127 14.4811 471.499 14.6935 470.864 14.9022L470.708 14.4271C470.088 14.6308 469.46 14.8308 468.825 15.0272L468.973 15.5049C468.348 15.6982 467.716 15.888 467.077 16.0742L466.937 15.5942C466.306 15.778 465.669 15.9583 465.025 16.135L465.157 16.6172C464.528 16.7899 463.892 16.9591 463.251 17.1248L463.125 16.6407C462.49 16.8048 461.849 16.9654 461.203 17.1226L461.321 17.6084C460.684 17.7632 460.041 17.9145 459.393 18.0624L459.282 17.5749C458.643 17.7207 458 17.8631 457.351 18.0021L457.455 18.491C456.812 18.6287 456.164 18.763 455.511 18.894L455.413 18.4037C454.771 18.5324 454.125 18.6578 453.474 18.7798L453.566 19.2713C452.919 19.3927 452.266 19.5108 451.61 19.6256L451.524 19.133C450.879 19.2456 450.231 19.355 449.578 19.461L449.658 19.9545C449.007 20.0604 448.351 20.1629 447.692 20.2622L447.617 19.7677C446.971 19.8651 446.32 19.9592 445.666 20.05L445.735 20.5453C445.08 20.6361 444.423 20.7237 443.761 20.808L443.698 20.312C443.049 20.3947 442.397 20.4743 441.741 20.5506L441.799 21.0472C441.142 21.1236 440.483 21.1968 439.82 21.2667L439.767 20.7694C439.116 20.8381 438.462 20.9035 437.805 20.9658L437.852 21.4636C437.195 21.5259 436.534 21.5851 435.87 21.641L435.828 21.1428C435.175 21.1977 434.52 21.2496 433.862 21.2983L433.898 21.7969C433.24 21.8456 432.578 21.8911 431.914 21.9334L431.882 21.4345C431.228 21.4761 430.571 21.5147 429.912 21.5501L429.938 22.0494C429.279 22.0847 428.617 22.117 427.953 22.146L427.931 21.6465C427.275 21.6751 426.617 21.7006 425.957 21.723L425.974 22.2227C425.314 22.245 424.652 22.2642 423.988 22.2802L423.976 21.7804C423.319 21.7962 422.66 21.8089 421.999 21.8184L422.007 22.3184C421.347 22.3279 420.685 22.3343 420.022 22.3374L420.02 21.8375C419.689 21.839 419.357 21.8398 419.025 21.8398C418.694 21.8398 418.362 21.839 418.031 21.8375L418.029 22.3374C417.365 22.3343 416.704 22.3279 416.044 22.3184L416.051 21.8184C415.39 21.8089 414.731 21.7962 414.074 21.7804L414.062 22.2802C413.398 22.2642 412.737 22.245 412.077 22.2227L412.094 21.723C411.434 21.7006 410.776 21.6751 410.12 21.6465L410.098 22.146C409.434 22.117 408.772 22.0847 408.112 22.0494L408.139 21.5501C407.48 21.5147 406.823 21.4761 406.169 21.4345L406.137 21.9334C405.473 21.8911 404.811 21.8456 404.152 21.7969L404.189 21.2983C403.531 21.2496 402.875 21.1977 402.223 21.1428L402.181 21.641C401.517 21.5851 400.856 21.5259 400.198 21.4636L400.246 20.9658C399.588 20.9035 398.934 20.8381 398.284 20.7694L398.231 21.2667C397.568 21.1968 396.909 21.1236 396.252 21.0472L396.31 20.5506C395.654 20.4743 395.002 20.3948 394.353 20.312L394.29 20.808C393.628 20.7237 392.97 20.6361 392.316 20.5453L392.385 20.05C391.731 19.9592 391.08 19.8651 390.433 19.7677L390.359 20.2622C389.7 20.1629 389.044 20.0604 388.393 19.9545L388.473 19.461C387.82 19.355 387.172 19.2456 386.527 19.133L386.441 19.6256C385.784 19.5108 385.132 19.3927 384.485 19.2713L384.577 18.7798C383.926 18.6578 383.279 18.5324 382.638 18.4037L382.539 18.894C381.886 18.763 381.239 18.6287 380.596 18.491L380.7 18.0021C380.051 17.8631 379.407 17.7207 378.769 17.5749L378.657 18.0624C378.01 17.9145 377.367 17.7632 376.73 17.6084L376.848 17.1226C376.201 16.9654 375.56 16.8048 374.925 16.6407L374.8 17.1248C374.159 16.9591 373.523 16.7899 372.894 16.6172L373.026 16.135C372.382 15.9583 371.745 15.778 371.114 15.5942L370.974 16.0742C370.335 15.888 369.703 15.6982 369.078 15.5049L369.226 15.0272C368.591 14.8308 367.963 14.6308 367.343 14.4271L367.187 14.9022C366.552 14.6935 365.924 14.4811 365.304 14.265L365.469 13.7928C364.844 13.5751 364.228 13.3537 363.621 13.1286L363.447 13.5975C362.817 13.3643 362.197 13.1272 361.585 12.8863L361.768 12.4211C361.149 12.1772 360.54 11.9294 359.94 11.6779L359.747 12.139C359.133 11.8817 358.53 11.6203 357.937 11.3552L358.141 10.8987C357.53 10.6256 356.93 10.3483 356.342 10.0672L356.126 10.5183C355.521 10.229 354.927 9.93549 354.346 9.63787L354.574 9.19283C353.983 8.89032 353.405 8.58365 352.841 8.27295L352.6 8.711C352.012 8.3874 351.438 8.05935 350.878 7.727L351.133 7.29708C350.558 6.95574 349.999 6.60998 349.456 6.25998L349.185 6.68033C348.619 6.31574 348.07 5.9464 347.538 5.5725L347.825 5.16345C347.281 4.78072 346.755 4.39342 346.248 4.00177L345.943 4.39737C345.41 3.98584 344.898 3.56926 344.407 3.14786L344.733 2.76847C344.229 2.33577 343.748 1.89835 343.29 1.45649L342.943 1.81618C342.457 1.347 341.997 0.87238 341.562 0.39261L341.933 0.0571491C341.488 -0.435282 341.071 -0.932521 340.684 -1.4342L340.288 -1.12868C339.875 -1.66352 339.494 -2.20412 339.147 -2.75013L339.569 -3.01867C339.215 -3.57419 338.897 -4.13439 338.615 -4.69884L338.168 -4.47571C337.867 -5.07827 337.607 -5.6867 337.387 -6.30052L337.858 -6.469C337.64 -7.0789 337.463 -7.69334 337.33 -8.31191L336.842 -8.20676C336.702 -8.85524 336.608 -9.50901 336.561 -10.1675L337.06 -10.2033C337.037 -10.5211 337.025 -10.8401 337.025 -11.1602C337.025 -11.4802 337.037 -11.7992 337.06 -12.117L336.561 -12.1528C336.608 -12.8113 336.702 -13.4651 336.842 -14.1135L337.33 -14.0084C337.463 -14.627 337.64 -15.2414 337.858 -15.8513L337.387 -16.0198C337.607 -16.6336 337.867 -17.242 338.168 -17.8446L338.615 -17.6215C338.897 -18.1859 339.215 -18.7461 339.569 -19.3016L339.147 -19.5702C339.494 -20.1162 339.875 -20.6568 340.288 -21.1916L340.684 -20.8861C341.071 -21.3878 341.488 -21.885 341.933 -22.3775L341.562 -22.7129C341.997 -23.1927 342.457 -23.6673 342.943 -24.1365L343.29 -23.7768C343.748 -24.2187 344.229 -24.6561 344.733 -25.0888L344.407 -25.4682C344.898 -25.8896 345.41 -26.3061 345.943 -26.7177L346.248 -26.3221C346.755 -26.7137 347.281 -27.101 347.825 -27.4838L347.538 -27.8928C348.07 -28.2667 348.619 -28.636 349.185 -29.0006L349.456 -28.5803C349.999 -28.9303 350.558 -29.2761 351.133 -29.6174L350.878 -30.0473C351.438 -30.3797 352.012 -30.7077 352.6 -31.0313L352.841 -30.5933C353.405 -30.904 353.983 -31.2106 354.574 -31.5131L354.346 -31.9582C354.927 -32.2558 355.521 -32.5493 356.126 -32.8386L356.342 -32.3875C356.93 -32.6686 357.53 -32.9459 358.141 -33.219L357.937 -33.6755C358.53 -33.9407 359.133 -34.202 359.747 -34.4593L359.94 -33.9982C360.54 -34.2497 361.149 -34.4975 361.768 -34.7414L361.585 -35.2066C362.197 -35.4475 362.817 -35.6846 363.447 -35.9178L363.621 -35.4489C364.228 -35.674 364.844 -35.8954 365.469 -36.1132L365.304 -36.5853C365.924 -36.8014 366.552 -37.0138 367.187 -37.2225L367.343 -36.7475C367.963 -36.9511 368.591 -37.1511 369.226 -37.3475L369.078 -37.8252C369.703 -38.0185 370.335 -38.2084 370.974 -38.3946L371.114 -37.9145C371.745 -38.0983 372.382 -38.2786 373.026 -38.4553L372.894 -38.9375C373.523 -39.1102 374.159 -39.2794 374.8 -39.4452L374.925 -38.9611C375.56 -39.1251 376.201 -39.2857 376.848 -39.4429L376.73 -39.9287C377.367 -40.0835 378.01 -40.2348 378.657 -40.3827L378.769 -39.8952C379.407 -40.041 380.051 -40.1834 380.7 -40.3224L380.596 -40.8113C381.239 -40.949 381.886 -41.0833 382.539 -41.2143L382.638 -40.724C383.279 -40.8527 383.926 -40.9781 384.577 -41.1002L384.485 -41.5916C385.132 -41.713 385.784 -41.8311 386.441 -41.9459L386.527 -41.4533C387.171 -41.5659 387.82 -41.6753 388.473 -41.7813L388.393 -42.2749C389.044 -42.3807 389.699 -42.4833 390.359 -42.5825L390.433 -42.0881C391.08 -42.1854 391.731 -42.2795 392.385 -42.3703L392.316 -42.8656C392.97 -42.9564 393.628 -43.044 394.29 -43.1284L394.353 -42.6324C395.002 -42.7151 395.654 -42.7946 396.31 -42.8709L396.252 -43.3676C396.909 -43.4439 397.568 -43.5171 398.231 -43.587L398.283 -43.0897C398.934 -43.1584 399.588 -43.2238 400.245 -43.2861L400.198 -43.7839C400.856 -43.8462 401.517 -43.9054 402.181 -43.9613L402.223 -43.4631C402.875 -43.5181 403.531 -43.5699 404.189 -43.6186L404.152 -44.1172C404.811 -44.1659 405.473 -44.2114 406.137 -44.2538L406.169 -43.7548C406.823 -43.7964 407.48 -43.835 408.139 -43.8704L408.112 -44.3697C408.772 -44.4051 409.434 -44.4373 410.098 -44.4663L410.12 -43.9668C410.776 -43.9954 411.434 -44.0209 412.094 -44.0433L412.077 -44.543C412.737 -44.5654 413.398 -44.5845 414.062 -44.6005L414.074 -44.1007C414.731 -44.1165 415.39 -44.1292 416.051 -44.1387L416.044 -44.6387C416.704 -44.6482 417.365 -44.6546 418.029 -44.6578L418.031 -44.1578C418.362 -44.1594 418.694 -44.1602 419.025 -44.1602C419.357 -44.1602 419.689 -44.1594 420.02 -44.1578L420.022 -44.6578C420.685 -44.6546 421.347 -44.6482 422.006 -44.6387L421.999 -44.1387C422.66 -44.1292 423.319 -44.1165 423.976 -44.1007L423.988 -44.6005C424.652 -44.5845 425.314 -44.5654 425.974 -44.543L425.957 -44.0433C426.617 -44.0209 427.275 -43.9954 427.931 -43.9668L427.953 -44.4663C428.617 -44.4373 429.279 -44.4051 429.938 -44.3697L429.912 -43.8704C430.571 -43.835 431.228 -43.7964 431.882 -43.7548L431.914 -44.2538C432.578 -44.2114 433.24 -44.1659 433.898 -44.1172L433.862 -43.6186C434.52 -43.5699 435.175 -43.5181 435.828 -43.4631L435.87 -43.9613C436.534 -43.9054 437.195 -43.8462 437.852 -43.7839L437.805 -43.2861C438.462 -43.2238 439.116 -43.1584 439.767 -43.0897L439.82 -43.587C440.483 -43.5171 441.142 -43.4439 441.799 -43.3676L441.741 -42.8709C442.397 -42.7946 443.049 -42.7151 443.698 -42.6324L443.761 -43.1284C444.422 -43.044 445.08 -42.9564 445.735 -42.8656L445.666 -42.3703C446.32 -42.2795 446.971 -42.1854 447.617 -42.0881L447.692 -42.5825C448.351 -42.4833 449.007 -42.3807 449.658 -42.2749L449.578 -41.7813C450.231 -41.6753 450.879 -41.5659 451.524 -41.4533L451.61 -41.9459C452.266 -41.8311 452.919 -41.713 453.566 -41.5916L453.474 -41.1002C454.125 -40.9781 454.771 -40.8527 455.413 -40.724L455.511 -41.2143C456.164 -41.0833 456.812 -40.949 457.455 -40.8113L457.351 -40.3224C458 -40.1834 458.643 -40.041 459.282 -39.8952L459.393 -40.3827C460.041 -40.2348 460.684 -40.0835 461.321 -39.9287L461.203 -39.4429C461.849 -39.2857 462.49 -39.1251 463.125 -38.9611L463.251 -39.4452C463.892 -39.2794 464.528 -39.1102 465.157 -38.9375L465.025 -38.4553C465.669 -38.2786 466.306 -38.0983 466.937 -37.9145L467.077 -38.3946C467.716 -38.2084 468.348 -38.0185 468.973 -37.8252L468.825 -37.3475C469.46 -37.1511 470.088 -36.9511 470.708 -36.7475L470.864 -37.2225C471.499 -37.0138 472.127 -36.8014 472.747 -36.5853L472.582 -36.1132C473.206 -35.8954 473.822 -35.674 474.43 -35.4489L474.604 -35.9178C475.233 -35.6846 475.854 -35.4475 476.466 -35.2066L476.282 -34.7414C476.902 -34.4975 477.511 -34.2498 478.111 -33.9982L478.304 -34.4593C478.918 -34.202 479.521 -33.9407 480.114 -33.6755L479.91 -33.219C480.521 -32.9459 481.121 -32.6686 481.709 -32.3875L481.925 -32.8386C482.53 -32.5493 483.123 -32.2558 483.705 -31.9582L483.477 -31.5131C484.067 -31.2106 484.645 -30.904 485.21 -30.5933L485.451 -31.0313C486.039 -30.7077 486.613 -30.3797 487.173 -30.0473L486.918 -29.6174C487.492 -29.2761 488.052 -28.9303 488.595 -28.5803L488.866 -29.0006C489.432 -28.6361 489.981 -28.2667 490.513 -27.8928L490.226 -27.4838C490.77 -27.101 491.296 -26.7137 491.802 -26.3221L492.108 -26.7177C492.641 -26.3062 493.153 -25.8896 493.643 -25.4682L493.318 -25.0888C493.822 -24.6561 494.303 -24.2187 494.761 -23.7768L495.108 -24.1365C495.594 -23.6673 496.054 -23.1927 496.488 -22.7129L496.118 -22.3775C496.563 -21.885 496.98 -21.3878 497.367 -20.8861L497.763 -21.1916C498.176 -20.6568 498.556 -20.1162 498.904 -19.5702L498.482 -19.3016C498.836 -18.7461 499.154 -18.1859 499.435 -17.6215L499.883 -17.8446C500.183 -17.242 500.444 -16.6336 500.664 -16.0198L500.193 -15.8513C500.411 -15.2414 500.587 -14.627 500.72 -14.0084L501.209 -14.1136Z" stroke="#FFD700" stroke-dasharray="2 2"/>
<path d="M48.286 19.7698C49.7017 18.7189 51.6386 18.7189 53.0543 19.7698L64.0516 27.9331C67.1462 30.2303 65.5215 35.1449 61.6674 35.1449H39.6729C35.8189 35.1449 34.1941 30.2303 37.2888 27.9331L48.286 19.7698Z" fill="#FFD700"/>
<rect x="35.4392" y="36.0975" width="30.4799" height="2.16476" rx="1.08238" fill="#FFD700"/>
<rect x="35.4392" y="38.9514" width="30.4799" height="2.16476" rx="1.08238" fill="#FFD700"/>
<path d="M53.0546 96.5002C51.6388 97.5512 49.702 97.5512 48.2863 96.5002L37.289 88.3369C34.1944 86.0398 35.8191 81.1251 39.6732 81.1251H61.6676C65.5217 81.1251 67.1465 86.0398 64.0518 88.3369L53.0546 96.5002Z" fill="#FFD700"/>
<rect x="65.9014" y="80.1725" width="30.4799" height="2.16476" rx="1.08238" transform="rotate(-180 65.9014 80.1725)" fill="#FFD700"/>
<rect x="65.9014" y="77.3129" width="30.4799" height="2.16476" rx="1.08238" transform="rotate(-180 65.9014 77.3129)" fill="#FFD700"/>
<rect x="35.438" y="41.8125" width="5.71498" height="32.3848" fill="#860000"/>
<rect x="42.0896" y="41.8126" width="17.145" height="32.3848" fill="#860000"/>
<rect x="60.1943" y="41.8126" width="5.71498" height="32.3848" fill="#860000"/>
<path d="M50.5 14.3325C49.0272 14.3325 47.8333 15.5264 47.8333 16.9991C47.8333 18.4719 49.0272 19.6658 50.5 19.6658C51.9728 19.6658 53.1667 18.4719 53.1667 16.9991C53.1667 15.5264 51.9728 14.3325 50.5 14.3325ZM50 -16.0009V16.9991H51V-16.0009H50Z" fill="#FFD700"/>
<path d="M371.286 19.7698C372.702 18.7189 374.639 18.7189 376.054 19.7698L387.052 27.9331C390.146 30.2303 388.521 35.1449 384.667 35.1449H362.673C358.819 35.1449 357.194 30.2303 360.289 27.9331L371.286 19.7698Z" fill="#FFD700"/>
<rect x="358.439" y="36.0975" width="30.4799" height="2.16476" rx="1.08238" fill="#FFD700"/>
<rect x="358.439" y="38.9514" width="30.4799" height="2.16476" rx="1.08238" fill="#FFD700"/>
<path d="M376.055 96.5002C374.639 97.5512 372.702 97.5512 371.286 96.5002L360.289 88.3369C357.194 86.0398 358.819 81.1251 362.673 81.1251H384.668C388.522 81.1251 390.146 86.0398 387.052 88.3369L376.055 96.5002Z" fill="#FFD700"/>
<rect x="388.901" y="80.1725" width="30.4799" height="2.16476" rx="1.08238" transform="rotate(-180 388.901 80.1725)" fill="#FFD700"/>
<rect x="388.901" y="77.3129" width="30.4799" height="2.16476" rx="1.08238" transform="rotate(-180 388.901 77.3129)" fill="#FFD700"/>
<rect x="358.438" y="41.8125" width="5.71498" height="32.3848" fill="#184A00"/>
<rect x="365.09" y="41.8126" width="17.145" height="32.3848" fill="#184A00"/>
<rect x="383.194" y="41.8126" width="5.71498" height="32.3848" fill="#184A00"/>
<path d="M373.5 14.3325C372.027 14.3325 370.833 15.5264 370.833 16.9991C370.833 18.4719 372.027 19.6658 373.5 19.6658C374.973 19.6658 376.167 18.4719 376.167 16.9991C376.167 15.5264 374.973 14.3325 373.5 14.3325ZM373 -16.0009V16.9991H374V-16.0009H373Z" fill="#FFD700"/>
<line x1="120.5" y1="-1" x2="120.5" y2="40" stroke="#FFD700"/>
<path d="M120.5 39L122.857 45.9098H130.486L124.314 50.1803L126.672 57.0902L120.5 52.8197L114.328 57.0902L116.686 50.1803L110.514 45.9098H118.143L120.5 39Z" fill="#184A00"/>
<line x1="297.5" y1="-1" x2="297.5" y2="40" stroke="#FFD700"/>
<path d="M297.5 39L299.857 45.9098H307.486L301.314 50.1803L303.672 57.0902L297.5 52.8197L291.328 57.0902L293.686 50.1803L287.514 45.9098H295.143L297.5 39Z" fill="#860000"/>
</g>
<defs>
<clipPath id="clip0_112_2">
<rect width="423.281" height="100" fill="white"/>
</clipPath>
</defs>
</svg>
