<svg width="424" height="100" viewBox="0 0 424 100" fill="none" xmlns="http://www.w3.org/2000/svg">
<g clip-path="url(#clip0_112_2)">
<path d="M94.6925 -43.3689C95.0551 -42.8135 95.3771 -42.2369 95.6572 -41.639L94.2988 -41.0027C94.4239 -40.7357 94.5396 -40.464 94.6457 -40.1875C94.7519 -39.911 94.8477 -39.6317 94.9334 -39.3495L96.3686 -39.7856C96.5606 -39.1539 96.7071 -38.5099 96.8093 -37.8545L95.3272 -37.6235C95.4177 -37.0431 95.4697 -36.4502 95.4835 -35.8451L96.9831 -35.8794C96.998 -35.2276 96.9727 -34.5662 96.9081 -33.8959L95.4151 -34.0398C95.3581 -33.4483 95.2673 -32.8458 95.1428 -32.2329L96.6127 -31.9342C96.4838 -31.2999 96.3222 -30.6587 96.1284 -30.0115L94.6914 -30.4416C94.5175 -29.8607 94.3152 -29.2718 94.0846 -28.6754L95.4837 -28.1345C95.2504 -27.531 94.9907 -26.9229 94.7052 -26.3108L93.3458 -26.9448C93.0856 -26.3868 92.802 -25.8234 92.4953 -25.2552L93.8153 -24.5427C93.508 -23.9734 93.1793 -23.401 92.8298 -22.826L91.548 -23.6052C91.2235 -23.0715 90.8796 -22.5342 90.5166 -21.9938L91.7616 -21.1573C91.399 -20.6176 91.0187 -20.076 90.6209 -19.5327L89.4107 -20.4189C89.0363 -19.9076 88.6454 -19.394 88.2383 -18.8785L89.4154 -17.9489C89.012 -17.438 88.5936 -16.926 88.1606 -16.4132L87.0145 -17.3809C86.6053 -16.8963 86.1822 -16.4104 85.7456 -15.9234L86.8623 -14.922C86.4264 -14.4359 85.9776 -13.9492 85.5162 -13.4622L84.4273 -14.4939C83.9848 -14.0269 83.5302 -13.5592 83.0635 -13.0911L84.1258 -12.0321C83.6671 -11.572 83.1974 -11.1118 82.7169 -10.6516L81.6795 -11.7351C81.2151 -11.2905 80.7402 -10.8458 80.255 -10.4011L81.2684 -9.29521C80.7838 -8.85113 80.2893 -8.40733 79.785 -7.96399L78.7946 -9.09048C78.3128 -8.66688 77.8217 -8.2435 77.3216 -7.82051L78.2903 -6.67523C77.7892 -6.25138 77.2793 -5.8281 76.7608 -5.40554L75.8132 -6.56831C75.3118 -6.15971 74.8021 -5.75164 74.2842 -5.34426L75.2115 -4.16528C74.6972 -3.76075 74.1751 -3.35701 73.6454 -2.95421L72.7375 -4.14825C72.2188 -3.75384 71.6925 -3.36024 71.1588 -2.96755L72.0477 -1.75933C71.522 -1.37259 70.9894 -0.986851 70.4499 -0.602218L69.5791 -1.82361C69.049 -1.44571 68.5121 -1.06881 67.9685 -0.693034L68.8215 0.540857C68.2823 0.913559 67.7367 1.28509 67.1849 1.65535L66.3492 0.409716C65.809 0.772121 65.2626 1.13335 64.7102 1.49329L65.5291 2.75006C64.9782 3.10901 64.4214 3.46664 63.8588 3.82284L63.0564 2.55552C62.5071 2.90332 61.9521 3.24979 61.3916 3.59484L62.178 4.87219C61.6168 5.21766 61.0502 5.56167 60.4783 5.90411L59.7078 4.61718C59.15 4.95113 58.5871 5.28362 58.0192 5.61456L58.7744 6.9106C58.2042 7.24284 57.629 7.5735 57.0489 7.90247L56.3089 6.59768C55.7434 6.91841 55.1731 7.23756 54.5981 7.55505L55.3231 8.86817C54.7449 9.18743 54.1621 9.50498 53.5748 9.82075L52.8645 8.49958C52.2915 8.80761 51.7142 9.11394 51.1326 9.4185L51.8284 10.7473C51.2431 11.0538 50.6534 11.3585 50.0596 11.6614L49.3782 10.3251C48.7983 10.6208 48.2143 10.9147 47.6263 11.2068L48.2936 12.5502C47.7018 12.8441 47.1061 13.1362 46.5064 13.4263L45.8532 12.0759C45.2667 12.3597 44.6763 12.6415 44.0823 12.9214L44.7216 14.2784C44.124 14.5599 43.5227 14.8395 42.9178 15.117L42.2923 13.7537C41.6995 14.0257 41.1031 14.2957 40.5032 14.5637L41.115 15.9332C40.5121 16.2026 39.9057 16.4699 39.296 16.735L38.6979 15.3594C38.0989 15.6199 37.4967 15.8782 36.8913 16.1344L37.476 17.5158C36.8682 17.7731 36.2571 18.0282 35.643 18.281L35.0719 16.894C34.4672 17.143 33.8595 17.3898 33.2488 17.6344L33.8065 19.0269C33.1941 19.2722 32.5788 19.5152 31.9605 19.7559L31.4163 18.3581C31.1094 18.4776 30.8018 18.5966 30.4935 18.7149C30.1852 18.8332 29.877 18.9507 29.569 19.0672L30.0998 20.4702C29.4793 20.7049 28.8594 20.9361 28.2402 21.1636L27.7229 19.7556C27.1054 19.9825 26.4886 20.2057 25.8727 20.4253L26.3764 21.8382C25.7508 22.0612 25.126 22.2805 24.5021 22.496L24.0123 21.0782C23.3909 21.2929 22.7705 21.5039 22.1512 21.7111L22.6271 23.1336C21.9966 23.3445 21.3671 23.5516 20.7388 23.7549L20.2771 22.3277C19.652 22.53 19.0281 22.7284 18.4055 22.923L18.853 24.3547C18.2177 24.5532 17.5838 24.7478 16.9513 24.9384L16.5184 23.5022C15.8897 23.6917 15.2624 23.8773 14.6366 24.0589L15.0547 25.4994C14.415 25.6851 13.7769 25.8667 13.1404 26.0442L12.7374 24.5994C12.105 24.7758 11.4744 24.9481 10.8455 25.1164L11.2333 26.5654C10.5894 26.7377 9.94731 26.9058 9.30723 27.0697L8.93515 25.6166C8.29912 25.7794 7.66511 25.9381 7.03322 26.0926L7.38941 27.5497C6.74163 27.708 6.09603 27.862 5.45271 28.0116L5.11289 26.5506C4.47316 26.6994 3.83577 26.8439 3.20087 26.984L3.52405 28.4487C2.87283 28.5924 2.22412 28.7316 1.57808 28.8662L1.27206 27.3977C0.628547 27.5318 -0.0122428 27.6614 -0.650171 27.7864L-0.361705 29.2584C-1.01585 29.3866 -1.66709 29.5101 -2.31528 29.6288L-2.5856 28.1534C-3.23301 28.272 -3.87725 28.3859 -4.51819 28.495L-4.2665 29.9737C-4.92291 30.0854 -5.576 30.1922 -6.22559 30.2941L-6.45799 28.8122C-7.10937 28.9144 -7.75711 29.0115 -8.40103 29.1036L-8.18859 30.5885C-8.84645 30.6826 -9.5005 30.7716 -10.1506 30.8554L-10.3423 29.3677C-10.9978 29.4522 -11.649 29.5313 -12.2957 29.6052L-12.1256 31.0955C-12.7839 31.1707 -13.4378 31.2405 -14.0872 31.3048L-14.2351 29.8121C-14.8945 29.8774 -15.549 29.9371 -16.1984 29.991L-16.0741 31.4859C-16.7373 31.541 -17.3954 31.5903 -18.0483 31.6338L-18.148 30.1371C-18.8055 30.1809 -19.4574 30.2188 -20.1034 30.2506L-20.0295 31.7488C-20.6976 31.7817 -21.3598 31.8083 -22.0158 31.8287L-22.0623 30.3294C-22.717 30.3497 -23.3652 30.3636 -24.0066 30.3712L-23.9889 31.8711C-24.6603 31.879 -25.3248 31.8801 -25.982 31.8744L-25.9689 30.3744C-26.6271 30.3687 -27.2776 30.3559 -27.9202 30.3363L-27.9661 31.8356C-28.6311 31.8152 -29.2881 31.7875 -29.9369 31.7525L-29.856 30.2547C-30.5161 30.219 -31.1669 30.1757 -31.8082 30.1247L-31.9271 31.62C-32.5958 31.5669 -33.255 31.5055 -33.9042 31.4359L-33.7444 29.9445C-34.3947 29.8748 -35.0342 29.7967 -35.6626 29.7104L-35.8668 31.1965C-36.5317 31.1051 -37.1853 31.0046 -37.8269 30.8949L-37.5742 29.4163C-38.2216 29.3057 -38.8558 29.1855 -39.4762 29.0561L-39.7826 30.5245C-40.4417 30.3869 -41.0867 30.2389 -41.7173 30.0805L-41.3518 28.6257C-41.9832 28.4671 -42.5983 28.2979 -43.1966 28.1184L-43.6277 29.5551C-44.2722 29.3617 -44.8994 29.1562 -45.5088 28.9388L-45.0046 27.526C-45.6127 27.309 -46.2004 27.0801 -46.7671 26.8395L-47.3532 28.2203C-47.9749 27.9564 -48.5748 27.6783 -49.152 27.386L-48.4742 26.0478C-49.0447 25.7589 -49.5891 25.4566 -50.107 25.1413L-50.8871 26.4225C-51.4642 26.0711 -52.0133 25.7029 -52.5335 25.3177L-51.641 24.1121C-52.1437 23.74 -52.6143 23.3529 -53.0524 22.9515L-54.0657 24.0575C-54.5622 23.6027 -55.0236 23.1281 -55.4487 22.6337L-54.3113 21.6558C-54.7059 21.1968 -55.064 20.7214 -55.3851 20.2296L-56.6411 21.0496C-57.0037 20.4942 -57.3257 19.9175 -57.6058 19.3196L-56.2474 18.6834C-56.3725 18.4164 -56.4882 18.1446 -56.5943 17.8681C-56.7004 17.5916 -56.7963 17.3123 -56.882 17.0302L-58.3172 17.4663C-58.5092 16.8346 -58.6557 16.1905 -58.7579 15.5351L-57.2758 15.3041C-57.3662 14.7238 -57.4183 14.1309 -57.4321 13.5257L-58.9317 13.56C-58.9466 12.9082 -58.9213 12.2468 -58.8567 11.5766L-57.3636 11.7205C-57.3066 11.129 -57.2159 10.5265 -57.0913 9.91351L-58.5613 9.61484C-58.4324 8.98051 -58.2707 8.33938 -58.077 7.69212L-56.64 8.12228C-56.4661 7.54135 -56.2638 6.95244 -56.0332 6.35605L-57.4323 5.81511C-57.199 5.21165 -56.9393 4.60358 -56.6538 3.99143L-55.2944 4.62542C-55.0341 4.06744 -54.7506 3.5041 -54.4438 2.93585L-55.7638 2.22339C-55.4566 1.65405 -55.1279 1.08168 -54.7783 0.506691L-53.4966 1.2859C-53.1721 0.752133 -52.8282 0.21486 -52.4651 -0.325548L-53.7102 -1.16207C-53.3476 -1.70175 -52.9673 -2.24337 -52.5695 -2.78659L-51.3593 -1.9004C-50.9848 -2.41175 -50.5939 -2.92532 -50.1868 -3.44082L-51.364 -4.37047C-50.9606 -4.88134 -50.5422 -5.39333 -50.1091 -5.90618L-48.9631 -4.93844C-48.5539 -5.42305 -48.1308 -5.90896 -47.6942 -6.39591L-48.8109 -7.39734C-48.375 -7.88347 -47.9262 -8.37013 -47.4648 -8.85711L-46.3759 -7.82543C-45.9334 -8.29245 -45.4788 -8.76012 -45.0121 -9.22823L-46.0744 -10.2872C-45.6157 -10.7474 -45.146 -11.2076 -44.6654 -11.6677L-43.6281 -10.5842C-43.1637 -11.0288 -42.6888 -11.4736 -42.2035 -11.9183L-43.217 -13.0241C-42.7324 -13.4682 -42.2379 -13.912 -41.7336 -14.3554L-40.7432 -13.2289C-40.2614 -13.6525 -39.7703 -14.0758 -39.2702 -14.4988L-40.2389 -15.6441C-39.7378 -16.068 -39.2279 -16.4912 -38.7094 -16.9138L-37.7618 -15.751C-37.2604 -16.1596 -36.7506 -16.5677 -36.2327 -16.9751L-37.1601 -18.1541C-36.6458 -18.5586 -36.1237 -18.9623 -35.594 -19.3651L-34.6861 -18.1711C-34.1674 -18.5655 -33.6411 -18.9591 -33.1074 -19.3518L-33.9963 -20.56C-33.4706 -20.9468 -32.938 -21.3325 -32.3985 -21.7171L-31.5277 -20.4957C-30.9976 -20.8736 -30.4607 -21.2505 -29.9171 -21.6263L-30.77 -22.8602C-30.2309 -23.2329 -29.6853 -23.6044 -29.1334 -23.9747L-28.2977 -22.7291C-27.7576 -23.0915 -27.2112 -23.4527 -26.6588 -23.8126L-27.4777 -25.0694C-26.9267 -25.4284 -26.37 -25.786 -25.8074 -26.1422L-25.005 -24.8749C-24.4556 -25.2227 -23.9007 -25.5691 -23.3402 -25.9142L-24.1266 -27.1915C-23.5654 -27.537 -22.9988 -27.881 -22.4269 -28.2235L-21.6563 -26.9365C-21.0986 -27.2705 -20.5357 -27.603 -19.9678 -27.9339L-20.723 -29.2299C-20.1528 -29.5622 -19.5776 -29.8928 -18.9975 -30.2218L-18.2575 -28.917C-17.692 -29.2378 -17.1216 -29.5569 -16.5467 -29.8744L-17.2717 -31.1875C-16.6935 -31.5068 -16.1107 -31.8243 -15.5234 -32.1401L-14.8131 -30.8189C-14.2401 -31.127 -13.6628 -31.4333 -13.0812 -31.7378L-13.777 -33.0667C-13.1916 -33.3732 -12.602 -33.6779 -12.0082 -33.9807L-11.3268 -32.6444C-10.7469 -32.9401 -10.1629 -33.2341 -9.57489 -33.5261L-10.2422 -34.8695C-9.65041 -35.1635 -9.05466 -35.4555 -8.45503 -35.7456L-7.80182 -34.3953C-7.21527 -34.679 -6.62493 -34.9609 -6.03089 -35.2408L-6.67022 -36.5977C-6.07261 -36.8793 -5.47132 -37.1589 -4.86642 -37.4364L-4.24093 -36.073C-3.64804 -36.345 -3.05164 -36.6151 -2.4518 -36.883L-3.06362 -38.2526C-2.46068 -38.5219 -1.85432 -38.7892 -1.24461 -39.0543L-0.646436 -37.6788C-0.0475232 -37.9392 0.55467 -38.1976 1.16007 -38.4538L0.575433 -39.8352C1.18327 -40.0924 1.79428 -40.3475 2.40842 -40.6004L2.97955 -39.2134C3.58422 -39.4624 4.19194 -39.7092 4.80265 -39.9538L4.24496 -41.3462C4.85733 -41.5915 5.47265 -41.8345 6.09088 -42.0752L6.63516 -40.6775C6.94203 -40.797 7.24962 -40.9159 7.55793 -41.0342C7.86624 -41.1526 8.1744 -41.27 8.4824 -41.3866L7.95159 -42.7895C8.5721 -43.0243 9.192 -43.2554 9.81117 -43.4829L10.3285 -42.0749C10.946 -42.3018 11.5628 -42.525 12.1787 -42.7446L11.6751 -44.1575C12.3007 -44.3805 12.9254 -44.5998 13.5493 -44.8154L14.0391 -43.3976C14.6605 -43.6123 15.2809 -43.8232 15.9002 -44.0304L15.4243 -45.4529C16.0548 -45.6639 16.6843 -45.871 17.3126 -46.0743L17.7743 -44.6471C18.3994 -44.8493 19.0233 -45.0477 19.6459 -45.2423L19.1984 -46.674C19.8337 -46.8725 20.4676 -47.0671 21.1001 -47.2577L21.533 -45.8216C22.1617 -46.011 22.789 -46.1966 23.4148 -46.3782L22.9967 -47.8188C23.6364 -48.0044 24.2745 -48.186 24.911 -48.3636L25.314 -46.9187C25.9464 -47.0951 26.577 -47.2674 27.2059 -47.4357L26.8181 -48.8847C27.462 -49.057 28.1041 -49.2251 28.7442 -49.389L29.1163 -47.9359C29.7523 -48.0988 30.3863 -48.2574 31.0182 -48.4119L30.662 -49.869C31.3098 -50.0274 31.9554 -50.1813 32.5987 -50.331L32.9385 -48.87C33.5783 -49.0188 34.2156 -49.1632 34.8505 -49.3033L34.5274 -50.7681C35.1786 -50.9118 35.8273 -51.0509 36.4733 -51.1855L36.7794 -49.7171C37.4229 -49.8512 38.0637 -49.9807 38.7016 -50.1058L38.4131 -51.5778C39.0673 -51.706 39.7185 -51.8294 40.3667 -51.9482L40.637 -50.4727C41.2844 -50.5914 41.9287 -50.7052 42.5696 -50.8143L42.3179 -52.293C42.9743 -52.4048 43.6274 -52.5116 44.277 -52.6134L44.5094 -51.1316C45.1608 -51.2337 45.8085 -51.3308 46.4524 -51.423L46.24 -52.9079C46.8979 -53.002 47.5519 -53.0909 48.202 -53.1747L48.3937 -51.687C49.0492 -51.7715 49.7004 -51.8507 50.3472 -51.9246L50.177 -53.4149C50.8353 -53.49 51.4892 -53.5598 52.1387 -53.6241L52.2865 -52.1314C52.9459 -52.1967 53.6004 -52.2564 54.2498 -52.3104L54.1255 -53.8052C54.7887 -53.8604 55.4469 -53.9097 56.0997 -53.9532L56.1995 -52.4565C56.8569 -52.5003 57.5088 -52.5381 58.1548 -52.5699L58.081 -54.0681C58.749 -54.101 59.4112 -54.1277 60.0672 -54.148L60.1137 -52.6487C60.7684 -52.669 61.4166 -52.683 62.0581 -52.6905L62.0403 -54.1904C62.7117 -54.1984 63.3762 -54.1995 64.0334 -54.1937L64.0203 -52.6938C64.6785 -52.688 65.329 -52.6753 65.9716 -52.6556L66.0175 -54.1549C66.6825 -54.1345 67.3395 -54.1068 67.9883 -54.0718L67.9075 -52.574C68.5675 -52.5384 69.2183 -52.4951 69.8596 -52.4441L69.9785 -53.9394C70.6472 -53.8862 71.3064 -53.8248 71.9556 -53.7553L71.7958 -52.2638C72.4462 -52.1941 73.0857 -52.1161 73.714 -52.0298L73.9182 -53.5158C74.5832 -53.4245 75.2367 -53.3239 75.8783 -53.2142L75.6256 -51.7357C76.273 -51.625 76.9072 -51.5049 77.5276 -51.3754L77.834 -52.8438C78.4931 -52.7063 79.1382 -52.5583 79.7687 -52.3998L79.4032 -50.9451C80.0346 -50.7864 80.6497 -50.6173 81.248 -50.4377L81.6791 -51.8744C82.3236 -51.681 82.9509 -51.4756 83.5602 -51.2581L83.056 -49.8454C83.6641 -49.6283 84.2518 -49.3994 84.8186 -49.1589L85.4046 -50.5397C86.0264 -50.2758 86.6262 -49.9977 87.2034 -49.7053L86.5256 -48.3672C87.0961 -48.0783 87.6405 -47.776 88.1584 -47.4606L88.9385 -48.7418C89.5156 -48.3905 90.0647 -48.0222 90.5849 -47.637L89.6924 -46.4315C90.1951 -46.0593 90.6657 -45.6723 91.1039 -45.2709L92.1172 -46.3769C92.6136 -45.922 93.075 -45.4474 93.5001 -44.9531L92.3627 -43.9751C92.7574 -43.5162 93.1154 -43.0407 93.4365 -42.5489L94.6925 -43.3689Z" stroke="#FFD700" stroke-width="3" stroke-dasharray="2 2"/>
<path d="M181.209 -14.1131C181.349 -13.4646 181.443 -12.8108 181.49 -12.1523L179.994 -12.0451C180.015 -11.751 180.026 -11.4558 180.026 -11.1597C180.026 -10.8635 180.015 -10.5684 179.994 -10.2743L181.49 -10.1671C181.443 -9.50852 181.349 -8.85475 181.209 -8.20628L179.743 -8.52173C179.619 -7.94753 179.456 -7.37536 179.252 -6.80546L180.664 -6.30004C180.444 -5.68622 180.184 -5.0778 179.883 -4.47523L178.541 -5.14463C178.276 -4.61285 177.975 -4.08291 177.639 -3.55527L178.904 -2.74965C178.557 -2.20364 178.176 -1.66304 177.763 -1.1282L176.576 -2.04476C176.205 -1.56474 175.805 -1.08744 175.376 -0.613292L176.489 0.39309C176.054 0.872861 175.594 1.34748 175.108 1.81666L174.066 0.7376C173.623 1.16527 173.157 1.58957 172.667 2.01016L173.644 3.14834C173.153 3.56974 172.641 3.98632 172.108 4.39785L171.191 3.21106C170.697 3.59309 170.183 3.97143 169.651 4.34583L170.513 5.57298C169.981 5.94688 169.432 6.31622 168.866 6.68081L168.054 5.41977C167.521 5.76297 166.972 6.10235 166.407 6.43772L167.173 7.72749C166.613 8.05984 166.039 8.38789 165.451 8.71148L164.728 7.39731C164.172 7.70308 163.603 8.00511 163.021 8.30323L163.705 9.63836C163.124 9.93597 162.53 10.2295 161.925 10.5188L161.278 9.16539C160.698 9.44282 160.106 9.71649 159.502 9.98628L160.114 11.3556C159.521 11.6208 158.918 11.8821 158.304 12.1395L157.724 10.7562C157.131 11.0049 156.529 11.2499 155.916 11.4911L156.466 12.8867C155.854 13.1277 155.234 13.3648 154.604 13.598L154.083 12.1913C153.482 12.4141 152.871 12.6334 152.253 12.8491L152.747 14.2654C152.127 14.4816 151.499 14.694 150.864 14.9027L150.396 13.4775C149.781 13.6793 149.159 13.8776 148.53 14.0723L148.973 15.5054C148.348 15.6987 147.716 15.8885 147.077 16.0747L146.657 14.6346C146.032 14.817 145.399 14.9958 144.76 15.1712L145.157 16.6177C144.528 16.7904 143.892 16.9596 143.251 17.1253L142.876 15.673C142.245 15.8359 141.609 15.9953 140.967 16.1513L141.321 17.6089C140.684 17.7636 140.041 17.915 139.394 18.0629L139.06 16.6005C138.426 16.7452 137.786 16.8867 137.141 17.0247L137.455 18.4915C136.813 18.6292 136.165 18.7635 135.512 18.8945L135.217 17.4237C134.579 17.5516 133.937 17.6762 133.29 17.7974L133.566 19.2718C132.919 19.3932 132.267 19.5113 131.61 19.626L131.352 18.1484C130.711 18.2603 130.067 18.369 129.418 18.4744L129.658 19.955C129.007 20.0609 128.352 20.1634 127.692 20.2627L127.469 18.7794C126.826 18.8761 126.179 18.9697 125.529 19.06L125.735 20.5458C125.081 20.6366 124.423 20.7242 123.761 20.8085L123.572 19.3206C122.926 19.4028 122.278 19.4819 121.625 19.5578L121.799 21.0477C121.143 21.1241 120.483 21.1973 119.82 21.2672L119.663 19.7754C119.015 19.8437 118.365 19.9088 117.711 19.9708L117.853 21.4641C117.195 21.5264 116.534 21.5856 115.87 21.6415L115.744 20.1468C115.095 20.2015 114.443 20.253 113.788 20.3015L113.899 21.7974C113.24 21.8461 112.578 21.8916 111.914 21.9339L111.819 20.437C111.168 20.4784 110.514 20.5168 109.858 20.552L109.939 22.0498C109.279 22.0852 108.617 22.1174 107.953 22.1465L107.888 20.6479C107.235 20.6764 106.58 20.7018 105.923 20.724L105.974 22.2232C105.314 22.2455 104.653 22.2647 103.989 22.2807L103.952 20.7811C103.299 20.7969 102.643 20.8095 101.985 20.819L102.007 22.3189C101.347 22.3284 100.686 22.3347 100.022 22.3379L100.015 20.838C99.6857 20.8395 99.3559 20.8403 99.0256 20.8403C98.6954 20.8403 98.3656 20.8395 98.0363 20.838L98.0291 22.3379C97.3657 22.3347 96.7041 22.3284 96.0445 22.3189L96.0662 20.819C95.4084 20.8095 94.7525 20.7969 94.0988 20.7811L94.0627 22.2807C93.3987 22.2647 92.7369 22.2455 92.0772 22.2232L92.128 20.724C91.471 20.7018 90.8162 20.6764 90.1637 20.6479L90.0982 22.1465C89.434 22.1174 88.7721 22.0852 88.1127 22.0498L88.1931 20.552C87.5371 20.5168 86.8835 20.4784 86.2325 20.437L86.1372 21.9339C85.473 21.8916 84.8114 21.8461 84.1526 21.7974L84.2632 20.3015C83.6083 20.2531 82.9562 20.2015 82.3069 20.1468L82.181 21.6415C81.5172 21.5856 80.8564 21.5264 80.1986 21.4641L80.3401 19.9708C79.6865 19.9088 79.036 19.8437 78.3886 19.7754L78.2313 21.2672C77.5684 21.1973 76.9088 21.1241 76.2525 21.0477L76.4259 19.5578C75.7737 19.4819 75.1249 19.4028 74.4797 19.3206L74.29 20.8085C73.6285 20.7242 72.9706 20.6366 72.3164 20.5458L72.5227 19.06C71.8722 18.9697 71.2254 18.8761 70.5824 18.7794L70.3592 20.2627C69.6997 20.1634 69.0443 20.0609 68.3929 19.955L68.6334 18.4744C67.9846 18.369 67.3399 18.2603 66.6996 18.1484L66.4414 19.626C65.7847 19.5113 65.1325 19.3932 64.4848 19.2718L64.7612 17.7974C64.1143 17.6762 63.472 17.5516 62.8346 17.4237L62.5396 18.8945C61.8867 18.7635 61.2388 18.6292 60.5958 18.4915L60.9099 17.0248C60.2652 16.8867 59.6257 16.7452 58.9915 16.6005L58.6577 18.0629C58.0098 17.915 57.3673 17.7636 56.7304 17.6089L57.0845 16.1513C56.4423 15.9953 55.806 15.8359 55.1757 15.673L54.8005 17.1253C54.159 16.9596 53.5235 16.7904 52.8941 16.6177L53.291 15.1712C52.652 14.9958 52.0196 14.817 51.394 14.6346L50.9743 16.0747C50.3354 15.8885 49.7033 15.6987 49.0782 15.5054L49.5215 14.0723C48.892 13.8776 48.2699 13.6793 47.6554 13.4775L47.1874 14.9027C46.5519 14.694 45.9242 14.4816 45.3045 14.2655L45.7984 12.8491C45.1799 12.6334 44.5697 12.4141 43.9681 12.1913L43.4472 13.598C42.8175 13.3648 42.1968 13.1277 41.5853 12.8867L42.1351 11.4911C41.5226 11.2499 40.9199 11.0049 40.3271 10.7562L39.7469 12.1395C39.1334 11.8821 38.5299 11.6208 37.9368 11.3556L38.549 9.98628C37.9456 9.7165 37.3535 9.44283 36.7731 9.1654L36.1262 10.5188C35.521 10.2295 34.9276 9.93597 34.3464 9.63836L35.0301 8.30323C34.4479 8.00511 33.8788 7.70309 33.3232 7.39731L32.6 8.71149C32.0119 8.38789 31.4379 8.05984 30.8781 7.72749L31.644 6.43773C31.0792 6.10236 30.5302 5.76297 29.9974 5.41978L29.1851 6.68082C28.6191 6.31622 28.0699 5.94689 27.538 5.57299L28.4006 4.34583C27.868 3.97144 27.3544 3.59309 26.8601 3.21107L25.9428 4.39785C25.4104 3.98633 24.8984 3.56975 24.4075 3.14835L25.3845 2.01016C24.8945 1.58957 24.4279 1.16528 23.985 0.737607L22.9431 1.81667C22.4572 1.34749 21.9968 0.872869 21.5627 0.393098L22.675 -0.613284C22.246 -1.08743 21.8461 -1.56473 21.4756 -2.04475L20.2882 -1.1282C19.8753 -1.66303 19.4946 -2.20363 19.147 -2.74964L20.4123 -3.55527C20.0763 -4.0829 19.7757 -4.61284 19.5105 -5.14463L18.1682 -4.47522C17.8677 -5.07778 17.607 -5.68621 17.3874 -6.30004L18.7996 -6.80545C18.5957 -7.37535 18.4318 -7.94752 18.3083 -8.52173L16.8418 -8.20627C16.7023 -8.85475 16.6083 -9.50852 16.5612 -10.1671L18.0573 -10.2743C18.0362 -10.5684 18.0256 -10.8635 18.0256 -11.1597C18.0256 -11.4558 18.0362 -11.751 18.0573 -12.0451L16.5612 -12.1523C16.6083 -12.8108 16.7023 -13.4646 16.8418 -14.1131L18.3083 -13.7976C18.4318 -14.3718 18.5957 -14.944 18.7996 -15.5139L17.3874 -16.0193C17.607 -16.6331 17.8677 -17.2415 18.1682 -17.8441L19.5105 -17.1747C19.7757 -17.7065 20.0763 -18.2364 20.4123 -18.7641L19.147 -19.5697C19.4946 -20.1157 19.8753 -20.6563 20.2882 -21.1911L21.4756 -20.2746C21.8461 -20.7546 22.246 -21.2319 22.675 -21.706L21.5627 -22.7124C21.9968 -23.1922 22.4572 -23.6668 22.9431 -24.136L23.985 -23.0569C24.4279 -23.4846 24.8945 -23.9089 25.3845 -24.3295L24.4075 -25.4677C24.8984 -25.8891 25.4104 -26.3057 25.9428 -26.7172L26.8601 -25.5304C27.3543 -25.9124 27.8679 -26.2908 28.4006 -26.6652L27.538 -27.8923C28.0699 -28.2662 28.6191 -28.6356 29.1851 -29.0002L29.9974 -27.7391C30.5302 -28.0823 31.0792 -28.4217 31.644 -28.7571L30.8781 -30.0468C31.4378 -30.3792 32.0119 -30.7072 32.6 -31.0308L33.3232 -29.7166C33.8788 -30.0224 34.4479 -30.3245 35.0301 -30.6226L34.3464 -31.9577C34.9276 -32.2553 35.521 -32.5488 36.1262 -32.8381L36.7731 -31.4847C37.3535 -31.7622 37.9456 -32.0358 38.549 -32.3056L37.9368 -33.675C38.5299 -33.9402 39.1334 -34.2015 39.7469 -34.4588L40.3271 -33.0756C40.9199 -33.3242 41.5226 -33.5692 42.135 -33.8105L41.5853 -35.2061C42.1968 -35.447 42.8175 -35.6841 43.4472 -35.9173L43.9681 -34.5107C44.5697 -34.7335 45.1799 -34.9528 45.7983 -35.1684L45.3044 -36.5848C45.9242 -36.8009 46.5519 -37.0133 47.1874 -37.222L47.6554 -35.7969C48.2699 -35.9987 48.892 -36.197 49.5215 -36.3917L49.0782 -37.8247C49.7033 -38.0181 50.3354 -38.2079 50.9743 -38.3941L51.394 -36.954C52.0196 -37.1363 52.652 -37.3152 53.291 -37.4905L52.8941 -38.937C53.5235 -39.1097 54.159 -39.2789 54.8005 -39.4447L55.1757 -37.9924C55.806 -38.1552 56.4423 -38.3146 57.0845 -38.4707L56.7304 -39.9283C57.3673 -40.083 58.0098 -40.2343 58.6577 -40.3822L58.9915 -38.9198C59.6256 -39.0646 60.2652 -39.206 60.9099 -39.3441L60.5958 -40.8108C61.2388 -40.9485 61.8867 -41.0829 62.5396 -41.2138L62.8345 -39.7431C63.472 -39.8709 64.1143 -39.9955 64.7612 -40.1168L64.4848 -41.5911C65.1325 -41.7125 65.7847 -41.8306 66.4414 -41.9454L66.6996 -40.4678C67.3399 -40.5797 67.9846 -40.6884 68.6334 -40.7938L68.3929 -42.2744C69.0443 -42.3802 69.6997 -42.4828 70.3592 -42.582L70.5824 -41.0987C71.2253 -41.1954 71.8722 -41.289 72.5227 -41.3794L72.3164 -42.8651C72.9706 -42.956 73.6285 -43.0436 74.29 -43.1279L74.4797 -41.6399C75.1249 -41.7221 75.7737 -41.8012 76.4258 -41.8771L76.2524 -43.3671C76.9088 -43.4434 77.5684 -43.5166 78.2313 -43.5865L78.3886 -42.0948C79.036 -42.163 79.6865 -42.2281 80.3401 -42.2901L80.1986 -43.7834C80.8564 -43.8458 81.5172 -43.9049 82.181 -43.9608L82.3069 -42.4661C82.9562 -42.5208 83.6083 -42.5724 84.2632 -42.6208L84.1526 -44.1167C84.8114 -44.1654 85.473 -44.211 86.1371 -44.2533L86.2325 -42.7563C86.8835 -42.7978 87.537 -42.8361 88.1931 -42.8713L88.1127 -44.3692C88.7721 -44.4046 89.434 -44.4368 90.0982 -44.4658L90.1637 -42.9672C90.8162 -42.9957 91.4709 -43.0211 92.128 -43.0434L92.0772 -44.5425C92.7368 -44.5649 93.3987 -44.5841 94.0627 -44.6001L94.0988 -43.1005C94.7525 -43.1162 95.4083 -43.1289 96.0661 -43.1384L96.0445 -44.6382C96.7041 -44.6477 97.3656 -44.6541 98.0291 -44.6573L98.0363 -43.1573C98.3656 -43.1589 98.6954 -43.1597 99.0256 -43.1597C99.3559 -43.1597 99.6856 -43.1589 100.015 -43.1573L100.022 -44.6573C100.686 -44.6541 101.347 -44.6477 102.007 -44.6382L101.985 -43.1384C102.643 -43.1289 103.299 -43.1162 103.952 -43.1005L103.989 -44.6001C104.653 -44.5841 105.314 -44.5649 105.974 -44.5425L105.923 -43.0434C106.58 -43.0211 107.235 -42.9957 107.888 -42.9672L107.953 -44.4658C108.617 -44.4368 109.279 -44.4046 109.939 -44.3692L109.858 -42.8713C110.514 -42.8361 111.168 -42.7978 111.819 -42.7563L111.914 -44.2533C112.578 -44.211 113.24 -44.1654 113.899 -44.1167L113.788 -42.6208C114.443 -42.5724 115.095 -42.5208 115.744 -42.4661L115.87 -43.9608C116.534 -43.9049 117.195 -43.8458 117.853 -43.7834L117.711 -42.2901C118.365 -42.2282 119.015 -42.163 119.663 -42.0948L119.82 -43.5865C120.483 -43.5166 121.142 -43.4434 121.799 -43.3671L121.625 -41.8771C122.278 -41.8012 122.926 -41.7221 123.572 -41.6399L123.761 -43.1279C124.423 -43.0436 125.081 -42.956 125.735 -42.8651L125.529 -41.3794C126.179 -41.289 126.826 -41.1954 127.469 -41.0987L127.692 -42.582C128.352 -42.4828 129.007 -42.3802 129.658 -42.2744L129.418 -40.7938C130.067 -40.6884 130.711 -40.5797 131.352 -40.4678L131.61 -41.9454C132.267 -41.8306 132.919 -41.7125 133.566 -41.5911L133.29 -40.1168C133.937 -39.9955 134.579 -39.8709 135.217 -39.7431L135.512 -41.2138C136.165 -41.0829 136.812 -40.9485 137.455 -40.8108L137.141 -39.3441C137.786 -39.206 138.426 -39.0646 139.06 -38.9198L139.394 -40.3822C140.041 -40.2343 140.684 -40.083 141.321 -39.9283L140.967 -38.4707C141.609 -38.3147 142.245 -38.1552 142.876 -37.9924L143.251 -39.4447C143.892 -39.2789 144.528 -39.1097 145.157 -38.937L144.76 -37.4905C145.399 -37.3152 146.032 -37.1363 146.657 -36.954L147.077 -38.3941C147.716 -38.2079 148.348 -38.0181 148.973 -37.8247L148.53 -36.3917C149.159 -36.197 149.781 -35.9987 150.396 -35.7969L150.864 -37.222C151.499 -37.0133 152.127 -36.8009 152.747 -36.5848L152.253 -35.1684C152.871 -34.9528 153.482 -34.7335 154.083 -34.5107L154.604 -35.9173C155.234 -35.6841 155.854 -35.447 156.466 -35.2061L155.916 -33.8105C156.529 -33.5692 157.131 -33.3242 157.724 -33.0756L158.304 -34.4588C158.918 -34.2015 159.521 -33.9402 160.114 -33.675L159.502 -32.3056C160.106 -32.0358 160.698 -31.7622 161.278 -31.4847L161.925 -32.8381C162.53 -32.5488 163.124 -32.2553 163.705 -31.9577L163.021 -30.6226C163.603 -30.3245 164.172 -30.0224 164.728 -29.7167L165.451 -31.0308C166.039 -30.7072 166.613 -30.3792 167.173 -30.0468L166.407 -28.7571C166.972 -28.4217 167.521 -28.0823 168.054 -27.7391L168.866 -29.0002C169.432 -28.6356 169.981 -28.2662 170.513 -27.8923L169.651 -26.6652C170.183 -26.2908 170.697 -25.9124 171.191 -25.5304L172.108 -26.7172C172.641 -26.3057 173.153 -25.8891 173.644 -25.4677L172.667 -24.3295C173.157 -23.9089 173.623 -23.4846 174.066 -23.0569L175.108 -24.136C175.594 -23.6668 176.054 -23.1922 176.489 -22.7124L175.376 -21.7061C175.805 -21.2319 176.205 -20.7546 176.576 -20.2746L177.763 -21.1911C178.176 -20.6563 178.557 -20.1157 178.904 -19.5697L177.639 -18.7641C177.975 -18.2364 178.276 -17.7065 178.541 -17.1747L179.883 -17.8441C180.184 -17.2416 180.444 -16.6331 180.664 -16.0193L179.252 -15.5139C179.456 -14.944 179.619 -14.3718 179.743 -13.7976L181.209 -14.1131Z" stroke="#FFD700" stroke-width="3" stroke-dasharray="2 2"/>
<path d="M227.209 -14.1131C227.349 -13.4646 227.443 -12.8108 227.49 -12.1523L225.994 -12.0451C226.015 -11.751 226.026 -11.4558 226.026 -11.1597C226.026 -10.8635 226.015 -10.5684 225.994 -10.2743L227.49 -10.1671C227.443 -9.50852 227.349 -8.85475 227.209 -8.20628L225.743 -8.52173C225.619 -7.94753 225.456 -7.37536 225.252 -6.80546L226.664 -6.30004C226.444 -5.68622 226.184 -5.0778 225.883 -4.47523L224.541 -5.14463C224.276 -4.61285 223.975 -4.08291 223.639 -3.55527L224.904 -2.74965C224.557 -2.20364 224.176 -1.66304 223.763 -1.1282L222.576 -2.04476C222.205 -1.56474 221.805 -1.08744 221.376 -0.613292L222.489 0.39309C222.054 0.872861 221.594 1.34748 221.108 1.81666L220.066 0.7376C219.623 1.16527 219.157 1.58957 218.667 2.01016L219.644 3.14834C219.153 3.56974 218.641 3.98632 218.108 4.39785L217.191 3.21106C216.697 3.59309 216.183 3.97143 215.651 4.34583L216.513 5.57298C215.981 5.94688 215.432 6.31622 214.866 6.68081L214.054 5.41977C213.521 5.76297 212.972 6.10235 212.407 6.43772L213.173 7.72749C212.613 8.05984 212.039 8.38789 211.451 8.71148L210.728 7.39731C210.172 7.70308 209.603 8.00511 209.021 8.30323L209.705 9.63836C209.124 9.93597 208.53 10.2295 207.925 10.5188L207.278 9.16539C206.698 9.44282 206.106 9.71649 205.502 9.98628L206.114 11.3556C205.521 11.6208 204.918 11.8821 204.304 12.1395L203.724 10.7562C203.131 11.0049 202.529 11.2499 201.916 11.4911L202.466 12.8867C201.854 13.1277 201.234 13.3648 200.604 13.598L200.083 12.1913C199.482 12.4141 198.871 12.6334 198.253 12.8491L198.747 14.2654C198.127 14.4816 197.499 14.694 196.864 14.9027L196.396 13.4775C195.781 13.6793 195.159 13.8776 194.53 14.0723L194.973 15.5054C194.348 15.6987 193.716 15.8885 193.077 16.0747L192.657 14.6346C192.032 14.817 191.399 14.9958 190.76 15.1712L191.157 16.6177C190.528 16.7904 189.892 16.9596 189.251 17.1253L188.876 15.673C188.245 15.8359 187.609 15.9953 186.967 16.1513L187.321 17.6089C186.684 17.7636 186.041 17.915 185.394 18.0629L185.06 16.6005C184.426 16.7452 183.786 16.8867 183.141 17.0247L183.455 18.4915C182.813 18.6292 182.165 18.7635 181.512 18.8945L181.217 17.4237C180.579 17.5516 179.937 17.6762 179.29 17.7974L179.566 19.2718C178.919 19.3932 178.267 19.5113 177.61 19.626L177.352 18.1484C176.711 18.2603 176.067 18.369 175.418 18.4744L175.658 19.955C175.007 20.0609 174.352 20.1634 173.692 20.2627L173.469 18.7794C172.826 18.8761 172.179 18.9697 171.529 19.06L171.735 20.5458C171.081 20.6366 170.423 20.7242 169.761 20.8085L169.572 19.3206C168.926 19.4028 168.278 19.4819 167.625 19.5578L167.799 21.0477C167.143 21.1241 166.483 21.1973 165.82 21.2672L165.663 19.7754C165.015 19.8437 164.365 19.9088 163.711 19.9708L163.853 21.4641C163.195 21.5264 162.534 21.5856 161.87 21.6415L161.744 20.1468C161.095 20.2015 160.443 20.253 159.788 20.3015L159.899 21.7974C159.24 21.8461 158.578 21.8916 157.914 21.9339L157.819 20.437C157.168 20.4784 156.514 20.5168 155.858 20.552L155.939 22.0498C155.279 22.0852 154.617 22.1174 153.953 22.1465L153.888 20.6479C153.235 20.6764 152.58 20.7018 151.923 20.724L151.974 22.2232C151.314 22.2455 150.653 22.2647 149.989 22.2807L149.952 20.7811C149.299 20.7969 148.643 20.8095 147.985 20.819L148.007 22.3189C147.347 22.3284 146.686 22.3347 146.022 22.3379L146.015 20.838C145.686 20.8395 145.356 20.8403 145.026 20.8403C144.695 20.8403 144.366 20.8395 144.036 20.838L144.029 22.3379C143.366 22.3347 142.704 22.3284 142.045 22.3189L142.066 20.819C141.408 20.8095 140.753 20.7969 140.099 20.7811L140.063 22.2807C139.399 22.2647 138.737 22.2455 138.077 22.2232L138.128 20.724C137.471 20.7018 136.816 20.6764 136.164 20.6479L136.098 22.1465C135.434 22.1174 134.772 22.0852 134.113 22.0498L134.193 20.552C133.537 20.5168 132.884 20.4784 132.233 20.437L132.137 21.9339C131.473 21.8916 130.811 21.8461 130.153 21.7974L130.263 20.3015C129.608 20.2531 128.956 20.2015 128.307 20.1468L128.181 21.6415C127.517 21.5856 126.856 21.5264 126.199 21.4641L126.34 19.9708C125.687 19.9088 125.036 19.8437 124.389 19.7754L124.231 21.2672C123.568 21.1973 122.909 21.1241 122.252 21.0477L122.426 19.5578C121.774 19.4819 121.125 19.4028 120.48 19.3206L120.29 20.8085C119.629 20.7242 118.971 20.6366 118.316 20.5458L118.523 19.06C117.872 18.9697 117.225 18.8761 116.582 18.7794L116.359 20.2627C115.7 20.1634 115.044 20.0609 114.393 19.955L114.633 18.4744C113.985 18.369 113.34 18.2603 112.7 18.1484L112.441 19.626C111.785 19.5113 111.133 19.3932 110.485 19.2718L110.761 17.7974C110.114 17.6762 109.472 17.5516 108.835 17.4237L108.54 18.8945C107.887 18.7635 107.239 18.6292 106.596 18.4915L106.91 17.0248C106.265 16.8867 105.626 16.7452 104.991 16.6005L104.658 18.0629C104.01 17.915 103.367 17.7636 102.73 17.6089L103.084 16.1513C102.442 15.9953 101.806 15.8359 101.176 15.673L100.801 17.1253C100.159 16.9596 99.5235 16.7904 98.8941 16.6177L99.291 15.1712C98.652 14.9958 98.0196 14.817 97.394 14.6346L96.9743 16.0747C96.3354 15.8885 95.7033 15.6987 95.0782 15.5054L95.5215 14.0723C94.892 13.8776 94.2699 13.6793 93.6554 13.4775L93.1874 14.9027C92.5519 14.694 91.9242 14.4816 91.3045 14.2655L91.7984 12.8491C91.1799 12.6334 90.5697 12.4141 89.9681 12.1913L89.4472 13.598C88.8175 13.3648 88.1968 13.1277 87.5853 12.8867L88.1351 11.4911C87.5226 11.2499 86.9199 11.0049 86.3271 10.7562L85.7469 12.1395C85.1334 11.8821 84.5299 11.6208 83.9368 11.3556L84.549 9.98628C83.9456 9.7165 83.3535 9.44283 82.7731 9.1654L82.1262 10.5188C81.521 10.2295 80.9276 9.93597 80.3464 9.63836L81.0301 8.30323C80.4479 8.00511 79.8788 7.70309 79.3232 7.39731L78.6 8.71149C78.0119 8.38789 77.4379 8.05984 76.8781 7.72749L77.644 6.43773C77.0792 6.10236 76.5302 5.76297 75.9974 5.41978L75.1851 6.68082C74.6191 6.31622 74.0699 5.94689 73.538 5.57299L74.4006 4.34583C73.868 3.97144 73.3544 3.59309 72.8601 3.21107L71.9428 4.39785C71.4104 3.98633 70.8984 3.56975 70.4075 3.14835L71.3845 2.01016C70.8945 1.58957 70.4279 1.16528 69.985 0.737607L68.9431 1.81667C68.4572 1.34749 67.9968 0.872869 67.5627 0.393098L68.675 -0.613284C68.246 -1.08743 67.8461 -1.56473 67.4756 -2.04475L66.2882 -1.1282C65.8753 -1.66303 65.4946 -2.20363 65.147 -2.74964L66.4123 -3.55527C66.0763 -4.0829 65.7757 -4.61284 65.5105 -5.14463L64.1682 -4.47522C63.8677 -5.07778 63.607 -5.68621 63.3874 -6.30004L64.7996 -6.80545C64.5957 -7.37535 64.4318 -7.94752 64.3083 -8.52173L62.8418 -8.20627C62.7023 -8.85475 62.6083 -9.50852 62.5612 -10.1671L64.0573 -10.2743C64.0362 -10.5684 64.0256 -10.8635 64.0256 -11.1597C64.0256 -11.4558 64.0362 -11.751 64.0573 -12.0451L62.5612 -12.1523C62.6083 -12.8108 62.7023 -13.4646 62.8418 -14.1131L64.3083 -13.7976C64.4318 -14.3718 64.5957 -14.944 64.7996 -15.5139L63.3874 -16.0193C63.607 -16.6331 63.8677 -17.2415 64.1682 -17.8441L65.5105 -17.1747C65.7757 -17.7065 66.0763 -18.2364 66.4123 -18.7641L65.147 -19.5697C65.4946 -20.1157 65.8753 -20.6563 66.2882 -21.1911L67.4756 -20.2746C67.8461 -20.7546 68.246 -21.2319 68.675 -21.706L67.5627 -22.7124C67.9968 -23.1922 68.4572 -23.6668 68.9431 -24.136L69.985 -23.0569C70.4279 -23.4846 70.8945 -23.9089 71.3845 -24.3295L70.4075 -25.4677C70.8984 -25.8891 71.4104 -26.3057 71.9428 -26.7172L72.8601 -25.5304C73.3543 -25.9124 73.8679 -26.2908 74.4006 -26.6652L73.538 -27.8923C74.0699 -28.2662 74.6191 -28.6356 75.1851 -29.0002L75.9974 -27.7391C76.5302 -28.0823 77.0792 -28.4217 77.644 -28.7571L76.8781 -30.0468C77.4378 -30.3792 78.0119 -30.7072 78.6 -31.0308L79.3232 -29.7166C79.8788 -30.0224 80.4479 -30.3245 81.0301 -30.6226L80.3464 -31.9577C80.9276 -32.2553 81.521 -32.5488 82.1262 -32.8381L82.7731 -31.4847C83.3535 -31.7622 83.9456 -32.0358 84.549 -32.3056L83.9368 -33.675C84.5299 -33.9402 85.1334 -34.2015 85.7469 -34.4588L86.3271 -33.0756C86.9199 -33.3242 87.5226 -33.5692 88.135 -33.8105L87.5853 -35.2061C88.1968 -35.447 88.8175 -35.6841 89.4472 -35.9173L89.9681 -34.5107C90.5697 -34.7335 91.1799 -34.9528 91.7983 -35.1684L91.3044 -36.5848C91.9242 -36.8009 92.5519 -37.0133 93.1874 -37.222L93.6554 -35.7969C94.2699 -35.9987 94.892 -36.197 95.5215 -36.3917L95.0782 -37.8247C95.7033 -38.0181 96.3354 -38.2079 96.9743 -38.3941L97.394 -36.954C98.0196 -37.1363 98.652 -37.3152 99.291 -37.4905L98.8941 -38.937C99.5235 -39.1097 100.159 -39.2789 100.8 -39.4447L101.176 -37.9924C101.806 -38.1552 102.442 -38.3146 103.084 -38.4707L102.73 -39.9283C103.367 -40.083 104.01 -40.2343 104.658 -40.3822L104.991 -38.9198C105.626 -39.0646 106.265 -39.206 106.91 -39.3441L106.596 -40.8108C107.239 -40.9485 107.887 -41.0829 108.54 -41.2138L108.835 -39.7431C109.472 -39.8709 110.114 -39.9955 110.761 -40.1168L110.485 -41.5911C111.132 -41.7125 111.785 -41.8306 112.441 -41.9454L112.7 -40.4678C113.34 -40.5797 113.985 -40.6884 114.633 -40.7938L114.393 -42.2744C115.044 -42.3802 115.7 -42.4828 116.359 -42.582L116.582 -41.0987C117.225 -41.1954 117.872 -41.289 118.523 -41.3794L118.316 -42.8651C118.971 -42.956 119.629 -43.0436 120.29 -43.1279L120.48 -41.6399C121.125 -41.7221 121.774 -41.8012 122.426 -41.8771L122.252 -43.3671C122.909 -43.4434 123.568 -43.5166 124.231 -43.5865L124.389 -42.0948C125.036 -42.163 125.687 -42.2281 126.34 -42.2901L126.199 -43.7834C126.856 -43.8458 127.517 -43.9049 128.181 -43.9608L128.307 -42.4661C128.956 -42.5208 129.608 -42.5724 130.263 -42.6208L130.153 -44.1167C130.811 -44.1654 131.473 -44.211 132.137 -44.2533L132.233 -42.7563C132.883 -42.7978 133.537 -42.8361 134.193 -42.8713L134.113 -44.3692C134.772 -44.4046 135.434 -44.4368 136.098 -44.4658L136.164 -42.9672C136.816 -42.9957 137.471 -43.0211 138.128 -43.0434L138.077 -44.5425C138.737 -44.5649 139.399 -44.5841 140.063 -44.6001L140.099 -43.1005C140.753 -43.1162 141.408 -43.1289 142.066 -43.1384L142.045 -44.6382C142.704 -44.6477 143.366 -44.6541 144.029 -44.6573L144.036 -43.1573C144.366 -43.1589 144.695 -43.1597 145.026 -43.1597C145.356 -43.1597 145.686 -43.1589 146.015 -43.1573L146.022 -44.6573C146.686 -44.6541 147.347 -44.6477 148.007 -44.6382L147.985 -43.1384C148.643 -43.1289 149.299 -43.1162 149.952 -43.1005L149.989 -44.6001C150.653 -44.5841 151.314 -44.5649 151.974 -44.5425L151.923 -43.0434C152.58 -43.0211 153.235 -42.9957 153.888 -42.9672L153.953 -44.4658C154.617 -44.4368 155.279 -44.4046 155.939 -44.3692L155.858 -42.8713C156.514 -42.8361 157.168 -42.7978 157.819 -42.7563L157.914 -44.2533C158.578 -44.211 159.24 -44.1654 159.899 -44.1167L159.788 -42.6208C160.443 -42.5724 161.095 -42.5208 161.744 -42.4661L161.87 -43.9608C162.534 -43.9049 163.195 -43.8458 163.853 -43.7834L163.711 -42.2901C164.365 -42.2282 165.015 -42.163 165.663 -42.0948L165.82 -43.5865C166.483 -43.5166 167.142 -43.4434 167.799 -43.3671L167.625 -41.8771C168.278 -41.8012 168.926 -41.7221 169.572 -41.6399L169.761 -43.1279C170.423 -43.0436 171.081 -42.956 171.735 -42.8651L171.529 -41.3794C172.179 -41.289 172.826 -41.1954 173.469 -41.0987L173.692 -42.582C174.352 -42.4828 175.007 -42.3802 175.658 -42.2744L175.418 -40.7938C176.067 -40.6884 176.711 -40.5797 177.352 -40.4678L177.61 -41.9454C178.267 -41.8306 178.919 -41.7125 179.566 -41.5911L179.29 -40.1168C179.937 -39.9955 180.579 -39.8709 181.217 -39.7431L181.512 -41.2138C182.165 -41.0829 182.812 -40.9485 183.455 -40.8108L183.141 -39.3441C183.786 -39.206 184.426 -39.0646 185.06 -38.9198L185.394 -40.3822C186.041 -40.2343 186.684 -40.083 187.321 -39.9283L186.967 -38.4707C187.609 -38.3147 188.245 -38.1552 188.876 -37.9924L189.251 -39.4447C189.892 -39.2789 190.528 -39.1097 191.157 -38.937L190.76 -37.4905C191.399 -37.3152 192.032 -37.1363 192.657 -36.954L193.077 -38.3941C193.716 -38.2079 194.348 -38.0181 194.973 -37.8247L194.53 -36.3917C195.159 -36.197 195.781 -35.9987 196.396 -35.7969L196.864 -37.222C197.499 -37.0133 198.127 -36.8009 198.747 -36.5848L198.253 -35.1684C198.871 -34.9528 199.482 -34.7335 200.083 -34.5107L200.604 -35.9173C201.234 -35.6841 201.854 -35.447 202.466 -35.2061L201.916 -33.8105C202.529 -33.5692 203.131 -33.3242 203.724 -33.0756L204.304 -34.4588C204.918 -34.2015 205.521 -33.9402 206.114 -33.675L205.502 -32.3056C206.106 -32.0358 206.698 -31.7622 207.278 -31.4847L207.925 -32.8381C208.53 -32.5488 209.124 -32.2553 209.705 -31.9577L209.021 -30.6226C209.603 -30.3245 210.172 -30.0224 210.728 -29.7167L211.451 -31.0308C212.039 -30.7072 212.613 -30.3792 213.173 -30.0468L212.407 -28.7571C212.972 -28.4217 213.521 -28.0823 214.054 -27.7391L214.866 -29.0002C215.432 -28.6356 215.981 -28.2662 216.513 -27.8923L215.651 -26.6652C216.183 -26.2908 216.697 -25.9124 217.191 -25.5304L218.108 -26.7172C218.641 -26.3057 219.153 -25.8891 219.644 -25.4677L218.667 -24.3295C219.157 -23.9089 219.623 -23.4846 220.066 -23.0569L221.108 -24.136C221.594 -23.6668 222.054 -23.1922 222.489 -22.7124L221.376 -21.7061C221.805 -21.2319 222.205 -20.7546 222.576 -20.2746L223.763 -21.1911C224.176 -20.6563 224.557 -20.1157 224.904 -19.5697L223.639 -18.7641C223.975 -18.2364 224.276 -17.7065 224.541 -17.1747L225.883 -17.8441C226.184 -17.2416 226.444 -16.6331 226.664 -16.0193L225.252 -15.5139C225.456 -14.944 225.619 -14.3718 225.743 -13.7976L227.209 -14.1131Z" stroke="#FFD700" stroke-width="3" stroke-dasharray="2 2"/>
<path d="M368.692 -43.3694C369.055 -42.814 369.377 -42.2374 369.657 -41.6395L368.299 -41.0032C368.424 -40.7362 368.539 -40.4645 368.645 -40.188C368.752 -39.9115 368.847 -39.6321 368.933 -39.35L370.368 -39.7861C370.56 -39.1544 370.707 -38.5104 370.809 -37.855L369.327 -37.6239C369.417 -37.0436 369.469 -36.4507 369.483 -35.8456L370.983 -35.8798C370.998 -35.2281 370.972 -34.5666 370.908 -33.8964L369.415 -34.0403C369.358 -33.4488 369.267 -32.8463 369.143 -32.2333L370.612 -31.9347C370.484 -31.3003 370.322 -30.6592 370.128 -30.012L368.691 -30.4421C368.517 -29.8612 368.315 -29.2723 368.084 -28.6759L369.483 -28.135C369.25 -27.5315 368.99 -26.9234 368.705 -26.3113L367.346 -26.9453C367.085 -26.3873 366.802 -25.8239 366.495 -25.2557L367.815 -24.5432C367.508 -23.9739 367.179 -23.4015 366.83 -22.8265L365.548 -23.6057C365.223 -23.072 364.879 -22.5347 364.516 -21.9943L365.761 -21.1578C365.399 -20.6181 365.018 -20.0765 364.621 -19.5332L363.41 -20.4194C363.036 -19.9081 362.645 -19.3945 362.238 -18.879L363.415 -17.9494C363.012 -17.4385 362.593 -16.9265 362.16 -16.4137L361.014 -17.3814C360.605 -16.8968 360.182 -16.4109 359.745 -15.9239L360.862 -14.9225C360.426 -14.4364 359.977 -13.9497 359.516 -13.4627L358.427 -14.4944C357.985 -14.0274 357.53 -13.5597 357.063 -13.0916L358.126 -12.0326C357.667 -11.5725 357.197 -11.1122 356.717 -10.6521L355.679 -11.7356C355.215 -11.291 354.74 -10.8463 354.255 -10.4016L355.268 -9.2957C354.784 -8.85162 354.289 -8.40782 353.785 -7.96447L352.794 -9.09097C352.313 -8.66737 351.821 -8.24399 351.321 -7.821L352.29 -6.67572C351.789 -6.25187 351.279 -5.82859 350.761 -5.40603L349.813 -6.5688C349.312 -6.16019 348.802 -5.75213 348.284 -5.34474L349.211 -4.16577C348.697 -3.76124 348.175 -3.3575 347.645 -2.9547L346.737 -4.14873C346.219 -3.75433 345.692 -3.36072 345.159 -2.96804L346.047 -1.75981C345.522 -1.37308 344.989 -0.98734 344.45 -0.602706L343.579 -1.8241C343.049 -1.4462 342.512 -1.0693 341.968 -0.693522L342.821 0.540369C342.282 0.913071 341.736 1.28461 341.185 1.65486L340.349 0.409228C339.809 0.771633 339.262 1.13286 338.71 1.4928L339.529 2.74957C338.978 3.10852 338.421 3.46615 337.859 3.82235L337.056 2.55503C336.507 2.90283 335.952 3.2493 335.391 3.59435L336.178 4.8717C335.617 5.21717 335.05 5.56118 334.478 5.90362L333.708 4.61669C333.15 4.95064 332.587 5.28313 332.019 5.61408L332.774 6.91011C332.204 7.24235 331.629 7.57301 331.049 7.90198L330.309 6.59719C329.743 6.91792 329.173 7.23707 328.598 7.55456L329.323 8.86768C328.745 9.18694 328.162 9.50449 327.575 9.82027L326.864 8.4991C326.291 8.80712 325.714 9.11345 325.132 9.41801L325.828 10.7469C325.243 11.0534 324.653 11.3581 324.059 11.6609L323.378 10.3246C322.798 10.6203 322.214 10.9142 321.626 11.2063L322.293 12.5497C321.702 12.8436 321.106 13.1357 320.506 13.4258L319.853 12.0755C319.266 12.3592 318.676 12.6411 318.082 12.9209L318.721 14.2779C318.124 14.5594 317.522 14.839 316.918 15.1166L316.292 13.7532C315.699 14.0252 315.103 14.2952 314.503 14.5632L315.115 15.9327C314.512 16.2021 313.905 16.4694 313.296 16.7345L312.698 15.3589C312.099 15.6194 311.497 15.8777 310.891 16.134L311.476 17.5153C310.868 17.7726 310.257 18.0277 309.643 18.2806L309.072 16.8935C308.467 17.1425 307.859 17.3893 307.249 17.6339L307.806 19.0264C307.194 19.2717 306.579 19.5147 305.96 19.7554L305.416 18.3576C305.109 18.4771 304.802 18.5961 304.493 18.7144C304.185 18.8328 303.877 18.9502 303.569 19.0667L304.1 20.4697C303.479 20.7044 302.859 20.9356 302.24 21.1631L301.723 19.7551C301.105 19.982 300.488 20.2052 299.872 20.4248L300.376 21.8377C299.751 22.0607 299.126 22.28 298.502 22.4955L298.012 21.0778C297.391 21.2924 296.77 21.5034 296.151 21.7106L296.627 23.1331C295.996 23.344 295.367 23.5512 294.739 23.7544L294.277 22.3273C293.652 22.5295 293.028 22.7279 292.405 22.9225L292.853 24.3542C292.217 24.5527 291.584 24.7473 290.951 24.9379L290.518 23.5017C289.889 23.6912 289.262 23.8768 288.636 24.0584L289.055 25.4989C288.415 25.6846 287.777 25.8662 287.14 26.0437L286.737 24.5989C286.105 24.7753 285.474 24.9476 284.845 25.1159L285.233 26.5649C284.589 26.7372 283.947 26.9053 283.307 27.0692L282.935 25.6161C282.299 25.7789 281.665 25.9376 281.033 26.0921L281.389 27.5492C280.741 27.7075 280.096 27.8615 279.452 28.0111L279.113 26.5501C278.473 26.6989 277.836 26.8434 277.201 26.9835L277.524 28.4482C276.873 28.5919 276.224 28.7311 275.578 28.8657L275.272 27.3973C274.628 27.5314 273.988 27.6609 273.35 27.7859L273.638 29.2579C272.984 29.3861 272.333 29.5096 271.684 29.6284L271.414 28.1529C270.767 28.2715 270.123 28.3854 269.482 28.4945L269.733 29.9732C269.077 30.0849 268.424 30.1917 267.774 30.2936L267.542 28.8117C266.89 28.9139 266.243 29.011 265.599 29.1031L265.811 30.588C265.153 30.6821 264.499 30.7711 263.849 30.8549L263.657 29.3672C263.002 29.4517 262.351 29.5309 261.704 29.6047L261.874 31.095C261.216 31.1702 260.562 31.24 259.913 31.3043L259.765 29.8116C259.105 29.8769 258.451 29.9366 257.801 29.9905L257.926 31.4854C257.262 31.5405 256.604 31.5898 255.951 31.6333L255.852 30.1367C255.194 30.1805 254.542 30.2183 253.896 30.2501L253.97 31.7483C253.302 31.7812 252.64 31.8078 251.984 31.8282L251.937 30.3289C251.283 30.3492 250.635 30.3631 249.993 30.3707L250.011 31.8706C249.339 31.8785 248.675 31.8796 248.018 31.8739L248.031 30.3739C247.373 30.3682 246.722 30.3554 246.08 30.3358L246.034 31.8351C245.369 31.8147 244.712 31.787 244.063 31.752L244.144 30.2542C243.484 30.2185 242.833 30.1752 242.192 30.1242L242.073 31.6195C241.404 31.5664 240.745 31.505 240.096 31.4354L240.255 29.944C239.605 29.8743 238.966 29.7963 238.337 29.7099L238.133 31.196C237.468 31.1046 236.814 31.0041 236.173 30.8944L236.426 29.4159C235.778 29.3052 235.144 29.1851 234.524 29.0556L234.217 30.524C233.558 30.3864 232.913 30.2384 232.282 30.08L232.648 28.6252C232.017 28.4666 231.401 28.2974 230.803 28.1179L230.372 29.5546C229.728 29.3612 229.1 29.1557 228.491 28.9383L228.995 27.5256C228.387 27.3085 227.799 27.0796 227.233 26.8391L226.647 28.2198C226.025 27.956 225.425 27.6778 224.848 27.3855L225.526 26.0473C224.955 25.7584 224.411 25.4561 223.893 25.1408L223.113 26.422C222.536 26.0706 221.986 25.7024 221.466 25.3172L222.359 24.1117C221.856 23.7395 221.385 23.3525 220.947 22.951L219.934 24.057C219.438 23.6022 218.976 23.1276 218.551 22.6332L219.688 21.6553C219.294 21.1963 218.936 20.7209 218.615 20.2291L217.359 21.0491C216.996 20.4937 216.674 19.917 216.394 19.3192L217.752 18.6829C217.627 18.4159 217.512 18.1441 217.405 17.8676C217.299 17.5911 217.203 17.3118 217.118 17.0297L215.683 17.4658C215.491 16.8341 215.344 16.19 215.242 15.5346L216.724 15.3036C216.634 14.7233 216.581 14.1304 216.568 13.5253L215.068 13.5595C215.053 12.9078 215.078 12.2463 215.143 11.5761L216.636 11.72C216.693 11.1285 216.784 10.526 216.908 9.91302L215.438 9.61435C215.567 8.98002 215.729 8.33889 215.923 7.69163L217.36 8.12179C217.534 7.54086 217.736 6.95195 217.967 6.35556L216.567 5.81463C216.801 5.21116 217.06 4.60309 217.346 3.99094L218.705 4.62493C218.966 4.06695 219.249 3.50361 219.556 2.93536L218.236 2.2229C218.543 1.65356 218.872 1.08119 219.221 0.506203L220.503 1.28541C220.828 0.751645 221.172 0.214372 221.535 -0.326036L220.29 -1.16256C220.652 -1.70224 221.032 -2.24386 221.43 -2.78708L222.64 -1.90089C223.015 -2.41223 223.406 -2.92581 223.813 -3.44131L222.636 -4.37096C223.039 -4.88182 223.458 -5.39382 223.891 -5.90667L225.037 -4.93893C225.446 -5.42354 225.869 -5.90944 226.306 -6.3964L225.189 -7.39783C225.625 -7.88396 226.074 -8.37062 226.535 -8.8576L227.624 -7.82592C228.066 -8.29294 228.521 -8.76061 228.988 -9.22872L227.925 -10.2877C228.384 -10.7479 228.854 -11.2081 229.334 -11.6682L230.372 -10.5847C230.836 -11.0293 231.311 -11.474 231.796 -11.9187L230.783 -13.0246C231.267 -13.4687 231.762 -13.9125 232.266 -14.3558L233.257 -13.2293C233.738 -13.653 234.229 -14.0763 234.73 -14.4993L233.761 -15.6446C234.262 -16.0684 234.772 -16.4917 235.29 -16.9143L236.238 -15.7515C236.739 -16.1601 237.249 -16.5682 237.767 -16.9756L236.84 -18.1546C237.354 -18.5591 237.876 -18.9628 238.406 -19.3656L239.314 -18.1716C239.832 -18.566 240.359 -18.9596 240.892 -19.3523L240.003 -20.5605C240.529 -20.9472 241.062 -21.333 241.601 -21.7176L242.472 -20.4962C243.002 -20.8741 243.539 -21.251 244.083 -21.6268L243.23 -22.8607C243.769 -23.2334 244.314 -23.6049 244.866 -23.9752L245.702 -22.7295C246.242 -23.092 246.789 -23.4532 247.341 -23.8131L246.522 -25.0699C247.073 -25.4288 247.63 -25.7865 248.192 -26.1427L248.995 -24.8753C249.544 -25.2232 250.099 -25.5696 250.66 -25.9147L249.873 -27.192C250.434 -27.5375 251.001 -27.8815 251.573 -28.2239L252.343 -26.937C252.901 -27.271 253.464 -27.6035 254.032 -27.9344L253.277 -29.2304C253.847 -29.5627 254.422 -29.8933 255.002 -30.2223L255.742 -28.9175C256.308 -29.2382 256.878 -29.5574 257.453 -29.8749L256.728 -31.188C257.306 -31.5073 257.889 -31.8248 258.476 -32.1406L259.187 -30.8194C259.76 -31.1274 260.337 -31.4338 260.919 -31.7383L260.223 -33.0672C260.808 -33.3737 261.398 -33.6784 261.992 -33.9812L262.673 -32.6449C263.253 -32.9406 263.837 -33.2346 264.425 -33.5266L263.758 -34.87C264.349 -35.164 264.945 -35.456 265.545 -35.7461L266.198 -34.3958C266.784 -34.6795 267.375 -34.9614 267.969 -35.2413L267.33 -36.5982C267.927 -36.8798 268.528 -37.1594 269.133 -37.4369L269.759 -36.0735C270.352 -36.3455 270.948 -36.6155 271.548 -36.8835L270.936 -38.2531C271.539 -38.5224 272.145 -38.7897 272.755 -39.0548L273.353 -37.6792C273.952 -37.9397 274.554 -38.1981 275.16 -38.4543L274.575 -39.8356C275.183 -40.0929 275.794 -40.348 276.408 -40.6009L276.979 -39.2139C277.584 -39.4628 278.192 -39.7097 278.802 -39.9543L278.245 -41.3467C278.857 -41.592 279.472 -41.835 280.091 -42.0757L280.635 -40.678C280.942 -40.7975 281.249 -40.9164 281.558 -41.0347C281.866 -41.1531 282.174 -41.2705 282.482 -41.3871L281.951 -42.79C282.572 -43.0248 283.192 -43.2559 283.811 -43.4834L284.328 -42.0754C284.946 -42.3023 285.563 -42.5255 286.178 -42.7451L285.675 -44.158C286.3 -44.381 286.925 -44.6003 287.549 -44.8158L288.039 -43.3981C288.66 -43.6128 289.281 -43.8237 289.9 -44.0309L289.424 -45.4534C290.055 -45.6644 290.684 -45.8715 291.312 -46.0747L291.774 -44.6476C292.399 -44.8498 293.023 -45.0482 293.646 -45.2428L293.198 -46.6745C293.833 -46.873 294.467 -47.0676 295.1 -47.2582L295.533 -45.822C296.161 -46.0115 296.789 -46.1971 297.415 -46.3787L296.996 -47.8193C297.636 -48.0049 298.274 -48.1865 298.911 -48.3641L299.314 -46.9192C299.946 -47.0956 300.577 -47.2679 301.206 -47.4362L300.818 -48.8852C301.462 -49.0575 302.104 -49.2256 302.744 -49.3895L303.116 -47.9364C303.752 -48.0993 304.386 -48.2579 305.018 -48.4124L304.662 -49.8695C305.31 -50.0278 305.955 -50.1818 306.598 -50.3315L306.938 -48.8705C307.578 -49.0193 308.215 -49.1637 308.85 -49.3038L308.527 -50.7686C309.178 -50.9122 309.827 -51.0514 310.473 -51.186L310.779 -49.7176C311.423 -49.8517 312.063 -49.9812 312.701 -50.1063L312.413 -51.5783C313.067 -51.7064 313.718 -51.8299 314.366 -51.9487L314.637 -50.4732C315.284 -50.5919 315.928 -50.7057 316.569 -50.8148L316.318 -52.2935C316.974 -52.4053 317.627 -52.5121 318.277 -52.6139L318.509 -51.132C319.161 -51.2342 319.808 -51.3313 320.452 -51.4235L320.24 -52.9083C320.898 -53.0025 321.552 -53.0914 322.202 -53.1752L322.394 -51.6875C323.049 -51.772 323.7 -51.8512 324.347 -51.925L324.177 -53.4154C324.835 -53.4905 325.489 -53.5603 326.138 -53.6246L326.286 -52.1319C326.946 -52.1972 327.6 -52.2569 328.25 -52.3109L328.125 -53.8057C328.788 -53.8608 329.447 -53.9102 330.099 -53.9537L330.199 -52.457C330.857 -52.5008 331.509 -52.5386 332.155 -52.5704L332.081 -54.0686C332.749 -54.1015 333.411 -54.1282 334.067 -54.1485L334.113 -52.6492C334.768 -52.6695 335.416 -52.6835 336.058 -52.691L336.04 -54.1909C336.711 -54.1989 337.376 -54.2 338.033 -54.1942L338.02 -52.6943C338.678 -52.6885 339.329 -52.6758 339.971 -52.6561L340.017 -54.1554C340.682 -54.135 341.339 -54.1073 341.988 -54.0723L341.907 -52.5745C342.567 -52.5389 343.218 -52.4955 343.859 -52.4446L343.978 -53.9398C344.647 -53.8867 345.306 -53.8253 345.955 -53.7558L345.796 -52.2643C346.446 -52.1946 347.085 -52.1166 347.714 -52.0303L347.918 -53.5163C348.583 -53.4249 349.236 -53.3244 349.878 -53.2147L349.625 -51.7362C350.273 -51.6255 350.907 -51.5054 351.527 -51.3759L351.834 -52.8443C352.493 -52.7068 353.138 -52.5588 353.768 -52.4003L353.403 -50.9455C354.034 -50.7869 354.649 -50.6177 355.248 -50.4382L355.679 -51.8749C356.323 -51.6815 356.951 -51.4761 357.56 -51.2586L357.056 -49.8459C357.664 -49.6288 358.252 -49.3999 358.818 -49.1594L359.404 -50.5402C360.026 -50.2763 360.626 -49.9982 361.203 -49.7058L360.525 -48.3677C361.096 -48.0788 361.64 -47.7765 362.158 -47.4611L362.938 -48.7423C363.515 -48.391 364.064 -48.0227 364.585 -47.6375L363.692 -46.432C364.195 -46.0598 364.665 -45.6728 365.104 -45.2714L366.117 -46.3774C366.613 -45.9225 367.075 -45.4479 367.5 -44.9536L366.362 -43.9756C366.757 -43.5166 367.115 -43.0412 367.436 -42.5494L368.692 -43.3694Z" stroke="#FFD700" stroke-width="3" stroke-dasharray="2 2"/>
<path d="M455.209 -14.1136C455.349 -13.4651 455.443 -12.8113 455.49 -12.1528L453.994 -12.0456C454.015 -11.7515 454.025 -11.4563 454.025 -11.1602C454.025 -10.864 454.015 -10.5689 453.994 -10.2748L455.49 -10.1675C455.443 -9.50901 455.349 -8.85524 455.209 -8.20677L453.743 -8.52222C453.619 -7.94802 453.455 -7.37585 453.251 -6.80594L454.664 -6.30053C454.444 -5.68671 454.183 -5.07828 453.883 -4.47572L452.541 -5.14512C452.275 -4.61334 451.975 -4.0834 451.639 -3.55576L452.904 -2.75014C452.556 -2.20413 452.176 -1.66352 451.763 -1.12869L450.575 -2.04525C450.205 -1.56523 449.805 -1.08792 449.376 -0.61378L450.488 0.392602C450.054 0.872373 449.594 1.34699 449.108 1.81617L448.066 0.737111C447.623 1.16478 447.156 1.58908 446.667 2.00967L447.644 3.14785C447.153 3.56925 446.641 3.98583 446.108 4.39736L445.191 3.21057C444.697 3.5926 444.183 3.97094 443.65 4.34534L444.513 5.5725C443.981 5.94639 443.432 6.31573 442.866 6.68032L442.054 5.41928C441.521 5.76248 440.972 6.10186 440.407 6.43723L441.173 7.727C440.613 8.05935 440.039 8.3874 439.451 8.711L438.728 7.39682C438.172 7.7026 437.603 8.00462 437.021 8.30274L437.705 9.63787C437.123 9.93548 436.53 10.229 435.925 10.5183L435.278 9.16491C434.697 9.44233 434.105 9.716 433.502 9.98579L434.114 11.3552C433.521 11.6203 432.918 11.8817 432.304 12.139L431.724 10.7557C431.131 11.0044 430.528 11.2494 429.916 11.4906L430.466 12.8862C429.854 13.1272 429.233 13.3643 428.604 13.5975L428.083 12.1908C427.481 12.4136 426.871 12.6329 426.253 12.8486L426.747 14.265C426.127 14.4811 425.499 14.6935 424.864 14.9022L424.396 13.4771C423.781 13.6788 423.159 13.8771 422.53 14.0719L422.973 15.5049C422.348 15.6982 421.716 15.888 421.077 16.0742L420.657 14.6342C420.031 14.8165 419.399 14.9953 418.76 15.1707L419.157 16.6172C418.528 16.7899 417.892 16.9591 417.251 17.1248L416.875 15.6725C416.245 15.8354 415.609 15.9948 414.967 16.1508L415.321 17.6084C414.684 17.7632 414.041 17.9145 413.393 18.0624L413.06 16.6C412.425 16.7448 411.786 16.8862 411.141 17.0243L411.455 18.491C410.812 18.6287 410.164 18.763 409.511 18.894L409.216 17.4233C408.579 17.5511 407.937 17.6757 407.29 17.797L407.566 19.2713C406.919 19.3927 406.266 19.5108 405.61 19.6256L405.351 18.1479C404.711 18.2598 404.066 18.3685 403.418 18.474L403.658 19.9545C403.007 20.0604 402.351 20.1629 401.692 20.2622L401.469 18.7789C400.826 18.8756 400.179 18.9692 399.528 19.0595L399.735 20.5453C399.08 20.6361 398.423 20.7237 397.761 20.808L397.571 19.3201C396.926 19.4023 396.277 19.4814 395.625 19.5573L395.799 21.0472C395.142 21.1236 394.483 21.1968 393.82 21.2667L393.662 19.7749C393.015 19.8432 392.365 19.9083 391.711 19.9703L391.852 21.4636C391.195 21.5259 390.534 21.5851 389.87 21.641L389.744 20.1463C389.095 20.201 388.443 20.2526 387.788 20.301L387.898 21.7969C387.24 21.8456 386.578 21.8911 385.914 21.9334L385.819 20.4365C385.168 20.4779 384.514 20.5163 383.858 20.5515L383.938 22.0494C383.279 22.0847 382.617 22.117 381.953 22.146L381.887 20.6474C381.235 20.6759 380.58 20.7013 379.923 20.7236L379.974 22.2227C379.314 22.245 378.652 22.2642 377.988 22.2802L377.952 20.7807C377.298 20.7964 376.643 20.809 375.985 20.8185L376.007 22.3184C375.347 22.3279 374.685 22.3343 374.022 22.3374L374.015 20.8375C373.685 20.839 373.356 20.8398 373.025 20.8398C372.695 20.8398 372.365 20.839 372.036 20.8375L372.029 22.3374C371.365 22.3343 370.704 22.3279 370.044 22.3184L370.066 20.8185C369.408 20.809 368.752 20.7964 368.099 20.7807L368.062 22.2802C367.398 22.2642 366.737 22.245 366.077 22.2227L366.128 20.7236C365.471 20.7013 364.816 20.6759 364.163 20.6474L364.098 22.146C363.434 22.117 362.772 22.0847 362.112 22.0494L362.193 20.5515C361.537 20.5163 360.883 20.4779 360.232 20.4365L360.137 21.9334C359.473 21.8911 358.811 21.8456 358.152 21.7969L358.263 20.301C357.608 20.2526 356.956 20.201 356.307 20.1463L356.181 21.641C355.517 21.5851 354.856 21.5259 354.198 21.4636L354.34 19.9703C353.686 19.9083 353.036 19.8432 352.388 19.7749L352.231 21.2667C351.568 21.1968 350.909 21.1236 350.252 21.0472L350.426 19.5573C349.773 19.4814 349.125 19.4023 348.479 19.3201L348.29 20.808C347.628 20.7237 346.97 20.6361 346.316 20.5453L346.522 19.0595C345.872 18.9692 345.225 18.8756 344.582 18.7789L344.359 20.2622C343.7 20.1629 343.044 20.0604 342.393 19.9545L342.633 18.474C341.984 18.3685 341.34 18.2598 340.699 18.1479L340.441 19.6256C339.784 19.5108 339.132 19.3927 338.485 19.2713L338.761 17.797C338.114 17.6757 337.472 17.5511 336.834 17.4233L336.539 18.894C335.887 18.763 335.239 18.6287 334.596 18.491L334.91 17.0243C334.265 16.8862 333.625 16.7448 332.991 16.6L332.657 18.0624C332.01 17.9145 331.367 17.7632 330.73 17.6084L331.084 16.1508C330.442 15.9948 329.806 15.8354 329.175 15.6725L328.8 17.1248C328.159 16.9591 327.523 16.7899 326.894 16.6172L327.291 15.1707C326.652 14.9953 326.019 14.8165 325.394 14.6342L324.974 16.0742C324.335 15.888 323.703 15.6982 323.078 15.5049L323.521 14.0719C322.892 13.8771 322.27 13.6788 321.655 13.4771L321.187 14.9022C320.552 14.6935 319.924 14.4811 319.304 14.265L319.798 12.8486C319.18 12.6329 318.569 12.4137 317.968 12.1908L317.447 13.5975C316.817 13.3643 316.197 13.1272 315.585 12.8863L316.135 11.4906C315.522 11.2494 314.92 11.0044 314.327 10.7557L313.747 12.139C313.133 11.8817 312.53 11.6203 311.937 11.3552L312.549 9.98579C311.945 9.71601 311.353 9.44234 310.773 9.16491L310.126 10.5183C309.521 10.229 308.927 9.93549 308.346 9.63787L309.03 8.30275C308.448 8.00462 307.879 7.7026 307.323 7.39682L306.6 8.711C306.012 8.3874 305.438 8.05935 304.878 7.727L305.644 6.43724C305.079 6.10187 304.53 5.76248 303.997 5.41929L303.185 6.68033C302.619 6.31574 302.07 5.9464 301.538 5.5725L302.4 4.34535C301.868 3.97095 301.354 3.59261 300.86 3.21058L299.943 4.39737C299.41 3.98584 298.898 3.56926 298.407 3.14786L299.384 2.00968C298.894 1.58909 298.428 1.16479 297.985 0.737119L296.943 1.81618C296.457 1.347 295.997 0.87238 295.562 0.39261L296.675 -0.613772C296.246 -1.08792 295.846 -1.56522 295.475 -2.04524L294.288 -1.12868C293.875 -1.66352 293.494 -2.20412 293.147 -2.75013L294.412 -3.55575C294.076 -4.08339 293.775 -4.61333 293.51 -5.14511L292.168 -4.47571C291.867 -5.07827 291.607 -5.6867 291.387 -6.30052L292.799 -6.80594C292.595 -7.37584 292.432 -7.94801 292.308 -8.52222L290.842 -8.20676C290.702 -8.85523 290.608 -9.509 290.561 -10.1675L292.057 -10.2748C292.036 -10.5689 292.025 -10.864 292.025 -11.1602C292.025 -11.4563 292.036 -11.7515 292.057 -12.0456L290.561 -12.1528C290.608 -12.8113 290.702 -13.4651 290.842 -14.1135L292.308 -13.7981C292.432 -14.3723 292.595 -14.9445 292.799 -15.5144L291.387 -16.0198C291.607 -16.6336 291.867 -17.242 292.168 -17.8446L293.51 -17.1752C293.775 -17.707 294.076 -18.2369 294.412 -18.7646L293.147 -19.5702C293.494 -20.1162 293.875 -20.6568 294.288 -21.1916L295.475 -20.2751C295.846 -20.7551 296.246 -21.2324 296.675 -21.7065L295.562 -22.7129C295.997 -23.1927 296.457 -23.6673 296.943 -24.1365L297.985 -23.0574C298.428 -23.4851 298.894 -23.9094 299.384 -24.33L298.407 -25.4682C298.898 -25.8896 299.41 -26.3061 299.943 -26.7177L300.86 -25.5309C301.354 -25.9129 301.868 -26.2913 302.4 -26.6657L301.538 -27.8928C302.07 -28.2667 302.619 -28.636 303.185 -29.0006L303.997 -27.7396C304.53 -28.0828 305.079 -28.4222 305.644 -28.7576L304.878 -30.0473C305.438 -30.3797 306.012 -30.7077 306.6 -31.0313L307.323 -29.7171C307.879 -30.0229 308.448 -30.3249 309.03 -30.6231L308.346 -31.9582C308.927 -32.2558 309.521 -32.5493 310.126 -32.8386L310.773 -31.4852C311.353 -31.7626 311.945 -32.0363 312.549 -32.3061L311.937 -33.6755C312.53 -33.9407 313.133 -34.202 313.747 -34.4593L314.327 -33.076C314.92 -33.3247 315.522 -33.5697 316.135 -33.811L315.585 -35.2066C316.197 -35.4475 316.817 -35.6846 317.447 -35.9178L317.968 -34.5112C318.569 -34.734 319.18 -34.9533 319.798 -35.1689L319.304 -36.5853C319.924 -36.8014 320.552 -37.0138 321.187 -37.2225L321.655 -35.7974C322.27 -35.9992 322.892 -36.1975 323.521 -36.3922L323.078 -37.8252C323.703 -38.0185 324.335 -38.2084 324.974 -38.3946L325.394 -36.9545C326.019 -37.1368 326.652 -37.3157 327.291 -37.491L326.894 -38.9375C327.523 -39.1102 328.159 -39.2794 328.8 -39.4452L329.175 -37.9928C329.806 -38.1557 330.442 -38.3151 331.084 -38.4711L330.73 -39.9287C331.367 -40.0835 332.01 -40.2348 332.657 -40.3827L332.991 -38.9203C333.625 -39.0651 334.265 -39.2065 334.91 -39.3446L334.596 -40.8113C335.239 -40.949 335.886 -41.0833 336.539 -41.2143L336.834 -39.7436C337.472 -39.8714 338.114 -39.996 338.761 -40.1173L338.485 -41.5916C339.132 -41.713 339.784 -41.8311 340.441 -41.9459L340.699 -40.4683C341.34 -40.5802 341.984 -40.6888 342.633 -40.7943L342.393 -42.2749C343.044 -42.3807 343.699 -42.4833 344.359 -42.5825L344.582 -41.0992C345.225 -41.1959 345.872 -41.2895 346.522 -41.3798L346.316 -42.8656C346.97 -42.9564 347.628 -43.044 348.29 -43.1284L348.479 -41.6404C349.125 -41.7226 349.773 -41.8017 350.426 -41.8776L350.252 -43.3676C350.909 -43.4439 351.568 -43.5171 352.231 -43.587L352.388 -42.0953C353.036 -42.1635 353.686 -42.2286 354.34 -42.2906L354.198 -43.7839C354.856 -43.8462 355.517 -43.9054 356.181 -43.9613L356.307 -42.4666C356.956 -42.5213 357.608 -42.5729 358.263 -42.6213L358.152 -44.1172C358.811 -44.1659 359.473 -44.2114 360.137 -44.2538L360.232 -42.7568C360.883 -42.7983 361.537 -42.8366 362.193 -42.8718L362.112 -44.3697C362.772 -44.4051 363.434 -44.4373 364.098 -44.4663L364.163 -42.9677C364.816 -42.9962 365.471 -43.0216 366.128 -43.0439L366.077 -44.543C366.737 -44.5654 367.398 -44.5845 368.062 -44.6005L368.099 -43.101C368.752 -43.1167 369.408 -43.1294 370.066 -43.1388L370.044 -44.6387C370.704 -44.6482 371.365 -44.6546 372.029 -44.6578L372.036 -43.1578C372.365 -43.1594 372.695 -43.1602 373.025 -43.1602C373.356 -43.1602 373.685 -43.1594 374.015 -43.1578L374.022 -44.6578C374.685 -44.6546 375.347 -44.6482 376.006 -44.6387L375.985 -43.1388C376.643 -43.1294 377.298 -43.1167 377.952 -43.101L377.988 -44.6005C378.652 -44.5845 379.314 -44.5654 379.974 -44.543L379.923 -43.0439C380.58 -43.0216 381.235 -42.9962 381.887 -42.9677L381.953 -44.4663C382.617 -44.4373 383.279 -44.4051 383.938 -44.3697L383.858 -42.8718C384.514 -42.8366 385.168 -42.7983 385.818 -42.7568L385.914 -44.2538C386.578 -44.2114 387.24 -44.1659 387.898 -44.1172L387.788 -42.6213C388.443 -42.5729 389.095 -42.5213 389.744 -42.4666L389.87 -43.9613C390.534 -43.9054 391.195 -43.8462 391.852 -43.7839L391.711 -42.2906C392.364 -42.2286 393.015 -42.1635 393.662 -42.0953L393.82 -43.587C394.483 -43.5171 395.142 -43.4439 395.799 -43.3676L395.625 -41.8776C396.277 -41.8017 396.926 -41.7226 397.571 -41.6404L397.761 -43.1284C398.422 -43.044 399.08 -42.9564 399.735 -42.8656L399.528 -41.3799C400.179 -41.2895 400.826 -41.1959 401.469 -41.0992L401.692 -42.5825C402.351 -42.4833 403.007 -42.3807 403.658 -42.2749L403.418 -40.7943C404.066 -40.6889 404.711 -40.5802 405.351 -40.4683L405.61 -41.9459C406.266 -41.8311 406.919 -41.713 407.566 -41.5916L407.29 -40.1173C407.937 -39.996 408.579 -39.8714 409.216 -39.7436L409.511 -41.2143C410.164 -41.0833 410.812 -40.949 411.455 -40.8113L411.141 -39.3446C411.786 -39.2065 412.425 -39.0651 413.06 -38.9203L413.393 -40.3827C414.041 -40.2348 414.684 -40.0835 415.321 -39.9287L414.967 -38.4711C415.609 -38.3151 416.245 -38.1557 416.875 -37.9928L417.251 -39.4452C417.892 -39.2794 418.528 -39.1102 419.157 -38.9375L418.76 -37.491C419.399 -37.3157 420.031 -37.1368 420.657 -36.9545L421.077 -38.3946C421.716 -38.2084 422.348 -38.0185 422.973 -37.8252L422.53 -36.3922C423.159 -36.1975 423.781 -35.9992 424.396 -35.7974L424.864 -37.2225C425.499 -37.0138 426.127 -36.8014 426.747 -36.5853L426.253 -35.1689C426.871 -34.9533 427.481 -34.734 428.083 -34.5112L428.604 -35.9178C429.233 -35.6846 429.854 -35.4475 430.466 -35.2066L429.916 -33.811C430.528 -33.5697 431.131 -33.3247 431.724 -33.0761L432.304 -34.4593C432.918 -34.202 433.521 -33.9407 434.114 -33.6755L433.502 -32.3061C434.105 -32.0363 434.697 -31.7627 435.278 -31.4852L435.925 -32.8386C436.53 -32.5493 437.123 -32.2558 437.705 -31.9582L437.021 -30.6231C437.603 -30.3249 438.172 -30.0229 438.728 -29.7171L439.451 -31.0313C440.039 -30.7077 440.613 -30.3797 441.173 -30.0473L440.407 -28.7576C440.972 -28.4222 441.521 -28.0828 442.054 -27.7396L442.866 -29.0006C443.432 -28.6361 443.981 -28.2667 444.513 -27.8928L443.65 -26.6657C444.183 -26.2913 444.697 -25.9129 445.191 -25.5309L446.108 -26.7177C446.641 -26.3062 447.153 -25.8896 447.643 -25.4682L446.666 -24.33C447.156 -23.9094 447.623 -23.4851 448.066 -23.0574L449.108 -24.1365C449.594 -23.6673 450.054 -23.1927 450.488 -22.7129L449.376 -21.7065C449.805 -21.2324 450.205 -20.7551 450.575 -20.2751L451.763 -21.1916C452.176 -20.6568 452.556 -20.1162 452.904 -19.5702L451.639 -18.7646C451.975 -18.2369 452.275 -17.707 452.541 -17.1752L453.883 -17.8446C454.183 -17.242 454.444 -16.6336 454.664 -16.0198L453.251 -15.5144C453.455 -14.9445 453.619 -14.3723 453.743 -13.7981L455.209 -14.1136Z" stroke="#FFD700" stroke-width="3" stroke-dasharray="2 2"/>
<path d="M501.209 -14.1136C501.349 -13.4651 501.443 -12.8113 501.49 -12.1528L499.994 -12.0456C500.015 -11.7515 500.025 -11.4563 500.025 -11.1602C500.025 -10.864 500.015 -10.5689 499.994 -10.2748L501.49 -10.1675C501.443 -9.50901 501.349 -8.85524 501.209 -8.20677L499.743 -8.52222C499.619 -7.94802 499.455 -7.37585 499.251 -6.80594L500.664 -6.30053C500.444 -5.68671 500.183 -5.07828 499.883 -4.47572L498.541 -5.14512C498.275 -4.61334 497.975 -4.0834 497.639 -3.55576L498.904 -2.75014C498.556 -2.20413 498.176 -1.66352 497.763 -1.12869L496.575 -2.04525C496.205 -1.56523 495.805 -1.08792 495.376 -0.61378L496.488 0.392602C496.054 0.872373 495.594 1.34699 495.108 1.81617L494.066 0.737111C493.623 1.16478 493.156 1.58908 492.667 2.00967L493.644 3.14785C493.153 3.56925 492.641 3.98583 492.108 4.39736L491.191 3.21057C490.697 3.5926 490.183 3.97094 489.65 4.34534L490.513 5.5725C489.981 5.94639 489.432 6.31573 488.866 6.68032L488.054 5.41928C487.521 5.76248 486.972 6.10186 486.407 6.43723L487.173 7.727C486.613 8.05935 486.039 8.3874 485.451 8.711L484.728 7.39682C484.172 7.7026 483.603 8.00462 483.021 8.30274L483.705 9.63787C483.123 9.93548 482.53 10.229 481.925 10.5183L481.278 9.16491C480.697 9.44233 480.105 9.716 479.502 9.98579L480.114 11.3552C479.521 11.6203 478.918 11.8817 478.304 12.139L477.724 10.7557C477.131 11.0044 476.528 11.2494 475.916 11.4906L476.466 12.8862C475.854 13.1272 475.233 13.3643 474.604 13.5975L474.083 12.1908C473.481 12.4136 472.871 12.6329 472.253 12.8486L472.747 14.265C472.127 14.4811 471.499 14.6935 470.864 14.9022L470.396 13.4771C469.781 13.6788 469.159 13.8771 468.53 14.0719L468.973 15.5049C468.348 15.6982 467.716 15.888 467.077 16.0742L466.657 14.6342C466.031 14.8165 465.399 14.9953 464.76 15.1707L465.157 16.6172C464.528 16.7899 463.892 16.9591 463.251 17.1248L462.875 15.6725C462.245 15.8354 461.609 15.9948 460.967 16.1508L461.321 17.6084C460.684 17.7632 460.041 17.9145 459.393 18.0624L459.06 16.6C458.425 16.7448 457.786 16.8862 457.141 17.0243L457.455 18.491C456.812 18.6287 456.164 18.763 455.511 18.894L455.216 17.4233C454.579 17.5511 453.937 17.6757 453.29 17.797L453.566 19.2713C452.919 19.3927 452.266 19.5108 451.61 19.6256L451.351 18.1479C450.711 18.2598 450.066 18.3685 449.418 18.474L449.658 19.9545C449.007 20.0604 448.351 20.1629 447.692 20.2622L447.469 18.7789C446.826 18.8756 446.179 18.9692 445.528 19.0595L445.735 20.5453C445.08 20.6361 444.423 20.7237 443.761 20.808L443.571 19.3201C442.926 19.4023 442.277 19.4814 441.625 19.5573L441.799 21.0472C441.142 21.1236 440.483 21.1968 439.82 21.2667L439.662 19.7749C439.015 19.8432 438.365 19.9083 437.711 19.9703L437.852 21.4636C437.195 21.5259 436.534 21.5851 435.87 21.641L435.744 20.1463C435.095 20.201 434.443 20.2526 433.788 20.301L433.898 21.7969C433.24 21.8456 432.578 21.8911 431.914 21.9334L431.819 20.4365C431.168 20.4779 430.514 20.5163 429.858 20.5515L429.938 22.0494C429.279 22.0847 428.617 22.117 427.953 22.146L427.887 20.6474C427.235 20.6759 426.58 20.7013 425.923 20.7236L425.974 22.2227C425.314 22.245 424.652 22.2642 423.988 22.2802L423.952 20.7807C423.298 20.7964 422.643 20.809 421.985 20.8185L422.007 22.3184C421.347 22.3279 420.685 22.3343 420.022 22.3374L420.015 20.8375C419.685 20.839 419.356 20.8398 419.025 20.8398C418.695 20.8398 418.365 20.839 418.036 20.8375L418.029 22.3374C417.365 22.3343 416.704 22.3279 416.044 22.3184L416.066 20.8185C415.408 20.809 414.752 20.7964 414.099 20.7807L414.062 22.2802C413.398 22.2642 412.737 22.245 412.077 22.2227L412.128 20.7236C411.471 20.7013 410.816 20.6759 410.163 20.6474L410.098 22.146C409.434 22.117 408.772 22.0847 408.112 22.0494L408.193 20.5515C407.537 20.5163 406.883 20.4779 406.232 20.4365L406.137 21.9334C405.473 21.8911 404.811 21.8456 404.152 21.7969L404.263 20.301C403.608 20.2526 402.956 20.201 402.307 20.1463L402.181 21.641C401.517 21.5851 400.856 21.5259 400.198 21.4636L400.34 19.9703C399.686 19.9083 399.036 19.8432 398.388 19.7749L398.231 21.2667C397.568 21.1968 396.909 21.1236 396.252 21.0472L396.426 19.5573C395.773 19.4814 395.125 19.4023 394.479 19.3201L394.29 20.808C393.628 20.7237 392.97 20.6361 392.316 20.5453L392.522 19.0595C391.872 18.9692 391.225 18.8756 390.582 18.7789L390.359 20.2622C389.7 20.1629 389.044 20.0604 388.393 19.9545L388.633 18.474C387.984 18.3685 387.34 18.2598 386.699 18.1479L386.441 19.6256C385.784 19.5108 385.132 19.3927 384.485 19.2713L384.761 17.797C384.114 17.6757 383.472 17.5511 382.834 17.4233L382.539 18.894C381.887 18.763 381.239 18.6287 380.596 18.491L380.91 17.0243C380.265 16.8862 379.625 16.7448 378.991 16.6L378.657 18.0624C378.01 17.9145 377.367 17.7632 376.73 17.6084L377.084 16.1508C376.442 15.9948 375.806 15.8354 375.175 15.6725L374.8 17.1248C374.159 16.9591 373.523 16.7899 372.894 16.6172L373.291 15.1707C372.652 14.9953 372.019 14.8165 371.394 14.6342L370.974 16.0742C370.335 15.888 369.703 15.6982 369.078 15.5049L369.521 14.0719C368.892 13.8771 368.27 13.6788 367.655 13.4771L367.187 14.9022C366.552 14.6935 365.924 14.4811 365.304 14.265L365.798 12.8486C365.18 12.6329 364.569 12.4137 363.968 12.1908L363.447 13.5975C362.817 13.3643 362.197 13.1272 361.585 12.8863L362.135 11.4906C361.522 11.2494 360.92 11.0044 360.327 10.7557L359.747 12.139C359.133 11.8817 358.53 11.6203 357.937 11.3552L358.549 9.98579C357.945 9.71601 357.353 9.44234 356.773 9.16491L356.126 10.5183C355.521 10.229 354.927 9.93549 354.346 9.63787L355.03 8.30275C354.448 8.00462 353.879 7.7026 353.323 7.39682L352.6 8.711C352.012 8.3874 351.438 8.05935 350.878 7.727L351.644 6.43724C351.079 6.10187 350.53 5.76248 349.997 5.41929L349.185 6.68033C348.619 6.31574 348.07 5.9464 347.538 5.5725L348.4 4.34535C347.868 3.97095 347.354 3.59261 346.86 3.21058L345.943 4.39737C345.41 3.98584 344.898 3.56926 344.407 3.14786L345.384 2.00968C344.894 1.58909 344.428 1.16479 343.985 0.737119L342.943 1.81618C342.457 1.347 341.997 0.87238 341.562 0.39261L342.675 -0.613772C342.246 -1.08792 341.846 -1.56522 341.475 -2.04524L340.288 -1.12868C339.875 -1.66352 339.494 -2.20412 339.147 -2.75013L340.412 -3.55575C340.076 -4.08339 339.775 -4.61333 339.51 -5.14511L338.168 -4.47571C337.867 -5.07827 337.607 -5.6867 337.387 -6.30052L338.799 -6.80594C338.595 -7.37584 338.432 -7.94801 338.308 -8.52222L336.842 -8.20676C336.702 -8.85523 336.608 -9.509 336.561 -10.1675L338.057 -10.2748C338.036 -10.5689 338.025 -10.864 338.025 -11.1602C338.025 -11.4563 338.036 -11.7515 338.057 -12.0456L336.561 -12.1528C336.608 -12.8113 336.702 -13.4651 336.842 -14.1135L338.308 -13.7981C338.432 -14.3723 338.595 -14.9445 338.799 -15.5144L337.387 -16.0198C337.607 -16.6336 337.867 -17.242 338.168 -17.8446L339.51 -17.1752C339.775 -17.707 340.076 -18.2369 340.412 -18.7646L339.147 -19.5702C339.494 -20.1162 339.875 -20.6568 340.288 -21.1916L341.475 -20.2751C341.846 -20.7551 342.246 -21.2324 342.675 -21.7065L341.562 -22.7129C341.997 -23.1927 342.457 -23.6673 342.943 -24.1365L343.985 -23.0574C344.428 -23.4851 344.894 -23.9094 345.384 -24.33L344.407 -25.4682C344.898 -25.8896 345.41 -26.3061 345.943 -26.7177L346.86 -25.5309C347.354 -25.9129 347.868 -26.2913 348.4 -26.6657L347.538 -27.8928C348.07 -28.2667 348.619 -28.636 349.185 -29.0006L349.997 -27.7396C350.53 -28.0828 351.079 -28.4222 351.644 -28.7576L350.878 -30.0473C351.438 -30.3797 352.012 -30.7077 352.6 -31.0313L353.323 -29.7171C353.879 -30.0229 354.448 -30.3249 355.03 -30.6231L354.346 -31.9582C354.927 -32.2558 355.521 -32.5493 356.126 -32.8386L356.773 -31.4852C357.353 -31.7626 357.945 -32.0363 358.549 -32.3061L357.937 -33.6755C358.53 -33.9407 359.133 -34.202 359.747 -34.4593L360.327 -33.076C360.92 -33.3247 361.522 -33.5697 362.135 -33.811L361.585 -35.2066C362.197 -35.4475 362.817 -35.6846 363.447 -35.9178L363.968 -34.5112C364.569 -34.734 365.18 -34.9533 365.798 -35.1689L365.304 -36.5853C365.924 -36.8014 366.552 -37.0138 367.187 -37.2225L367.655 -35.7974C368.27 -35.9992 368.892 -36.1975 369.521 -36.3922L369.078 -37.8252C369.703 -38.0185 370.335 -38.2084 370.974 -38.3946L371.394 -36.9545C372.019 -37.1368 372.652 -37.3157 373.291 -37.491L372.894 -38.9375C373.523 -39.1102 374.159 -39.2794 374.8 -39.4452L375.175 -37.9928C375.806 -38.1557 376.442 -38.3151 377.084 -38.4711L376.73 -39.9287C377.367 -40.0835 378.01 -40.2348 378.657 -40.3827L378.991 -38.9203C379.625 -39.0651 380.265 -39.2065 380.91 -39.3446L380.596 -40.8113C381.239 -40.949 381.886 -41.0833 382.539 -41.2143L382.834 -39.7436C383.472 -39.8714 384.114 -39.996 384.761 -40.1173L384.485 -41.5916C385.132 -41.713 385.784 -41.8311 386.441 -41.9459L386.699 -40.4683C387.34 -40.5802 387.984 -40.6888 388.633 -40.7943L388.393 -42.2749C389.044 -42.3807 389.699 -42.4833 390.359 -42.5825L390.582 -41.0992C391.225 -41.1959 391.872 -41.2895 392.522 -41.3798L392.316 -42.8656C392.97 -42.9564 393.628 -43.044 394.29 -43.1284L394.479 -41.6404C395.125 -41.7226 395.773 -41.8017 396.426 -41.8776L396.252 -43.3676C396.909 -43.4439 397.568 -43.5171 398.231 -43.587L398.388 -42.0953C399.036 -42.1635 399.686 -42.2286 400.34 -42.2906L400.198 -43.7839C400.856 -43.8462 401.517 -43.9054 402.181 -43.9613L402.307 -42.4666C402.956 -42.5213 403.608 -42.5729 404.263 -42.6213L404.152 -44.1172C404.811 -44.1659 405.473 -44.2114 406.137 -44.2538L406.232 -42.7568C406.883 -42.7983 407.537 -42.8366 408.193 -42.8718L408.112 -44.3697C408.772 -44.4051 409.434 -44.4373 410.098 -44.4663L410.163 -42.9677C410.816 -42.9962 411.471 -43.0216 412.128 -43.0439L412.077 -44.543C412.737 -44.5654 413.398 -44.5845 414.062 -44.6005L414.099 -43.101C414.752 -43.1167 415.408 -43.1294 416.066 -43.1388L416.044 -44.6387C416.704 -44.6482 417.365 -44.6546 418.029 -44.6578L418.036 -43.1578C418.365 -43.1594 418.695 -43.1602 419.025 -43.1602C419.356 -43.1602 419.685 -43.1594 420.015 -43.1578L420.022 -44.6578C420.685 -44.6546 421.347 -44.6482 422.006 -44.6387L421.985 -43.1388C422.643 -43.1294 423.298 -43.1167 423.952 -43.101L423.988 -44.6005C424.652 -44.5845 425.314 -44.5654 425.974 -44.543L425.923 -43.0439C426.58 -43.0216 427.235 -42.9962 427.887 -42.9677L427.953 -44.4663C428.617 -44.4373 429.279 -44.4051 429.938 -44.3697L429.858 -42.8718C430.514 -42.8366 431.168 -42.7983 431.818 -42.7568L431.914 -44.2538C432.578 -44.2114 433.24 -44.1659 433.898 -44.1172L433.788 -42.6213C434.443 -42.5729 435.095 -42.5213 435.744 -42.4666L435.87 -43.9613C436.534 -43.9054 437.195 -43.8462 437.852 -43.7839L437.711 -42.2906C438.364 -42.2286 439.015 -42.1635 439.662 -42.0953L439.82 -43.587C440.483 -43.5171 441.142 -43.4439 441.799 -43.3676L441.625 -41.8776C442.277 -41.8017 442.926 -41.7226 443.571 -41.6404L443.761 -43.1284C444.422 -43.044 445.08 -42.9564 445.735 -42.8656L445.528 -41.3799C446.179 -41.2895 446.826 -41.1959 447.469 -41.0992L447.692 -42.5825C448.351 -42.4833 449.007 -42.3807 449.658 -42.2749L449.418 -40.7943C450.066 -40.6889 450.711 -40.5802 451.351 -40.4683L451.61 -41.9459C452.266 -41.8311 452.919 -41.713 453.566 -41.5916L453.29 -40.1173C453.937 -39.996 454.579 -39.8714 455.216 -39.7436L455.511 -41.2143C456.164 -41.0833 456.812 -40.949 457.455 -40.8113L457.141 -39.3446C457.786 -39.2065 458.425 -39.0651 459.06 -38.9203L459.393 -40.3827C460.041 -40.2348 460.684 -40.0835 461.321 -39.9287L460.967 -38.4711C461.609 -38.3151 462.245 -38.1557 462.875 -37.9928L463.251 -39.4452C463.892 -39.2794 464.528 -39.1102 465.157 -38.9375L464.76 -37.491C465.399 -37.3157 466.031 -37.1368 466.657 -36.9545L467.077 -38.3946C467.716 -38.2084 468.348 -38.0185 468.973 -37.8252L468.53 -36.3922C469.159 -36.1975 469.781 -35.9992 470.396 -35.7974L470.864 -37.2225C471.499 -37.0138 472.127 -36.8014 472.747 -36.5853L472.253 -35.1689C472.871 -34.9533 473.481 -34.734 474.083 -34.5112L474.604 -35.9178C475.233 -35.6846 475.854 -35.4475 476.466 -35.2066L475.916 -33.811C476.528 -33.5697 477.131 -33.3247 477.724 -33.0761L478.304 -34.4593C478.918 -34.202 479.521 -33.9407 480.114 -33.6755L479.502 -32.3061C480.105 -32.0363 480.697 -31.7627 481.278 -31.4852L481.925 -32.8386C482.53 -32.5493 483.123 -32.2558 483.705 -31.9582L483.021 -30.6231C483.603 -30.3249 484.172 -30.0229 484.728 -29.7171L485.451 -31.0313C486.039 -30.7077 486.613 -30.3797 487.173 -30.0473L486.407 -28.7576C486.972 -28.4222 487.521 -28.0828 488.054 -27.7396L488.866 -29.0006C489.432 -28.6361 489.981 -28.2667 490.513 -27.8928L489.65 -26.6657C490.183 -26.2913 490.697 -25.9129 491.191 -25.5309L492.108 -26.7177C492.641 -26.3062 493.153 -25.8896 493.643 -25.4682L492.666 -24.33C493.156 -23.9094 493.623 -23.4851 494.066 -23.0574L495.108 -24.1365C495.594 -23.6673 496.054 -23.1927 496.488 -22.7129L495.376 -21.7065C495.805 -21.2324 496.205 -20.7551 496.575 -20.2751L497.763 -21.1916C498.176 -20.6568 498.556 -20.1162 498.904 -19.5702L497.639 -18.7646C497.975 -18.2369 498.275 -17.707 498.541 -17.1752L499.883 -17.8446C500.183 -17.242 500.444 -16.6336 500.664 -16.0198L499.251 -15.5144C499.455 -14.9445 499.619 -14.3723 499.743 -13.7981L501.209 -14.1136Z" stroke="#FFD700" stroke-width="3" stroke-dasharray="2 2"/>
<path d="M65.286 19.7698C66.7017 18.7189 68.6386 18.7189 70.0543 19.7698L81.0516 27.9331C84.1462 30.2303 82.5215 35.1449 78.6674 35.1449H56.6729C52.8189 35.1449 51.1941 30.2303 54.2888 27.9331L65.286 19.7698Z" fill="#FFD700"/>
<rect x="52.4392" y="36.0975" width="30.4799" height="2.16476" rx="1.08238" fill="#FFD700"/>
<rect x="52.4392" y="38.9514" width="30.4799" height="2.16476" rx="1.08238" fill="#FFD700"/>
<path d="M70.0546 96.5002C68.6388 97.5512 66.702 97.5512 65.2863 96.5002L54.289 88.3369C51.1944 86.0398 52.8191 81.1251 56.6732 81.1251H78.6676C82.5217 81.1251 84.1465 86.0398 81.0518 88.3369L70.0546 96.5002Z" fill="#FFD700"/>
<rect x="82.9014" y="80.1725" width="30.4799" height="2.16476" rx="1.08238" transform="rotate(-180 82.9014 80.1725)" fill="#FFD700"/>
<rect x="82.9014" y="77.3129" width="30.4799" height="2.16476" rx="1.08238" transform="rotate(-180 82.9014 77.3129)" fill="#FFD700"/>
<rect x="52.438" y="41.8125" width="5.71498" height="32.3848" fill="#860000" class="red-light"/>
<rect x="59.0896" y="41.8126" width="17.145" height="32.3848" fill="#860000" class="red-light"/>
<rect x="77.1943" y="41.8126" width="5.71498" height="32.3848" fill="#860000" class="red-light"/>
<path d="M66.5 11.9991L61.7265 21.9991H73.2735L68.5 11.9991H66.5ZM66.5 -11.0009V12.9991H68.5V-11.0009H66.5Z" fill="#FFD700"/>
<path d="M338.286 19.7698C339.702 18.7189 341.639 18.7189 343.054 19.7698L354.052 27.9331C357.146 30.2303 355.521 35.1449 351.667 35.1449H329.673C325.819 35.1449 324.194 30.2303 327.289 27.9331L338.286 19.7698Z" fill="#FFD700"/>
<rect x="325.439" y="36.0975" width="30.4799" height="2.16476" rx="1.08238" fill="#FFD700"/>
<rect x="325.439" y="38.9514" width="30.4799" height="2.16476" rx="1.08238" fill="#FFD700"/>
<path d="M343.055 96.5002C341.639 97.5512 339.702 97.5512 338.286 96.5002L327.289 88.3369C324.194 86.0398 325.819 81.1251 329.673 81.1251H351.668C355.522 81.1251 357.146 86.0398 354.052 88.3369L343.055 96.5002Z" fill="#FFD700"/>
<rect x="355.901" y="80.1725" width="30.4799" height="2.16476" rx="1.08238" transform="rotate(-180 355.901 80.1725)" fill="#FFD700"/>
<rect x="355.901" y="77.3129" width="30.4799" height="2.16476" rx="1.08238" transform="rotate(-180 355.901 77.3129)" fill="#FFD700"/>
<rect x="325.438" y="41.8125" width="5.71498" height="32.3848" fill="#000958" class="blue-light"/>
<rect x="332.09" y="41.8126" width="17.145" height="32.3848" fill="#000958" class="blue-light"/>
<rect x="350.194" y="41.8126" width="5.71498" height="32.3848" fill="#000958" class="blue-light"/>
<path d="M339.5 11.9991L334.726 21.9991H346.274L341.5 11.9991H339.5ZM339.5 -11.0009V12.9991H341.5V-11.0009H339.5Z" fill="#FFD700"/>
<line x1="24" y1="1" x2="24" y2="42" stroke="#FFD700" stroke-width="2"/>
<path d="M24.5 39L26.8574 45.9098H34.4861L28.3143 50.1803L30.6717 57.0902L24.5 52.8197L18.3283 57.0902L20.6857 50.1803L14.5139 45.9098H22.1426L24.5 39Z" fill="#000958" class="blue-light"/>
<line x1="123" y1="19" x2="123" y2="60" stroke="#FFD700" stroke-width="2"/>
<path d="M123.5 57L125.857 63.9098H133.486L127.314 68.1803L129.672 75.0902L123.5 70.8197L117.328 75.0902L119.686 68.1803L113.514 63.9098H121.143L123.5 57Z" fill="#000958" class="blue-light"/>
<line x1="174" y1="-6" x2="174" y2="35" stroke="#FFD700" stroke-width="2"/>
<path d="M174.5 32L176.857 38.9098H184.486L178.314 43.1803L180.672 50.0902L174.5 45.8197L168.328 50.0902L170.686 43.1803L164.514 38.9098H172.143L174.5 32Z" fill="#860000" class="red-light"/>
<line x1="252.5" y1="43.0178" x2="252.5" y2="28.9822" stroke="#FFD700" stroke-width="2"/>
<path d="M252.5 40L254.857 46.9098H262.486L256.314 51.1803L258.672 58.0902L252.5 53.8197L246.328 58.0902L248.686 51.1803L242.514 46.9098H250.143L252.5 40Z" fill="#000958" class="blue-light"/>
<line x1="299" y1="-8" x2="299" y2="33" stroke="#FFD700" stroke-width="2"/>
<path d="M299.5 30L301.857 36.9098H309.486L303.314 41.1803L305.672 48.0902L299.5 43.8197L293.328 48.0902L295.686 41.1803L289.514 36.9098H297.143L299.5 30Z" fill="#860000" class="red-light"/>
<line x1="397" y1="18" x2="397" y2="59" stroke="#FFD700" stroke-width="2"/>
<path d="M397.5 56L399.857 62.9098H407.486L401.314 67.1803L403.672 74.0902L397.5 69.8197L391.328 74.0902L393.686 67.1803L387.514 62.9098H395.143L397.5 56Z" fill="#860000" class="red-light"/>
</g>
<defs>
<clipPath id="clip0_112_2">
<rect width="423.281" height="100" fill="white"/>
</clipPath>
</defs>
</svg>
